<svg><metadata>Created by FontForge 20090622 at Fri Oct 7 10:17:44 2016 By deploy user Copyright (c) 2015 by Red Hat, Inc. All rights reserved.</metadata><defs><font id="Overpass-LightItalic" horiz-adv-x="343"><font-face x-height="511" ascent="750" bbox="-98 -264 1206 955" cap-height="700" descent="-250" font-family="Overpass" font-stretch="normal" font-style="italic" font-weight="300" panose-1="2 11 3 6 3 2 3 2 2 4" slope="-10" underline-position="-113" underline-thickness="20" unicode-range="U+0020-U+FB02" units-per-em="1000"/><glyph d="M261 448l-79 -448h-70l79 448h-85l11 63h85l16 92q11 63 44.5 86t78.5 23q28 0 46 -7.5t33 -16.5l-10 -61q-15 8 -31 14t-36 6q-16 0 -26 -5.5t-16.5 -14t-9.5 -19.5t-5 -21l-14 -76h117l-11 -63h-117zM382 0l90 511h70l-90 -511h-70zM526 616q-17 0 -28 11t-11 28 q0 23 16 39t36 16q19 0 29.5 -11t10.5 -28q0 -23 -16.5 -39t-36.5 -16z" glyph-name="fi" horiz-adv-x="546" unicode="fi"/><glyph d="M261 448l-79 -448h-70l79 448h-85l11 63h85l16 92q11 63 44.5 86t78.5 23q28 0 46 -7.5t33 -16.5l-10 -61q-15 8 -31 14t-36 6q-16 0 -26 -5.5t-16.5 -14t-9.5 -19.5t-5 -21l-14 -76h117l-11 -63h-117zM383 0l122 692l75 30l-127 -722h-70z" glyph-name="fl" horiz-adv-x="554" unicode="fl"/><glyph glyph-name=".notdef" horiz-adv-x="221"/><glyph d="M369 623q-23 14 -51.5 23.5t-62.5 12.5l10 53q41 -4 80 -15.5t69 -31.5l65 62l28 -35l-59 -54q45 -44 69.5 -113.5t24.5 -157.5q0 -89 -19 -159t-54 -119t-85 -75t-112 -26q-42 0 -74.5 14.5t-55 40.5t-34 62t-11.5 78q0 61 20.5 111t55 86t81 56t97.5 20q31 0 53 -7.5 t37 -19.5t24.5 -27.5t15.5 -32.5q0 29 -3.5 60.5t-12.5 61.5t-24 57t-37 48l-76 -70l-25 34zM283 51q33 0 64 15.5t55 42.5t39 64t15 80q0 63 -29.5 101.5t-83.5 38.5q-33 0 -64.5 -15.5t-56 -43t-39 -65t-14.5 -82.5q0 -66 28.5 -101t85.5 -35z" glyph-name="eth" horiz-adv-x="547" unicode="ð"/><glyph d="M111 0l48 272l-82 -55l14 76l82 56l61 351h68l-51 -291l118 82l-14 -77l-118 -84l-46 -263h333l-12 -67h-401z" glyph-name="Lslash" horiz-adv-x="561" unicode="Ł"/><glyph d="M86 283l73 52l63 357l75 30l-59 -335l74 52l-11 -59l-73 -52l-58 -328h-70l49 276l-74 -52z" glyph-name="lslash" horiz-adv-x="271" unicode="ł"/><glyph d="M517 578q-15 29 -43 50t-80 21q-65 0 -102 -31.5t-37 -81.5q0 -37 21.5 -60t53.5 -41.5t70 -35.5t70 -41.5t53.5 -60.5t21.5 -91q0 -54 -18.5 -95t-51 -68t-76 -41t-94.5 -14q-41 0 -74.5 11t-59.5 30.5t-44 45t-26 55.5l64 25q38 -104 146 -104q75 0 118.5 38t43.5 111 q0 42 -21.5 69.5t-53.5 48t-69 38.5t-69 40.5t-53.5 54t-21.5 79.5q0 39 15 72.5t43 57.5t67.5 38t88.5 14q36 0 65.5 -9t52.5 -23.5t38.5 -34t23.5 -40.5zM457 766h-77l-108 156h62l94 -101l129 101h63z" glyph-name="Scaron" horiz-adv-x="591" unicode="Š"/><glyph d="M415 407q-16 20 -43 37t-72 17q-43 0 -71.5 -21t-28.5 -56q0 -25 17 -41t42.5 -29.5t55 -26.5t55 -32.5t42.5 -47.5t17 -71q0 -67 -49.5 -107.5t-131.5 -40.5q-60 0 -101.5 25.5t-66.5 63.5l53 42q18 -28 48.5 -48.5t68.5 -20.5q45 0 77.5 22t32.5 65q0 27 -16.5 45.5 t-42 33t-54.5 27.5t-54.5 31.5t-42 43.5t-16.5 64q0 33 13 59t35.5 44.5t53 28t65.5 9.5q59 0 99.5 -20.5t63.5 -57.5zM363 576h-77l-108 156h62l94 -101l129 101h63z" glyph-name="scaron" horiz-adv-x="466" unicode="š"/><glyph d="M271 0l49 280l-143 420h71l115 -360l247 360h72l-296 -427l-48 -273h-67zM455 766h-69l164 156h102z" glyph-name="Yacute" horiz-adv-x="613" unicode="Ý"/><glyph d="M183 -194h-71l110 210l-93 495h72l60 -371l2 -13.5t2 -11.5l2 -12q-1 0 6.5 13l13.5 24l194 371h76zM374 576h-69l164 156h102z" glyph-name="yacute" horiz-adv-x="512" unicode="ý"/><glyph d="M111 0l123 700h68l-24 -139h178q51 0 85.5 -14t55.5 -37.5t30 -53t9 -60.5q0 -41 -14.5 -84.5t-45 -79.5t-78.5 -59t-115 -23h-178l-26 -150h-68zM401 213q46 0 78 16t52.5 40.5t29.5 54t9 57.5q0 19 -5.5 39.5t-19 38t-36.5 28.5t-58 11h-184l-50 -285h184z" glyph-name="Thorn" horiz-adv-x="618" unicode="Þ"/><glyph d="M297 -12q-26 0 -45.5 5t-34.5 14t-25.5 20.5t-18.5 24.5l-39 -220l-73 -35l156 881l73 34l-44 -247q28 22 61.5 40t83.5 18q39 0 69 -15t51 -41.5t31.5 -64t10.5 -82.5q0 -77 -20 -138t-54.5 -104.5t-81 -66.5t-100.5 -23zM300 51q43 0 76.5 19t57 53.5t36 81.5t12.5 104 q0 67 -28 109t-82 42q-40 0 -77 -20.5t-64 -58.5l-44 -251q20 -34 46 -56.5t67 -22.5z" glyph-name="thorn" horiz-adv-x="565" unicode="þ"/><glyph d="M78 0l9 49l494 589h-368l10 62h455l-9 -51l-489 -587h386l-11 -62h-477zM520 766h-77l-108 156h62l94 -101l129 101h63z" glyph-name="Zcaron" horiz-adv-x="633" unicode="Ž"/><glyph d="M78 0l8 43l315 405h-225l11 63h321l-7 -42l-319 -406h246l-11 -63h-339zM408 576h-77l-108 156h62l94 -101l129 101h63z" glyph-name="zcaron" horiz-adv-x="500" unicode="ž"/><glyph d="M27 -12l587 724h66l-587 -724h-66zM140 283l57 324h-45l8 43q26 0 43 15t29 40h40l-74 -422h-58zM461 329q17 43 51.5 71.5t91.5 28.5t88.5 -30.5t31.5 -78.5q0 -29 -8 -52t-25 -42.5t-44 -38.5t-65 -41q-42 -24 -65.5 -45t-38.5 -48h199l-10 -53h-265q7 40 22.5 69 t38 51.5t52 42l64.5 41.5q42 26 63.5 50.5t21.5 64.5q0 10 -3.5 20.5t-11 19t-19.5 14t-30 5.5q-35 0 -57 -17.5t-36 -52.5z" glyph-name="onehalf" horiz-adv-x="743" unicode="½"/><glyph d="M27 -12l587 724h66l-587 -724h-66zM140 283l57 324h-45l8 43q26 0 43 15t29 40h40l-74 -422h-58zM523 0l19 108h-201l5 30l266 285h45l-46 -260h50l-10 -55h-50l-19 -108h-59zM552 163l30 172l-153 -172h123z" glyph-name="onequarter" horiz-adv-x="694" unicode="¼"/><glyph d="M158 444l57 324h-45l8 43q26 0 43.5 15t29.5 40h39l-75 -422h-57z" glyph-name="onesuperior" horiz-adv-x="213" unicode="¹"/><glyph d="M170 -12l587 724h66l-587 -724h-66zM160 616q23 41 64 68.5t89 27.5t76.5 -25t28.5 -68q0 -35 -20.5 -66.5t-53.5 -45.5q26 -9 40.5 -31t14.5 -53q0 -35 -12.5 -63t-34 -48t-51.5 -30.5t-64 -10.5q-55 0 -86.5 28.5t-41.5 74.5l57 23q8 -36 28 -56t52 -20q42 0 66 25 t24 62q0 24 -13.5 44.5t-41.5 20.5h-33l9 50h21q20 0 34.5 7.5t24 19.5t14 26.5t4.5 29.5q0 21 -13 38.5t-42 17.5q-27 0 -51.5 -18.5t-41.5 -45.5zM666 0l19 108h-201l5 30l266 285h45l-46 -260h50l-10 -55h-50l-19 -108h-59zM695 163l30 172l-153 -172h123z" glyph-name="threequarters" horiz-adv-x="838" unicode="¾"/><glyph d="M195 560q8 -36 27.5 -56t51.5 -20q43 0 67 24.5t24 61.5q0 24 -14 44t-41 20h-33l9 50h21q20 0 34.5 7.5t23.5 19.5t13.5 26.5t4.5 29.5q0 21 -13 38.5t-42 17.5q-27 0 -51.5 -18.5t-40.5 -45.5l-48 18q23 41 64 68.5t89 27.5t76.5 -25t28.5 -68q0 -35 -20.5 -66.5 t-52.5 -45.5q25 -9 40 -31t15 -53q0 -35 -12.5 -62.5t-34 -47t-51.5 -30t-64 -10.5q-55 0 -86.5 28.5t-41.5 74.5z" glyph-name="threesuperior" horiz-adv-x="374" unicode="³"/><glyph d="M127 444q7 40 22.5 69t38 51.5t52 42l64.5 41.5q42 26 63.5 50.5t21.5 64.5q0 10 -3.5 20.5t-11 19t-19.5 14t-30 5.5q-35 0 -57 -17.5t-36 -52.5l-46 21q17 43 51.5 71.5t91.5 28.5t88.5 -30.5t31.5 -78.5q0 -29 -8 -52t-25 -42.5t-44 -38.5t-65 -41q-42 -24 -65.5 -45 t-38.5 -48h199l-10 -53h-265z" glyph-name="twosuperior" horiz-adv-x="376" unicode="²"/><glyph d="M176 393l58 327h67l-58 -327h-67zM86 -120l57 325h33h34l-57 -325h-67z" glyph-name="brokenbar" horiz-adv-x="280" unicode="¦"/><glyph d="M151 376h470v-68h-470v68z" glyph-name="minus" horiz-adv-x="655" unicode="−"/><glyph d="M389 293l-171 -172l-52 50l174 173l-173 170l49 48l171 -171l171 172l50 -51l-172 -170l171 -173l-47 -47z" glyph-name="multiply" horiz-adv-x="655" unicode="×"/><glyph glyph-name="space" horiz-adv-x="221"/><glyph d="M170 193l25 302l39 217h69l-39 -217l-83 -302h-11zM138 -14q-23 0 -36.5 16.5t-13.5 37.5q0 13 6 26t16 23.5t23 16.5t27 6q23 0 37 -16.5t14 -37.5q0 -14 -6 -26.5t-16 -23t-23.5 -16.5t-27.5 -6z" glyph-name="exclam" horiz-adv-x="280" unicode="!"/><glyph d="M191 700h84l-65 -267h-50zM361 700h85l-65 -267h-28h-23z" glyph-name="quotedbl" horiz-adv-x="391" unicode="&quot;"/><glyph d="M154 0l66 204h-119l23 63h115l60 178h-113l20 61h110l74 194h56l-64 -194h135l63 194h66l-63 -194h119l-20 -61h-117l-60 -178h113l-20 -63h-112l-66 -204h-66l66 204h-135l-67 -204h-64zM303 267h136l60 178h-136z" glyph-name="numbersign" horiz-adv-x="679" unicode="#"/><glyph d="M516 579q-8 28 -36.5 48t-79.5 20q-67 0 -105.5 -30t-38.5 -81q0 -35 21.5 -57.5t53.5 -40.5t69.5 -35t69.5 -41t53.5 -58.5t21.5 -87.5q0 -50 -16.5 -90t-46 -69t-70 -46t-87.5 -21l-15 -88h-68l15 89q-69 9 -110.5 48.5t-50.5 90.5l67 24q12 -46 49 -73.5t95 -27.5 q76 0 121 38t45 109q0 42 -21.5 69t-53.5 46.5t-69 36.5t-69 38.5t-53.5 52.5t-21.5 79q0 36 14 68t40.5 57.5t63 41.5t81.5 21l14 79h68l-14 -80q57 -8 91 -37t39 -71z" glyph-name="dollar" horiz-adv-x="590" unicode="$"/><glyph d="M281 356q-34 0 -57.5 12.5t-38.5 32.5t-21.5 45t-6.5 51q0 33 11 71t34.5 70t58.5 53t83 21q34 0 57.5 -12.5t38 -32.5t21 -45.5t6.5 -50.5q0 -33 -10.5 -71t-33 -70t-58 -53t-84.5 -21zM291 414q27 0 48 12.5t35.5 33.5t22 48.5t7.5 57.5q0 38 -17.5 63t-53.5 25 q-28 0 -49 -13t-35 -34t-21 -48.5t-7 -56.5q0 -37 16.5 -62.5t53.5 -25.5zM240 -12h-69l587 724h69zM654 -12q-35 0 -58.5 12.5t-38 32.5t-21 45t-6.5 50q0 33 11 71t34 70.5t58 53.5t84 21q34 0 57 -12.5t37.5 -32t21 -45t6.5 -50.5q0 -33 -10.5 -71t-32.5 -70.5 t-57.5 -53.5t-84.5 -21zM664 46q27 0 48 12.5t35.5 33.5t22 48.5t7.5 56.5q0 38 -17.5 63.5t-53.5 25.5q-29 0 -50 -13t-35 -34t-21 -48t-7 -56q0 -38 17 -63.5t54 -25.5z" glyph-name="percent" horiz-adv-x="875" unicode="%"/><glyph d="M535 0l-58 91q-54 -51 -116 -77t-120 -26q-74 0 -116 42t-42 111q0 46 14.5 82t41.5 66t64.5 55.5t82.5 49.5q-28 47 -42 82t-14 66q0 39 15.5 70.5t41 53.5t59.5 34t71 12q58 0 93 -35.5t35 -89.5q0 -66 -45 -113t-122 -91l113 -182q23 35 37 67t19 51h63 q-9 -35 -27.5 -78.5t-56.5 -93.5l92 -147h-83zM265 51q42 0 89.5 24t89.5 68l-130 205q-41 -24 -72 -45t-51.5 -43t-31 -46.5t-10.5 -53.5q0 -49 31.5 -79t84.5 -30zM294 553q0 -23 15 -53.5t41 -72.5q63 35 96 69.5t33 76.5q0 35 -21.5 56t-55.5 21q-48 0 -78 -27.5 t-30 -69.5z" glyph-name="ampersand" horiz-adv-x="648" unicode="&amp;"/><glyph d="M191 700h84l-65 -267h-50z" glyph-name="quotesingle" horiz-adv-x="220" unicode="'"/><glyph d="M186 -130q-23 43 -41 114t-18 163q0 107 19.5 194t51 156.5t70.5 122.5t78 92h64q-12 -13 -33 -38t-44.5 -61.5t-48 -84t-44.5 -104.5t-32.5 -123t-12.5 -141q0 -55 6.5 -102.5t15.5 -85t18.5 -64t15.5 -38.5h-65z" glyph-name="parenleft" horiz-adv-x="348" unicode="("/><glyph d="M254 712q27 -44 46.5 -120.5t19.5 -171.5q0 -105 -18 -189t-47 -150.5t-66 -118t-74 -92.5h-64l30 37t41.5 58.5t45.5 79.5t41.5 100t30.5 120t12 140q0 56 -7 106.5t-17 91t-21 69t-18 40.5h65z" glyph-name="parenright" horiz-adv-x="348" unicode=")"/><glyph d="M366 393l-17 80l-44 -80l-79 -92l-46 43l77 88l65 56l-71 5l-92 34l34 66l87 -32l60 -49l-1 83l20 112h67l-20 -112l-33 -83l77 49l101 32l11 -66l-106 -34l-75 -5l49 -56l46 -88l-61 -43z" glyph-name="asterisk" horiz-adv-x="535" unicode="*"/><glyph d="M420 308v-200h-72v200h-198v68h198v202h72v-202h200v-68h-200z" glyph-name="plus" horiz-adv-x="655" unicode="+"/><glyph d="M57 -136q7 6 17.5 16.5t20.5 25.5t18.5 34t12.5 41q-28 0 -44 15t-16 38q0 34 21.5 54.5t48.5 20.5q23 0 39.5 -16t16.5 -49q0 -60 -34 -108t-84 -77z" glyph-name="comma" horiz-adv-x="238" unicode=","/><glyph d="M144 264l12 68h214l-12 -68h-214z" glyph-name="hyphen" horiz-adv-x="408" unicode="-"/><glyph d="M117 -14q-23 0 -36.5 16.5t-13.5 37.5q0 13 6 26t16 23.5t23 16.5t27 6q23 0 37 -16.5t14 -37.5q0 -14 -6 -26.5t-16 -23t-23.5 -16.5t-27.5 -6z" glyph-name="period" horiz-adv-x="238" unicode="."/><glyph d="M-12 -130l526 842h65l-526 -842h-65z" glyph-name="slash" horiz-adv-x="488" unicode="/"/><glyph d="M315 -12q-54 0 -90 22t-57.5 57t-31 79.5t-9.5 89.5q0 51 6.5 106t20.5 108t37 100.5t56 83.5t76.5 57t99.5 21q54 0 90 -22t57.5 -57t31 -79.5t9.5 -89.5q0 -51 -6.5 -106t-20.5 -108t-37 -100.5t-56 -83.5t-76.5 -57t-99.5 -21zM320 51q47 0 82 23.5t59.5 60.5t40 83 t24.5 91.5t12 84.5t3 63q0 34 -5.5 68.5t-19.5 62t-37.5 44.5t-60.5 17q-47 0 -82 -23.5t-59.5 -60.5t-40 -83t-24.5 -91.5t-12 -84.5t-3 -63q0 -35 5.5 -69t19.5 -61.5t37.5 -44.5t60.5 -17z" glyph-name="zero" horiz-adv-x="616" unicode="0"/><glyph d="M163 0l101 573h-114l7 40q51 0 91.5 18.5t64.5 68.5h43l-123 -700h-70z" glyph-name="one" horiz-adv-x="342" unicode="1"/><glyph d="M79 0q9 66 35 114.5t62 85t78 65t83 53.5l75.5 47.5t64.5 49t45 55.5t17 68q0 47 -33.5 79t-95.5 32t-103 -30t-63 -83l-57 28q12 31 33.5 58t50.5 47t65 31.5t77 11.5q46 0 82 -13t61.5 -36.5t39 -54.5t13.5 -67q0 -53 -22 -93.5t-57.5 -74.5t-80.5 -62l-90 -55 q-35 -21 -65.5 -41.5t-55 -43.5t-42 -48.5t-26.5 -55.5h361l-12 -67h-440z" glyph-name="two" horiz-adv-x="597" unicode="2"/><glyph d="M311 -12q-55 0 -94.5 16.5t-66 41t-41 53.5t-19.5 54l63 21q33 -123 158 -123q34 0 64.5 10t53 30.5t36 50.5t13.5 70q0 56 -32.5 88.5t-97.5 32.5h-51l11 63h41q35 0 64.5 10.5t51 29t33.5 45.5t12 60q0 50 -32 79t-85 29q-58 0 -96.5 -27.5t-58.5 -78.5l-63 21 q10 28 29 55t46.5 47.5t63.5 33t81 12.5q43 0 77 -12t58 -34t37 -52t13 -66q0 -62 -31 -108.5t-92 -75.5q18 -7 34.5 -21t29 -33.5t20 -43.5t7.5 -51q0 -54 -19 -96.5t-51 -71.5t-75.5 -44t-91.5 -15z" glyph-name="three" horiz-adv-x="588" unicode="3"/><glyph d="M366 0l33 189h-327l7 37l437 474h43l-79 -449h99l-11 -62h-99l-33 -189h-70zM410 251l55 311l-283 -311h228z" glyph-name="four" horiz-adv-x="585" unicode="4"/><glyph d="M139 136q13 -16 30.5 -31.5t39 -27.5t49 -19t61.5 -7q44 0 81 13t63.5 37.5t41 59t14.5 77.5q0 30 -7.5 57t-24.5 48t-44 33.5t-66 12.5q-54 0 -94.5 -21.5t-63.5 -49.5l-56 19l118 363h340l-11 -64h-285l-79 -236q24 20 60.5 36t86.5 16q43 0 79 -14t62 -41t40.5 -65 t14.5 -86q0 -55 -18.5 -102.5t-53.5 -82t-87 -54t-119 -19.5q-43 0 -78.5 10t-63.5 25.5t-48 33.5t-30 33z" glyph-name="five" horiz-adv-x="624" unicode="5"/><glyph d="M298 -12q-50 0 -87.5 16.5t-62.5 45t-37.5 66t-12.5 79.5q0 87 35.5 171t96 154.5t140 121.5t168.5 73l-10 -62q-57 -16 -107 -44.5t-91.5 -65.5t-73.5 -81t-52 -92q26 28 68 46t93 18q41 0 75.5 -14t59 -39t38 -59.5t13.5 -74.5q0 -57 -19 -104.5t-52.5 -82t-80 -53.5 t-101.5 -19zM301 51q40 0 73 14t57 39t37.5 59t13.5 75q0 62 -36.5 97.5t-96.5 35.5q-39 0 -72 -14t-57 -38.5t-38 -59t-14 -75.5q0 -58 34 -95.5t99 -37.5z" glyph-name="six" horiz-adv-x="584" unicode="6"/><glyph d="M168 0q14 81 37 161t59.5 159.5t89.5 159t128 160.5h-320l10 60h402l-8 -46q-85 -84 -143 -172.5t-95.5 -174t-58 -164.5t-30.5 -143h-71z" glyph-name="seven" horiz-adv-x="500" unicode="7"/><glyph d="M314 -12q-50 0 -88.5 14.5t-64.5 39.5t-39.5 59.5t-13.5 75.5q0 36 10 71t30 64t50.5 51.5t71.5 33.5q-8 4 -20 14t-23 25t-18.5 35t-7.5 45q0 38 14 73.5t40.5 62.5t65 43.5t88.5 16.5q38 0 69.5 -12.5t54.5 -34.5t36 -52t13 -65q0 -58 -31 -102.5t-86 -64.5 q47 -20 70.5 -61.5t23.5 -89.5q0 -53 -18 -97.5t-50.5 -76.5t-77.5 -50t-99 -18zM318 51q34 0 65 11.5t54.5 34t37.5 55.5t14 75q0 54 -34.5 92t-101.5 38q-37 0 -69 -12.5t-55.5 -35.5t-37 -55.5t-13.5 -72.5q0 -60 37 -95t103 -35zM378 413q28 0 53 9t44 26.5t29.5 42 t10.5 54.5q0 48 -29.5 76t-80.5 28q-29 0 -54 -10t-43.5 -27.5t-29 -41.5t-10.5 -53q0 -21 7 -39.5t21 -33t34.5 -23t47.5 -8.5z" glyph-name="eight" horiz-adv-x="595" unicode="8"/><glyph d="M184 50q54 15 103.5 44.5t90.5 67.5t71 82.5t44 88.5q-26 -31 -70.5 -49.5t-97.5 -18.5q-36 0 -69 12.5t-57.5 36t-39 57.5t-14.5 76q0 57 20.5 105.5t56 84t84 55.5t104.5 20q48 0 83 -16t58.5 -44.5t35 -67t11.5 -82.5q0 -87 -33 -170t-90 -152.5t-134.5 -120 t-166.5 -71.5zM342 324q39 0 73 14.5t59 40t39.5 60t14.5 75.5q0 59 -32 97t-94 38q-39 0 -73.5 -15t-60 -41t-40 -61t-14.5 -75q0 -28 8.5 -52.5t25 -42.5t40 -28t54.5 -10z" glyph-name="nine" horiz-adv-x="584" unicode="9"/><glyph d="M117 -14q-23 0 -36.5 16.5t-13.5 37.5q0 13 6 26t16 23.5t23 16.5t27 6q23 0 37 -16.5t14 -37.5q0 -14 -6 -26.5t-16 -23t-23.5 -16.5t-27.5 -6zM182 357q-23 0 -36.5 16.5t-13.5 37.5q0 13 6 26t16 23.5t23 16.5t27 6q23 0 37 -16.5t14 -37.5q0 -14 -6 -26.5t-16 -23 t-23 -16.5t-28 -6z" glyph-name="colon" horiz-adv-x="238" unicode=":"/><glyph d="M182 357q-23 0 -36.5 16.5t-13.5 37.5q0 13 6 26t16 23.5t23 16.5t27 6q23 0 37 -16.5t14 -37.5q0 -14 -6 -26.5t-16 -23t-23 -16.5t-28 -6zM57 -136q15 12 35.5 42.5t28.5 75.5q-24 0 -39.5 14.5t-15.5 37.5q0 34 21.5 54.5t48.5 20.5q23 0 39.5 -16t16.5 -49 q0 -60 -34 -108t-84 -77z" glyph-name="semicolon" horiz-adv-x="238" unicode=";"/><glyph d="M624 120l-470 189v66l470 190v-67l-393 -155l393 -155v-68z" glyph-name="less" horiz-adv-x="655" unicode="&lt;"/><glyph d="M150 229v67h470v-30v-37h-470zM150 388v67h470v-67h-470z" glyph-name="equal" horiz-adv-x="655" unicode="="/><glyph d="M617 309l-470 -189v66l393 157l-393 155v67l470 -190v-66z" glyph-name="greater" horiz-adv-x="655" unicode="&gt;"/><glyph d="M252 190l2 10q10 50 31.5 84t48 59.5t55 45.5t51.5 42t38 49.5t15 67.5q0 41 -28.5 70t-85.5 29q-72 0 -119.5 -41.5t-61.5 -117.5h-68q9 50 33 91.5t58.5 71t78 45.5t91.5 16q43 0 75.5 -12.5t54 -33.5t32.5 -49t11 -59q0 -52 -15.5 -87t-39.5 -60t-53 -45.5 t-55.5 -42.5t-48 -51t-29.5 -72l-2 -10h-69zM249 -14q-24 0 -37.5 16.5t-13.5 37.5q0 13 6 26t16 23.5t23 16.5t28 6q23 0 36.5 -16.5t13.5 -37.5q0 -14 -6 -26.5t-16 -23t-23 -16.5t-27 -6z" glyph-name="question" horiz-adv-x="526" unicode="?"/><glyph d="M392 -12q-61 0 -112.5 19.5t-89 55.5t-58.5 88.5t-21 118.5q0 97 37 178.5t97.5 140t137 91t155.5 32.5q62 0 112 -18t85 -51t54 -79t19 -101q0 -62 -17.5 -117.5t-47 -96.5t-67 -65t-76.5 -24q-40 0 -58.5 20.5t-19.5 55.5q-26 -37 -62.5 -61t-74.5 -24q-26 0 -47 10.5 t-36 29t-23 44t-8 54.5q0 48 16.5 91.5t45.5 76.5t68.5 52.5t84.5 19.5q44 0 69 -25.5t25 -70.5l28 83h61l-79 -232q-2 -7 -3.5 -14.5t-1.5 -18.5q0 -16 9 -26t26 -10q25 0 48.5 21.5t41.5 56t29 78t11 87.5q0 46 -17 82t-46.5 60.5t-69.5 37t-87 12.5q-80 0 -145 -29 t-111.5 -79t-72 -117t-25.5 -142q0 -48 14.5 -90.5t43.5 -74t72 -50t100 -18.5q35 0 74 5t67 14l-26 -66q-27 -8 -60.5 -11.5t-68.5 -3.5zM410 212q29 0 54.5 14.5t44 38t29.5 54t11 63.5q0 41 -17 63.5t-50 22.5q-32 0 -57.5 -15t-44.5 -39t-29 -55t-10 -63q0 -38 18.5 -61 t50.5 -23z" glyph-name="at" horiz-adv-x="788" unicode="@"/><glyph d="M521 0l-29 181h-263l-91 -181h-74l356 700h56l113 -700h-68zM439 523l-5 33t-4 30q-4 -10 -13 -29.5l-16 -33.5l-141 -280h223z" glyph-name="A" horiz-adv-x="657" unicode="A"/><glyph d="M233 700h219q51 0 85.5 -13.5t55.5 -35.5t30 -50t9 -57q0 -45 -15 -77.5t-37.5 -54t-47.5 -33t-45 -15.5q53 -11 83 -53t30 -99q0 -37 -11.5 -75t-40 -68.5t-76 -49.5t-118.5 -19h-244zM361 63q54 0 87.5 15.5t52 39t25 50t6.5 47.5q0 24 -7 45t-24 37.5t-46 26t-72 9.5 h-144l-48 -270h170zM382 394q90 0 136 40t46 102q0 20 -5 38t-18 32t-36 22.5t-58 8.5h-155l-43 -243h133z" glyph-name="B" horiz-adv-x="637" unicode="B"/><glyph d="M367 -12q-62 0 -106.5 25t-73.5 66t-42.5 93t-13.5 106q0 82 23.5 160.5t68 139t109 97.5t147.5 37q39 0 70 -10.5t54.5 -26.5t39 -36.5t24.5 -39.5l-57 -32q-10 16 -22 31t-28.5 26.5t-38.5 18t-51 6.5q-66 0 -116 -33t-84 -85.5t-51.5 -117t-17.5 -127.5q0 -44 9.5 -86 t30.5 -75t53 -53.5t77 -20.5q59 0 97.5 25t69.5 65l57 -28q-15 -24 -36.5 -46.5t-49.5 -40t-63.5 -28t-78.5 -10.5z" glyph-name="C" horiz-adv-x="639" unicode="C"/><glyph d="M233 700h177q71 0 120 -26.5t79 -68.5t43.5 -94t13.5 -103q0 -65 -17.5 -136.5t-61 -132t-117 -100t-184.5 -39.5h-176zM302 63q85 0 141.5 33.5t90.5 84.5t48 112t14 115q0 41 -10 82t-32 73.5t-57 53t-84 20.5h-121l-101 -574h111z" glyph-name="D" horiz-adv-x="672" unicode="D"/><glyph d="M110 0l123 700h384l-10 -63h-315l-43 -243h213l-12 -63h-212l-47 -268h336l-11 -63h-406z" glyph-name="E" horiz-adv-x="593" unicode="E"/><glyph d="M110 0l123 700h394l-10 -63h-325l-43 -243h219l-12 -63h-218l-58 -331h-70z" glyph-name="F" horiz-adv-x="563" unicode="F"/><glyph d="M364 -12q-61 0 -105 23.5t-72.5 62.5t-42 88.5t-13.5 101.5q0 83 21.5 163.5t65 143.5t108 102t151.5 39q43 0 75 -11t55.5 -27.5t38 -36.5t22.5 -38l-62 -33q-17 34 -50 58.5t-92 24.5q-65 0 -114 -34.5t-82 -88.5t-50 -121t-17 -132q0 -43 9.5 -83t29.5 -71t51.5 -49.5 t75.5 -18.5q74 0 123 47t63 127l7 42h-121l11 62h195l-16 -88q-12 -65 -36.5 -113t-59 -79t-77.5 -46t-92 -15z" glyph-name="G" horiz-adv-x="679" unicode="G"/><glyph d="M110 0l123 700h70l-53 -303h328l53 303h70l-123 -700h-70l58 331h-327l-58 -331h-71z" glyph-name="H" horiz-adv-x="686" unicode="H"/><glyph d="M110 0l123 700h70l-123 -700h-70z" glyph-name="I" horiz-adv-x="290" unicode="I"/><glyph d="M235 -12q-63 0 -106.5 35t-60.5 86l58 24q12 -32 37.5 -57t72.5 -25q30 0 55 8.5t44.5 28.5t34 52.5t23.5 81.5l84 478h70l-85 -483q-14 -77 -39.5 -122.5t-57 -69t-65.5 -30.5t-65 -7z" glyph-name="J" horiz-adv-x="536" unicode="J"/><glyph d="M501 0l-139 399l-138 -147l-44 -252h-70l123 700h70l-60 -342l321 342h82l-232 -246l159 -454h-72z" glyph-name="K" horiz-adv-x="638" unicode="K"/><glyph d="M110 0l123 700h70l-111 -633h332l-12 -67h-402z" glyph-name="L" horiz-adv-x="561" unicode="L"/><glyph d="M613 0l85 481q2 9 4 22t4 18q-3 -8 -10 -19.5l-10 -16.5l-300 -497l-109 492q-2 7 -3.5 16.5t-3.5 19.5q-2 -12 -3 -21t-3 -17l-84 -478h-70l123 700h65l107 -492q2 -10 5 -22.5t5 -26.5q5 11 13.5 25.5t12.5 20.5l298 495h67l-123 -700h-70z" glyph-name="M" horiz-adv-x="791" unicode="M"/><glyph d="M518 0l-208 498q-2 4 -7 15.5t-10 24.5l-13 32q-3 -17 -6 -32q-2 -13 -4 -24.5t-3 -16.5l-87 -497h-70l123 700h65l225 -539q1 -2 3.5 -8t5.5 -14q4 -9 8 -19q1 9 3 17q2 7 2.5 13.5t1.5 9.5l95 540h70l-123 -700h-71z" glyph-name="N" horiz-adv-x="697" unicode="N"/><glyph d="M362 51q70 0 122 36t85.5 92.5t50 124.5t16.5 132q0 39 -8.5 77.5t-28 68.5t-50 48.5t-74.5 18.5q-71 0 -122.5 -36t-85.5 -92.5t-50.5 -124.5t-16.5 -132q0 -42 9 -80.5t28.5 -68t50 -47t74.5 -17.5zM362 -12q-62 0 -106 23t-72 61t-41 88t-13 104q0 75 20.5 154 t63.5 144.5t107.5 107.5t153.5 42q63 0 107 -24t71.5 -63t40 -88.5t12.5 -100.5q0 -75 -20.5 -154t-63 -144.5t-107.5 -107.5t-153 -42z" glyph-name="O" horiz-adv-x="712" unicode="O"/><glyph d="M110 0l123 700h242q51 0 86 -15t57 -39.5t32 -54.5t10 -60q0 -43 -13.5 -85.5t-42.5 -77t-76 -56t-113 -21.5h-184l-51 -291h-70zM423 350q46 0 78.5 16t53 41.5t29.5 57t9 61.5q0 18 -5.5 38t-19 37t-36.5 28.5t-58 11.5h-182l-51 -291h182z" glyph-name="P" horiz-adv-x="618" unicode="P"/><glyph d="M362 -12q-62 0 -106 23t-72 61t-41 88t-13 104q0 75 20.5 154t63.5 144.5t107.5 107.5t153.5 42q63 0 107 -24t71.5 -63t40 -88.5t12.5 -100.5q0 -52 -10 -106.5t-30 -105.5t-50 -96t-71 -77l42 -89l-54 -27l-40 83q-29 -14 -61.5 -22t-69.5 -8zM362 51q56 0 104 25 l-36 77l54 27l32 -68q30 28 52.5 66.5t37.5 81.5t22.5 88t7.5 88q0 39 -8.5 77.5t-28 68.5t-50 48.5t-74.5 18.5q-71 0 -122.5 -36t-85.5 -92.5t-50.5 -124.5t-16.5 -132q0 -42 9 -80.5t28.5 -68t50 -47t74.5 -17.5z" glyph-name="Q" horiz-adv-x="712" unicode="Q"/><glyph d="M654 525q0 -36 -11.5 -71t-36 -63.5t-62.5 -47.5t-90 -25l111 -318h-72l-109 315h-149l-55 -315h-70l123 700h220q58 0 96.5 -16.5t62 -42t33 -56.5t9.5 -60zM419 378q49 0 81 13.5t51.5 34.5t27.5 47t8 50q0 20 -6 40t-21.5 36.5t-41 27t-64.5 10.5h-162l-45 -259h172z" glyph-name="R" horiz-adv-x="653" unicode="R"/><glyph d="M517 578q-15 29 -43 50t-80 21q-65 0 -102 -31.5t-37 -81.5q0 -37 21.5 -60t53.5 -41.5t70 -35.5t70 -41.5t53.5 -60.5t21.5 -91q0 -54 -18.5 -95t-51 -68t-76 -41t-94.5 -14q-41 0 -74.5 11t-59.5 30.5t-44 45t-26 55.5l64 25q38 -104 146 -104q75 0 118.5 38t43.5 111 q0 42 -21.5 69.5t-53.5 48t-69 38.5t-69 40.5t-53.5 54t-21.5 79.5q0 39 15 72.5t43 57.5t67.5 38t88.5 14q36 0 65.5 -9t52.5 -23.5t38.5 -34t23.5 -40.5z" glyph-name="S" horiz-adv-x="591" unicode="S"/><glyph d="M434 637l-112 -637h-70l112 637h-183l10 63h437l-10 -63h-184z" glyph-name="T" horiz-adv-x="573" unicode="T"/><glyph d="M349 -12q-45 0 -83 12t-65 36.5t-42.5 62.5t-15.5 90q0 17 1.5 37t5.5 41l76 433h70l-77 -439q-6 -38 -6 -69q0 -42 11.5 -69.5t30.5 -43t44 -22t52 -6.5q32 0 62.5 9t56 32.5t45.5 64t31 103.5l77 440h70l-77 -440q-26 -146 -91.5 -209t-175.5 -63z" glyph-name="U" horiz-adv-x="674" unicode="U"/><glyph d="M343 0h-49l-108 700h72l77 -537q2 -11 3 -22.5t1 -16.5q2 7 6 16t8 17l264 543h78z" glyph-name="V" horiz-adv-x="636" unicode="V"/><glyph d="M878 700l-258 -700h-62l-54 516q-1 4 -1 8.5t-1 9.5t-1 10q-2 -6 -5 -11q-2 -5 -4 -9.5t-4 -7.5l-242 -516h-62v700h68v-501v-48q4 8 8 17q3 8 6.5 16t6.5 14l225 502h53l49 -509q0 -4 0.5 -11t1.5 -14q1 -8 2 -17l6 16q2 7 4 13t4 10l185 512h75z" glyph-name="W" horiz-adv-x="815" unicode="W"/><glyph d="M443 0l-107 301l-206 -301h-77l258 371l-121 329h67l95 -270l185 270h76l-236 -338l132 -362h-66z" glyph-name="X" horiz-adv-x="561" unicode="X"/><glyph d="M271 0l49 280l-143 420h71l115 -360l247 360h72l-296 -427l-48 -273h-67z" glyph-name="Y" horiz-adv-x="613" unicode="Y"/><glyph d="M78 0l9 49l494 589h-368l10 62h455l-9 -51l-489 -587h386l-11 -62h-477z" glyph-name="Z" horiz-adv-x="633" unicode="Z"/><glyph d="M98 -130l149 842h201l-12 -63h-134l-126 -716h134l-11 -63h-201z" glyph-name="bracketleft" horiz-adv-x="385" unicode="["/><glyph d="M365 -130l-228 842h65l228 -842h-65z" glyph-name="backslash" horiz-adv-x="488" unicode="\"/><glyph d="M40 -130l11 63h134l126 716h-134l12 63h201l-149 -842h-201z" glyph-name="bracketright" horiz-adv-x="385" unicode="]"/><glyph d="M543 362l-106 263l-197 -263h-69l245 350h73l123 -350h-69z" glyph-name="asciicircum" horiz-adv-x="655" unicode="^"/><glyph d="M-11 -177l13 77h490l-13 -77h-490z" glyph-name="underscore" horiz-adv-x="530" unicode="_"/><glyph d="M280 576l-144 156h103l109 -156h-68z" glyph-name="grave" unicode="`"/><glyph d="M379 0l7 42q-24 -20 -61 -37t-86 -17q-69 0 -108 40.5t-39 106.5q0 52 18.5 89.5t48 60.5t67 34t75.5 11q48 0 79.5 -12.5t49.5 -25.5l8 45q5 25 5 43q0 24 -7.5 40t-19 25.5t-26.5 13t-30 3.5q-21 0 -43.5 -5t-43.5 -13t-40.5 -17.5t-34.5 -19.5l-9 60q33 20 79 38 t97 18q25 0 50.5 -6.5t46.5 -22.5t34 -41.5t13 -64.5q0 -20 -5 -48l-60 -340h-65zM251 49q44 0 84.5 23.5t65.5 51.5l17 101q-15 12 -45.5 28t-72.5 16q-28 0 -53.5 -7t-45.5 -22.5t-32 -39.5t-12 -58q0 -40 23.5 -66.5t70.5 -26.5z" glyph-name="a" horiz-adv-x="532" unicode="a"/><glyph d="M304 -12q-48 0 -81 19.5t-50 39.5l-8 -47h-70l122 692l75 30l-45 -252q22 19 55.5 36t80.5 17q37 0 67.5 -14t52.5 -40t34.5 -63t12.5 -83q0 -77 -18 -138.5t-51 -105.5t-78 -67.5t-99 -23.5zM300 51q45 0 78.5 21t56 57t34 84.5t11.5 104.5q0 66 -28.5 104t-82.5 38 q-41 0 -77 -22t-59 -51l-46 -261q14 -29 42.5 -52t70.5 -23z" glyph-name="b" horiz-adv-x="560" unicode="b"/><glyph d="M265 -12q-37 0 -67.5 14.5t-52 41.5t-33.5 65t-12 86q0 75 18 135.5t50 103t77.5 66t100.5 23.5q56 0 96.5 -27.5t54.5 -79.5l-65 -25q-8 29 -30 49t-63 20q-44 0 -75.5 -22.5t-51.5 -60t-30 -85t-10 -97.5q0 -68 24 -106t75 -38q83 0 123 78l56 -24q-27 -54 -73 -85.5 t-112 -31.5z" glyph-name="c" horiz-adv-x="485" unicode="c"/><glyph d="M268 -12q-39 0 -70.5 16t-53 45t-33 70t-11.5 91q0 71 19 129t53.5 99t81.5 63t104 22q48 0 77.5 -17t44.5 -34l39 220l75 30l-127 -722h-70l7 43q-25 -26 -59 -40.5t-77 -14.5zM283 51q24 0 45.5 8t39 19.5t30.5 25.5t22 26l45 257q-5 12 -13.5 24.5t-22 23.5t-32 18 t-42.5 7q-44 0 -77.5 -18.5t-57 -52.5t-35.5 -80.5t-12 -101.5q0 -32 6.5 -60.5t20 -49.5t34 -33.5t49.5 -12.5z" glyph-name="d" horiz-adv-x="561" unicode="d"/><glyph d="M279 -12q-42 0 -75.5 16.5t-56.5 45.5t-35 68t-12 84q0 69 19 128t53 101.5t80 67t100 24.5q38 0 70 -10.5t55 -33.5t36 -58.5t13 -86.5q0 -33 -6 -58.5t-13 -48.5h-335v-14q0 -75 28.5 -117.5t86.5 -42.5q27 0 56.5 9t61.5 31l31 -51q-33 -25 -73 -39.5t-84 -14.5z M352 460q-37 0 -66 -15t-50 -39t-34.5 -54.5t-20.5 -61.5h270q7 27 7 50q0 36 -9.5 59t-24.5 36.5t-34 19t-38 5.5z" glyph-name="e" horiz-adv-x="528" unicode="e"/><glyph d="M261 448l-79 -448h-70l79 448h-85l11 63h85l16 92q11 63 44.5 86t78.5 23q28 0 46 -7.5t33 -16.5l-10 -61q-15 8 -31 14t-36 6q-16 0 -26 -5.5t-16.5 -14t-9.5 -19.5t-5 -21l-14 -76h117l-11 -63h-117z" glyph-name="f" horiz-adv-x="333" unicode="f"/><glyph d="M176 -158q60 3 100 15.5t64 31t36 42t17 49.5l12 69q-19 -22 -51.5 -41.5t-84.5 -19.5q-40 0 -71.5 16t-53 44.5t-33 66.5t-11.5 83q0 72 18 131.5t51 102.5t78.5 67t100.5 24q35 0 69.5 -14t60.5 -46l9 48h68l-92 -519q-12 -65 -37 -104.5t-60.5 -61.5t-78.5 -29.5 t-91 -9.5zM287 51q21 0 41 7t37.5 19t32 27.5t23.5 32.5l43 245q-11 32 -41.5 55t-72.5 23q-44 0 -77 -21.5t-56 -56.5t-34.5 -81.5t-11.5 -95.5q0 -72 32 -113t84 -41z" glyph-name="g" horiz-adv-x="562" unicode="g"/><glyph d="M400 0l55 312q2 14 3.5 25.5t1.5 22.5q0 54 -26 77t-67 23q-26 0 -49.5 -7t-42.5 -24t-33.5 -45t-21.5 -70l-55 -314h-70l122 692l75 30l-48 -269q29 34 63.5 52t76.5 18q72 0 107.5 -35.5t35.5 -113.5q0 -40 -9 -91l-50 -283h-68z" glyph-name="h" horiz-adv-x="560" unicode="h"/><glyph d="M95 0l90 511h70l-90 -511h-70zM239 616q-17 0 -28 11t-11 28q0 23 16 39t36 16q19 0 29.5 -11t10.5 -28q0 -23 -16.5 -39t-36.5 -16z" glyph-name="i" horiz-adv-x="261" unicode="i"/><glyph d="M-46 -158q36 3 59.5 10.5t38.5 19.5t22.5 29t11.5 39l101 571h70l-102 -578q-8 -45 -25.5 -73.5t-41.5 -44.5t-53 -22.5t-59 -8.5zM242 616q-17 0 -28 11t-11 28q0 23 16 39t36 16q19 0 29.5 -11t10.5 -28q0 -23 -16.5 -39t-36.5 -16z" glyph-name="j" horiz-adv-x="269" unicode="j"/><glyph d="M358 368l122 -368h-78l-97 318l-101 -93l-39 -225h-70l122 692l75 30l-72 -406l211 195h82z" glyph-name="k" horiz-adv-x="513" unicode="k"/><glyph d="M100 0l122 692l75 30l-127 -722h-70z" glyph-name="l" horiz-adv-x="271" unicode="l"/><glyph d="M670 0l56 319q2 12 3 22.5t1 21.5q0 46 -21 71.5t-63 25.5q-24 0 -46.5 -10t-40.5 -28.5t-31 -44t-18 -56.5l-57 -321h-70l56 319q2 12 3 23t1 21q0 47 -21 72t-64 25q-24 0 -46.5 -10t-40.5 -28.5t-31 -44t-18 -56.5l-57 -321h-70l90 511h69l-9 -50q29 32 65.5 47 t71.5 15q45 0 76 -20.5t45 -57.5q31 37 70 57.5t89 20.5q63 0 102.5 -38t39.5 -105q0 -21 -4 -40l-60 -340h-70z" glyph-name="m" horiz-adv-x="837" unicode="m"/><glyph d="M400 0l54 308q5 28 5 47q0 50 -23.5 77.5t-69.5 27.5q-26 0 -50.5 -11t-44 -30.5t-33 -47.5t-19.5 -61l-54 -310h-70l90 511h70l-10 -56q28 33 63.5 50.5t73.5 17.5q69 0 107 -40t38 -123q0 -17 -1.5 -36.5t-5.5 -40.5l-50 -283h-70z" glyph-name="n" horiz-adv-x="560" unicode="n"/><glyph d="M279 -12q-48 0 -82.5 17.5t-56.5 46t-32 66t-10 78.5q0 55 16 113t48 105.5t80.5 78t114.5 30.5q49 0 83.5 -18t56.5 -47.5t31.5 -67t9.5 -75.5q0 -55 -15.5 -113t-47.5 -105.5t-81 -78t-115 -30.5zM279 51q48 0 84 24.5t59 63t34.5 85.5t11.5 91q0 27 -6 53t-19 46.5 t-34.5 33t-51.5 12.5q-48 0 -83.5 -24.5t-59 -63t-35 -85t-11.5 -91.5q0 -28 6 -54t19.5 -46.5t34.5 -32.5t51 -12z" glyph-name="o" horiz-adv-x="547" unicode="o"/><glyph d="M314 -12q-28 0 -50 6t-39.5 15.5t-30 21t-21.5 23.5l-40 -227l-75 -30l126 714h70l-8 -46q22 21 56.5 39.5t88.5 18.5q37 0 67.5 -15t52 -43t33 -67t11.5 -87q0 -75 -20 -135t-54 -102t-77.5 -64t-89.5 -22zM310 51q39 0 70.5 18.5t54 52.5t35 80t12.5 102 q0 72 -26.5 114t-81.5 42q-48 0 -84 -22t-59 -57l-45 -251q21 -37 51.5 -58t72.5 -21z" glyph-name="p" horiz-adv-x="565" unicode="p"/><glyph d="M266 -12q-78 0 -122.5 53t-44.5 147q0 72 18.5 133.5t52 106.5t80 70t103.5 25q53 0 84 -20t43 -38l8 46h70l-120 -681l-75 -30l44 252q-29 -29 -62.5 -46.5t-78.5 -17.5zM280 51q23 0 43.5 8t38.5 20t32.5 26.5l26.5 26.5l44 249q-14 42 -45 60.5t-68 18.5 q-39 0 -72 -21t-57.5 -57t-38 -84.5t-13.5 -103.5q0 -67 27.5 -105t81.5 -38z" glyph-name="q" horiz-adv-x="563" unicode="q"/><glyph d="M95 0l90 511h70l-13 -72q35 45 74 64.5t71 19.5q39 0 60 -21l-22 -68q-9 6 -23 12.5t-38 6.5q-17 0 -39 -8t-43.5 -27t-39.5 -50.5t-26 -78.5l-51 -289h-70z" glyph-name="r" horiz-adv-x="393" unicode="r"/><glyph d="M415 407q-16 20 -43 37t-72 17q-43 0 -71.5 -21t-28.5 -56q0 -25 17 -41t42.5 -29.5t55 -26.5t55 -32.5t42.5 -47.5t17 -71q0 -67 -49.5 -107.5t-131.5 -40.5q-60 0 -101.5 25.5t-66.5 63.5l53 42q18 -28 48.5 -48.5t68.5 -20.5q45 0 77.5 22t32.5 65q0 27 -16.5 45.5 t-42 33t-54.5 27.5t-54.5 31.5t-42 43.5t-16.5 64q0 33 13 59t35.5 44.5t53 28t65.5 9.5q59 0 99.5 -20.5t63.5 -57.5z" glyph-name="s" horiz-adv-x="466" unicode="s"/><glyph d="M270 448l-55 -313q-2 -10 -3 -19.5t-1 -17.5q0 -20 8.5 -32t33.5 -12t44 8.5t34 18.5l-21 -73q-21 -11 -41.5 -15.5t-48.5 -4.5q-44 0 -63 26t-19 64q0 16 3 34l59 336h-84l11 63h84l32 181l75 30l-37 -211h124l-11 -63h-124z" glyph-name="t" horiz-adv-x="375" unicode="t"/><glyph d="M395 0l9 49q-24 -32 -57.5 -46.5t-75.5 -14.5q-74 0 -112 40t-38 118q0 17 2 34t5 37l51 294h70l-55 -312q-2 -12 -3 -23.5t-1 -21.5q0 -56 27 -79.5t65 -23.5q25 0 48.5 7t43 24t34 45t22.5 70l55 314h70l-90 -511h-70z" glyph-name="u" horiz-adv-x="559" unicode="u"/><glyph d="M280 0h-53l-90 511h69l57 -348q2 -16 5 -32q2 -10 3 -19q6 9 10 19l8 16.5t8 15.5l179 348h72z" glyph-name="v" horiz-adv-x="504" unicode="v"/><glyph d="M534 0h-68l-44 342q-1 5 -1.5 12.5t-1.5 13.5l-2 14q-4 -9 -8 -17l-6.5 -14.5l-5.5 -11.5l-157 -339h-67l-37 511h67l20 -387q0 -6 0.5 -12.5t0.5 -12.5q0 -7 1 -14q3 8 7 15q3 6 5.5 12.5l4.5 11.5l171 387h49l40 -387q1 -8 1.5 -15t1.5 -12q1 -6 1 -12q2 6 5 13 q2 6 4.5 12.5t5.5 13.5l150 387h70z" glyph-name="w" horiz-adv-x="697" unicode="w"/><glyph d="M260 264l-109 247h76l82 -186l149 186h74l-197 -245l118 -266h-76l-91 205l-164 -205h-74z" glyph-name="x" horiz-adv-x="503" unicode="x"/><glyph d="M183 -194h-71l110 210l-93 495h72l60 -371l2 -13.5t2 -11.5l2 -12q-1 0 6.5 13l13.5 24l194 371h76z" glyph-name="y" horiz-adv-x="512" unicode="y"/><glyph d="M78 0l8 43l315 405h-225l11 63h321l-7 -42l-319 -406h246l-11 -63h-339z" glyph-name="z" horiz-adv-x="500" unicode="z"/><glyph d="M307 -130q-64 6 -104.5 45.5t-40.5 120.5q0 29 6 64l9 51q3 16 3 32q0 35 -15 57.5t-42 22.5h-4l10 57h4q33 0 58.5 31t34.5 82l16 91q8 45 27.5 80t47.5 59t63 36.5t76 12.5l-11 -59q-57 -2 -91 -41.5t-47 -111.5l-14 -78q-12 -72 -44 -101.5t-83 -29.5l-1 -4 q14 -1 28.5 -5.5t26.5 -16t19.5 -31t7.5 -51.5q0 -24 -6 -58l-8 -43q-2 -14 -3.5 -26t-1.5 -23q0 -49 22 -75.5t67 -28.5z" glyph-name="braceleft" horiz-adv-x="384" unicode="{"/><glyph d="M71 -205l178 1010h67l-178 -1010h-67z" glyph-name="bar" horiz-adv-x="280" unicode="|"/><glyph d="M41 -71q57 2 91 41.5t47 111.5l12 68q14 78 46.5 109.5t83.5 31.5l1 4q-36 7 -59.5 28.5t-23.5 71.5q0 24 6 59l8 46q2 14 3.5 27t1.5 24q0 48 -22 74t-67 28l11 59q70 -5 107 -43.5t37 -124.5q0 -18 -2 -37.5t-6 -41.5l-5 -29q-2 -11 -3.5 -22t-1.5 -28q0 -32 14 -49.5 t43 -17.5h4l-10 -57h-4q-33 0 -58 -30t-34 -81l-15 -83q-17 -97 -69.5 -147.5t-145.5 -50.5z" glyph-name="braceright" horiz-adv-x="384" unicode="}"/><glyph d="M481 277q-30 0 -56.5 10t-51 21.5t-48.5 21.5t-48 10q-32 0 -55 -17t-31 -46h-38q4 25 14.5 48.5t28 41.5t42 29t57.5 11q30 0 57.5 -10t52 -21.5l48 -21.5t46.5 -10q32 0 55 17.5t31 45.5h38q-5 -26 -15.5 -49.5t-28 -41.5t-42 -28.5t-56.5 -10.5z" glyph-name="asciitilde" horiz-adv-x="655" unicode="~"/><glyph d="M521 0l-29 181h-263l-91 -181h-74l356 700h56l113 -700h-68zM439 523l-5 33t-4 30q-4 -10 -13 -29.5l-16 -33.5l-141 -280h223zM385 796q-17 0 -27.5 11.5t-10.5 28.5q0 23 16.5 38.5t37.5 15.5q17 0 27.5 -11t10.5 -28q0 -23 -16 -39t-38 -16zM545 796q-17 0 -28 11.5 t-11 28.5q0 23 17.5 38.5t37.5 15.5q17 0 27.5 -11t10.5 -28q0 -23 -16.5 -39t-37.5 -16z" glyph-name="Adieresis" horiz-adv-x="657" unicode="Ä"/><glyph d="M521 0l-29 181h-263l-91 -181h-74l329 647q-19 12 -30.5 35t-11.5 49q0 27 11 50t29.5 40.5t42 27.5t47.5 10q41 0 67.5 -27.5t26.5 -67.5q0 -41 -26.5 -73.5t-62.5 -47.5l103 -643h-68zM439 523l-5 33t-4 30q-4 -10 -13 -29.5l-16 -33.5l-141 -280h223zM451 687 q26 0 46 21t20 51q0 20 -12.5 34t-32.5 14q-24 0 -44 -20t-20 -49q0 -21 12 -36t31 -15z" glyph-name="Aring" horiz-adv-x="657" unicode="Å"/><glyph d="M300 -234q-28 0 -47.5 7.5t-32.5 20.5l50 30q4 -8 11 -9t21 -1q23 0 42 16.5t19 39.5q0 17 -15.5 30t-35.5 13q-25 0 -35 -5l-10 15l62 66q-54 4 -92 29t-61.5 63t-34.5 85.5t-11 97.5q0 83 22 163.5t66 143.5t110 102t154 39q45 0 76.5 -9.5t53 -25.5t34.5 -36.5 t22 -41.5l-67 -36q-8 17 -18.5 32.5t-25.5 27.5t-36 19.5t-50 7.5q-70 0 -121 -36t-84 -91.5t-49 -122t-16 -127.5q0 -43 9 -83t29 -71t51 -49.5t75 -18.5q61 0 101 24.5t71 64.5l54 -24q-15 -23 -36 -45t-48.5 -39.5t-61.5 -29t-74 -13.5l-32 -44q24 0 41 -6t27 -15.5 t14.5 -22t4.5 -24.5q0 -24 -10 -44.5t-27.5 -35t-40.5 -23t-48 -8.5z" glyph-name="Ccedilla" horiz-adv-x="639" unicode="Ç"/><glyph d="M110 0l123 700h384l-10 -63h-315l-43 -243h213l-12 -63h-212l-47 -268h336l-11 -63h-406zM439 766h-69l164 156h102z" glyph-name="Eacute" horiz-adv-x="593" unicode="É"/><glyph d="M518 0l-208 498q-2 4 -7 15.5t-10 24.5l-13 32q-3 -17 -6 -32q-2 -13 -4 -24.5t-3 -16.5l-87 -497h-70l123 700h65l225 -539q1 -2 3.5 -8t5.5 -14q4 -9 8 -19q1 9 3 17q2 7 2.5 13.5t1.5 9.5l95 540h70l-123 -700h-71zM559 792q-26 0 -45.5 8t-37 17l-33.5 17t-34 8 t-33 -11.5t-20 -34.5h-37q9 53 35.5 81.5t72.5 28.5q25 0 45 -8t37 -17.5t33 -17.5t34 -8t33.5 12t21.5 35h36q-10 -53 -36.5 -81.5t-71.5 -28.5z" glyph-name="Ntilde" horiz-adv-x="697" unicode="Ñ"/><glyph d="M362 51q70 0 122 36t85.5 92.5t50 124.5t16.5 132q0 39 -8.5 77.5t-28 68.5t-50 48.5t-74.5 18.5q-71 0 -122.5 -36t-85.5 -92.5t-50.5 -124.5t-16.5 -132q0 -42 9 -80.5t28.5 -68t50 -47t74.5 -17.5zM362 -12q-62 0 -106 23t-72 61t-41 88t-13 104q0 75 20.5 154 t63.5 144.5t107.5 107.5t153.5 42q63 0 107 -24t71.5 -63t40 -88.5t12.5 -100.5q0 -75 -20.5 -154t-63 -144.5t-107.5 -107.5t-153 -42zM417 796q-17 0 -27.5 11.5t-10.5 28.5q0 23 16.5 38.5t37.5 15.5q17 0 27.5 -11t10.5 -28q0 -23 -16 -39t-38 -16zM577 796 q-17 0 -28 11.5t-11 28.5q0 23 17.5 38.5t37.5 15.5q17 0 27.5 -11t10.5 -28q0 -23 -16.5 -39t-37.5 -16z" glyph-name="Odieresis" horiz-adv-x="712" unicode="Ö"/><glyph d="M349 -12q-45 0 -83 12t-65 36.5t-42.5 62.5t-15.5 90q0 17 1.5 37t5.5 41l76 433h70l-77 -439q-6 -38 -6 -69q0 -42 11.5 -69.5t30.5 -43t44 -22t52 -6.5q32 0 62.5 9t56 32.5t45.5 64t31 103.5l77 440h70l-77 -440q-26 -146 -91.5 -209t-175.5 -63zM396 796 q-17 0 -27.5 11.5t-10.5 28.5q0 23 16.5 38.5t37.5 15.5q17 0 27.5 -11t10.5 -28q0 -23 -16 -39t-38 -16zM556 796q-17 0 -28 11.5t-11 28.5q0 23 17.5 38.5t37.5 15.5q17 0 27.5 -11t10.5 -28q0 -23 -16.5 -39t-37.5 -16z" glyph-name="Udieresis" horiz-adv-x="674" unicode="Ü"/><glyph d="M379 0l7 42q-24 -20 -61 -37t-86 -17q-69 0 -108 40.5t-39 106.5q0 52 18.5 89.5t48 60.5t67 34t75.5 11q48 0 79.5 -12.5t49.5 -25.5l8 45q5 25 5 43q0 24 -7.5 40t-19 25.5t-26.5 13t-30 3.5q-21 0 -43.5 -5t-43.5 -13t-40.5 -17.5t-34.5 -19.5l-9 60q33 20 79 38 t97 18q25 0 50.5 -6.5t46.5 -22.5t34 -41.5t13 -64.5q0 -20 -5 -48l-60 -340h-65zM251 49q44 0 84.5 23.5t65.5 51.5l17 101q-15 12 -45.5 28t-72.5 16q-28 0 -53.5 -7t-45.5 -22.5t-32 -39.5t-12 -58q0 -40 23.5 -66.5t70.5 -26.5zM389 576h-69l164 156h102z" glyph-name="aacute" horiz-adv-x="532" unicode="á"/><glyph d="M379 0l7 42q-24 -20 -61 -37t-86 -17q-69 0 -108 40.5t-39 106.5q0 52 18.5 89.5t48 60.5t67 34t75.5 11q48 0 79.5 -12.5t49.5 -25.5l8 45q5 25 5 43q0 24 -7.5 40t-19 25.5t-26.5 13t-30 3.5q-21 0 -43.5 -5t-43.5 -13t-40.5 -17.5t-34.5 -19.5l-9 60q33 20 79 38 t97 18q25 0 50.5 -6.5t46.5 -22.5t34 -41.5t13 -64.5q0 -20 -5 -48l-60 -340h-65zM251 49q44 0 84.5 23.5t65.5 51.5l17 101q-15 12 -45.5 28t-72.5 16q-28 0 -53.5 -7t-45.5 -22.5t-32 -39.5t-12 -58q0 -40 23.5 -66.5t70.5 -26.5zM402 576l-144 156h103l109 -156h-68z" glyph-name="agrave" horiz-adv-x="532" unicode="à"/><glyph d="M379 0l7 42q-24 -20 -61 -37t-86 -17q-69 0 -108 40.5t-39 106.5q0 52 18.5 89.5t48 60.5t67 34t75.5 11q48 0 79.5 -12.5t49.5 -25.5l8 45q5 25 5 43q0 24 -7.5 40t-19 25.5t-26.5 13t-30 3.5q-21 0 -43.5 -5t-43.5 -13t-40.5 -17.5t-34.5 -19.5l-9 60q33 20 79 38 t97 18q25 0 50.5 -6.5t46.5 -22.5t34 -41.5t13 -64.5q0 -20 -5 -48l-60 -340h-65zM251 49q44 0 84.5 23.5t65.5 51.5l17 101q-15 12 -45.5 28t-72.5 16q-28 0 -53.5 -7t-45.5 -22.5t-32 -39.5t-12 -58q0 -40 23.5 -66.5t70.5 -26.5zM481 576l-94 101l-129 -101h-62l162 156 h77l109 -156h-63z" glyph-name="acircumflex" horiz-adv-x="532" unicode="â"/><glyph d="M379 0l7 42q-24 -20 -61 -37t-86 -17q-69 0 -108 40.5t-39 106.5q0 52 18.5 89.5t48 60.5t67 34t75.5 11q48 0 79.5 -12.5t49.5 -25.5l8 45q5 25 5 43q0 24 -7.5 40t-19 25.5t-26.5 13t-30 3.5q-21 0 -43.5 -5t-43.5 -13t-40.5 -17.5t-34.5 -19.5l-9 60q33 20 79 38 t97 18q25 0 50.5 -6.5t46.5 -22.5t34 -41.5t13 -64.5q0 -20 -5 -48l-60 -340h-65zM251 49q44 0 84.5 23.5t65.5 51.5l17 101q-15 12 -45.5 28t-72.5 16q-28 0 -53.5 -7t-45.5 -22.5t-32 -39.5t-12 -58q0 -40 23.5 -66.5t70.5 -26.5zM305 616q-17 0 -27.5 11.5t-10.5 28.5 q0 23 16.5 38.5t37.5 15.5q17 0 27.5 -11t10.5 -28q0 -23 -16 -39t-38 -16zM465 616q-17 0 -28 11.5t-11 28.5q0 23 17.5 38.5t37.5 15.5q17 0 27.5 -11t10.5 -28q0 -23 -16.5 -39t-37.5 -16z" glyph-name="adieresis" horiz-adv-x="532" unicode="ä"/><glyph d="M379 0l7 42q-24 -20 -61 -37t-86 -17q-69 0 -108 40.5t-39 106.5q0 52 18.5 89.5t48 60.5t67 34t75.5 11q48 0 79.5 -12.5t49.5 -25.5l8 45q5 25 5 43q0 24 -7.5 40t-19 25.5t-26.5 13t-30 3.5q-21 0 -43.5 -5t-43.5 -13t-40.5 -17.5t-34.5 -19.5l-9 60q33 20 79 38 t97 18q25 0 50.5 -6.5t46.5 -22.5t34 -41.5t13 -64.5q0 -20 -5 -48l-60 -340h-65zM251 49q44 0 84.5 23.5t65.5 51.5l17 101q-15 12 -45.5 28t-72.5 16q-28 0 -53.5 -7t-45.5 -22.5t-32 -39.5t-12 -58q0 -40 23.5 -66.5t70.5 -26.5zM444 602q-26 0 -45.5 8t-37 17l-33.5 17 t-34 8t-33 -11.5t-20 -34.5h-37q9 53 35.5 81.5t72.5 28.5q25 0 45 -8t37 -17.5t33 -17.5t34 -8t33.5 12t21.5 35h36q-10 -53 -36.5 -81.5t-71.5 -28.5z" glyph-name="atilde" horiz-adv-x="532" unicode="ã"/><glyph d="M379 0l7 42q-24 -20 -61 -37t-86 -17q-69 0 -108 40.5t-39 106.5q0 52 18.5 89.5t48 60.5t67 34t75.5 11q48 0 79.5 -12.5t49.5 -25.5l8 45q5 25 5 43q0 24 -7.5 40t-19 25.5t-26.5 13t-30 3.5q-21 0 -43.5 -5t-43.5 -13t-40.5 -17.5t-34.5 -19.5l-9 60q33 20 79 38 t97 18q25 0 50.5 -6.5t46.5 -22.5t34 -41.5t13 -64.5q0 -20 -5 -48l-60 -340h-65zM251 49q44 0 84.5 23.5t65.5 51.5l17 101q-15 12 -45.5 28t-72.5 16q-28 0 -53.5 -7t-45.5 -22.5t-32 -39.5t-12 -58q0 -40 23.5 -66.5t70.5 -26.5zM369 575q-20 0 -37 8t-29 21t-19 30.5 t-7 37.5q0 27 11 50t29.5 40.5t42.5 27.5t49 10q40 0 66 -27.5t26 -67.5q0 -26 -11.5 -49.5t-30 -41.5t-42.5 -28.5t-48 -10.5zM378 627q27 0 47 20.5t20 52.5q0 22 -12.5 35t-32.5 13q-25 0 -45.5 -19t-20.5 -51q0 -22 12.5 -36.5t31.5 -14.5z" glyph-name="aring" horiz-adv-x="532" unicode="å"/><glyph d="M213 -234q-27 0 -47 7.5t-32 20.5l49 30q5 -8 12 -9t21 -1q11 0 22 4.5t20 12t14.5 17.5t5.5 22q0 17 -16 30t-36 13q-25 0 -36 -5l-9 15l61 66q-68 5 -105 56.5t-37 139.5q0 76 18.5 138.5t52.5 107t81.5 68.5t104.5 24q55 0 91.5 -27.5t46.5 -79.5l-65 -25 q-6 29 -26 49t-61 20q-48 0 -81 -23t-53.5 -60.5t-29.5 -86.5t-9 -101q0 -63 24 -100.5t75 -37.5q40 0 71.5 21t51.5 57l56 -24q-24 -48 -66.5 -77.5t-95.5 -37.5l-34 -45q24 0 40.5 -6t26.5 -15.5t14.5 -22t4.5 -24.5q0 -24 -10 -44.5t-27 -35t-39.5 -23t-48.5 -8.5z" glyph-name="ccedilla" horiz-adv-x="483" unicode="ç"/><glyph d="M279 -12q-42 0 -75.5 16.5t-56.5 45.5t-35 68t-12 84q0 69 19 128t53 101.5t80 67t100 24.5q38 0 70 -10.5t55 -33.5t36 -58.5t13 -86.5q0 -33 -6 -58.5t-13 -48.5h-335v-14q0 -75 28.5 -117.5t86.5 -42.5q27 0 56.5 9t61.5 31l31 -51q-33 -25 -73 -39.5t-84 -14.5z M352 460q-37 0 -66 -15t-50 -39t-34.5 -54.5t-20.5 -61.5h270q7 27 7 50q0 36 -9.5 59t-24.5 36.5t-34 19t-38 5.5zM366 576h-69l164 156h102z" glyph-name="eacute" horiz-adv-x="528" unicode="é"/><glyph d="M279 -12q-42 0 -75.5 16.5t-56.5 45.5t-35 68t-12 84q0 69 19 128t53 101.5t80 67t100 24.5q38 0 70 -10.5t55 -33.5t36 -58.5t13 -86.5q0 -33 -6 -58.5t-13 -48.5h-335v-14q0 -75 28.5 -117.5t86.5 -42.5q27 0 56.5 9t61.5 31l31 -51q-33 -25 -73 -39.5t-84 -14.5z M352 460q-37 0 -66 -15t-50 -39t-34.5 -54.5t-20.5 -61.5h270q7 27 7 50q0 36 -9.5 59t-24.5 36.5t-34 19t-38 5.5zM370 576l-144 156h103l109 -156h-68z" glyph-name="egrave" horiz-adv-x="528" unicode="è"/><glyph d="M279 -12q-42 0 -75.5 16.5t-56.5 45.5t-35 68t-12 84q0 69 19 128t53 101.5t80 67t100 24.5q38 0 70 -10.5t55 -33.5t36 -58.5t13 -86.5q0 -33 -6 -58.5t-13 -48.5h-335v-14q0 -75 28.5 -117.5t86.5 -42.5q27 0 56.5 9t61.5 31l31 -51q-33 -25 -73 -39.5t-84 -14.5z M352 460q-37 0 -66 -15t-50 -39t-34.5 -54.5t-20.5 -61.5h270q7 27 7 50q0 36 -9.5 59t-24.5 36.5t-34 19t-38 5.5zM486 576l-94 101l-129 -101h-62l162 156h77l109 -156h-63z" glyph-name="ecircumflex" horiz-adv-x="528" unicode="ê"/><glyph d="M279 -12q-42 0 -75.5 16.5t-56.5 45.5t-35 68t-12 84q0 69 19 128t53 101.5t80 67t100 24.5q38 0 70 -10.5t55 -33.5t36 -58.5t13 -86.5q0 -33 -6 -58.5t-13 -48.5h-335v-14q0 -75 28.5 -117.5t86.5 -42.5q27 0 56.5 9t61.5 31l31 -51q-33 -25 -73 -39.5t-84 -14.5z M352 460q-37 0 -66 -15t-50 -39t-34.5 -54.5t-20.5 -61.5h270q7 27 7 50q0 36 -9.5 59t-24.5 36.5t-34 19t-38 5.5zM301 616q-17 0 -27.5 11.5t-10.5 28.5q0 23 16.5 38.5t37.5 15.5q17 0 27.5 -11t10.5 -28q0 -23 -16 -39t-38 -16zM461 616q-17 0 -28 11.5t-11 28.5 q0 23 17.5 38.5t37.5 15.5q17 0 27.5 -11t10.5 -28q0 -23 -16.5 -39t-37.5 -16z" glyph-name="edieresis" horiz-adv-x="528" unicode="ë"/><glyph d="M95 0l90 511h67l-90 -511h-67zM231 576h-69l164 156h102z" glyph-name="iacute" horiz-adv-x="261" unicode="í"/><glyph d="M95 0l90 511h67l-90 -511h-67zM218 576l-144 156h103l109 -156h-68z" glyph-name="igrave" horiz-adv-x="261" unicode="ì"/><glyph d="M95 0l90 511h67l-90 -511h-67zM338 576l-94 101l-129 -101h-62l162 156h77l109 -156h-63z" glyph-name="icircumflex" horiz-adv-x="261" unicode="î"/><glyph d="M95 0l90 511h67l-90 -511h-67zM157 616q-17 0 -27.5 11.5t-10.5 28.5q0 23 16.5 38.5t37.5 15.5q17 0 27.5 -11t10.5 -28q0 -23 -16 -39t-38 -16zM317 616q-17 0 -28 11.5t-11 28.5q0 23 17.5 38.5t37.5 15.5q17 0 27.5 -11t10.5 -28q0 -23 -16.5 -39t-37.5 -16z" glyph-name="idieresis" horiz-adv-x="261" unicode="ï"/><glyph d="M400 0l54 308q5 28 5 47q0 50 -23.5 77.5t-69.5 27.5q-26 0 -50.5 -11t-44 -30.5t-33 -47.5t-19.5 -61l-54 -310h-70l90 511h70l-10 -56q28 33 63.5 50.5t73.5 17.5q69 0 107 -40t38 -123q0 -17 -1.5 -36.5t-5.5 -40.5l-50 -283h-70zM456 602q-26 0 -45.5 8t-37 17 l-33.5 17t-34 8t-33 -11.5t-20 -34.5h-37q9 53 35.5 81.5t72.5 28.5q25 0 45 -8t37 -17.5t33 -17.5t34 -8t33.5 12t21.5 35h36q-10 -53 -36.5 -81.5t-71.5 -28.5z" glyph-name="ntilde" horiz-adv-x="560" unicode="ñ"/><glyph d="M279 -12q-48 0 -82.5 17.5t-56.5 46t-32 66t-10 78.5q0 55 16 113t48 105.5t80.5 78t114.5 30.5q49 0 83.5 -18t56.5 -47.5t31.5 -67t9.5 -75.5q0 -55 -15.5 -113t-47.5 -105.5t-81 -78t-115 -30.5zM279 51q48 0 84 24.5t59 63t34.5 85.5t11.5 91q0 27 -6 53t-19 46.5 t-34.5 33t-51.5 12.5q-48 0 -83.5 -24.5t-59 -63t-35 -85t-11.5 -91.5q0 -28 6 -54t19.5 -46.5t34.5 -32.5t51 -12zM384 576h-69l164 156h102z" glyph-name="oacute" horiz-adv-x="547" unicode="ó"/><glyph d="M279 -12q-48 0 -82.5 17.5t-56.5 46t-32 66t-10 78.5q0 55 16 113t48 105.5t80.5 78t114.5 30.5q49 0 83.5 -18t56.5 -47.5t31.5 -67t9.5 -75.5q0 -55 -15.5 -113t-47.5 -105.5t-81 -78t-115 -30.5zM279 51q48 0 84 24.5t59 63t34.5 85.5t11.5 91q0 27 -6 53t-19 46.5 t-34.5 33t-51.5 12.5q-48 0 -83.5 -24.5t-59 -63t-35 -85t-11.5 -91.5q0 -28 6 -54t19.5 -46.5t34.5 -32.5t51 -12zM369 576l-144 156h103l109 -156h-68z" glyph-name="ograve" horiz-adv-x="547" unicode="ò"/><glyph d="M279 -12q-48 0 -82.5 17.5t-56.5 46t-32 66t-10 78.5q0 55 16 113t48 105.5t80.5 78t114.5 30.5q49 0 83.5 -18t56.5 -47.5t31.5 -67t9.5 -75.5q0 -55 -15.5 -113t-47.5 -105.5t-81 -78t-115 -30.5zM279 51q48 0 84 24.5t59 63t34.5 85.5t11.5 91q0 27 -6 53t-19 46.5 t-34.5 33t-51.5 12.5q-48 0 -83.5 -24.5t-59 -63t-35 -85t-11.5 -91.5q0 -28 6 -54t19.5 -46.5t34.5 -32.5t51 -12zM494 576l-94 101l-129 -101h-62l162 156h77l109 -156h-63z" glyph-name="ocircumflex" horiz-adv-x="547" unicode="ô"/><glyph d="M279 -12q-48 0 -82.5 17.5t-56.5 46t-32 66t-10 78.5q0 55 16 113t48 105.5t80.5 78t114.5 30.5q49 0 83.5 -18t56.5 -47.5t31.5 -67t9.5 -75.5q0 -55 -15.5 -113t-47.5 -105.5t-81 -78t-115 -30.5zM279 51q48 0 84 24.5t59 63t34.5 85.5t11.5 91q0 27 -6 53t-19 46.5 t-34.5 33t-51.5 12.5q-48 0 -83.5 -24.5t-59 -63t-35 -85t-11.5 -91.5q0 -28 6 -54t19.5 -46.5t34.5 -32.5t51 -12zM300 616q-17 0 -27.5 11.5t-10.5 28.5q0 23 16.5 38.5t37.5 15.5q17 0 27.5 -11t10.5 -28q0 -23 -16 -39t-38 -16zM460 616q-17 0 -28 11.5t-11 28.5 q0 23 17.5 38.5t37.5 15.5q17 0 27.5 -11t10.5 -28q0 -23 -16.5 -39t-37.5 -16z" glyph-name="odieresis" horiz-adv-x="547" unicode="ö"/><glyph d="M279 -12q-48 0 -82.5 17.5t-56.5 46t-32 66t-10 78.5q0 55 16 113t48 105.5t80.5 78t114.5 30.5q49 0 83.5 -18t56.5 -47.5t31.5 -67t9.5 -75.5q0 -55 -15.5 -113t-47.5 -105.5t-81 -78t-115 -30.5zM279 51q48 0 84 24.5t59 63t34.5 85.5t11.5 91q0 27 -6 53t-19 46.5 t-34.5 33t-51.5 12.5q-48 0 -83.5 -24.5t-59 -63t-35 -85t-11.5 -91.5q0 -28 6 -54t19.5 -46.5t34.5 -32.5t51 -12zM453 602q-26 0 -45.5 8t-37 17l-33.5 17t-34 8t-33 -11.5t-20 -34.5h-37q9 53 35.5 81.5t72.5 28.5q25 0 45 -8t37 -17.5t33 -17.5t34 -8t33.5 12t21.5 35 h36q-10 -53 -36.5 -81.5t-71.5 -28.5z" glyph-name="otilde" horiz-adv-x="547" unicode="õ"/><glyph d="M395 0l9 49q-24 -32 -57.5 -46.5t-75.5 -14.5q-74 0 -112 40t-38 118q0 17 2 34t5 37l51 294h70l-55 -312q-2 -12 -3 -23.5t-1 -21.5q0 -56 27 -79.5t65 -23.5q25 0 48.5 7t43 24t34 45t22.5 70l55 314h70l-90 -511h-70zM374 576h-69l164 156h102z" glyph-name="uacute" horiz-adv-x="559" unicode="ú"/><glyph d="M395 0l9 49q-24 -32 -57.5 -46.5t-75.5 -14.5q-74 0 -112 40t-38 118q0 17 2 34t5 37l51 294h70l-55 -312q-2 -12 -3 -23.5t-1 -21.5q0 -56 27 -79.5t65 -23.5q25 0 48.5 7t43 24t34 45t22.5 70l55 314h70l-90 -511h-70zM387 576l-144 156h103l109 -156h-68z" glyph-name="ugrave" horiz-adv-x="559" unicode="ù"/><glyph d="M395 0l9 49q-24 -32 -57.5 -46.5t-75.5 -14.5q-74 0 -112 40t-38 118q0 17 2 34t5 37l51 294h70l-55 -312q-2 -12 -3 -23.5t-1 -21.5q0 -56 27 -79.5t65 -23.5q25 0 48.5 7t43 24t34 45t22.5 70l55 314h70l-90 -511h-70zM489 576l-94 101l-129 -101h-62l162 156h77 l109 -156h-63z" glyph-name="ucircumflex" horiz-adv-x="559" unicode="û"/><glyph d="M395 0l9 49q-24 -32 -57.5 -46.5t-75.5 -14.5q-74 0 -112 40t-38 118q0 17 2 34t5 37l51 294h70l-55 -312q-2 -12 -3 -23.5t-1 -21.5q0 -56 27 -79.5t65 -23.5q25 0 48.5 7t43 24t34 45t22.5 70l55 314h70l-90 -511h-70zM308 616q-17 0 -27.5 11.5t-10.5 28.5 q0 23 16.5 38.5t37.5 15.5q17 0 27.5 -11t10.5 -28q0 -23 -16 -39t-38 -16zM468 616q-17 0 -28 11.5t-11 28.5q0 23 17.5 38.5t37.5 15.5q17 0 27.5 -11t10.5 -28q0 -23 -16.5 -39t-37.5 -16z" glyph-name="udieresis" horiz-adv-x="559" unicode="ü"/><glyph d="M382 457l-9 -119l-115 -479h-5l51 479l31 119l-137 -19h-34l12 68h34l128 -20l10 101l22 125h69l-22 -125l-28 -101l136 20h35l-12 -68h-35z" glyph-name="dagger" horiz-adv-x="559" unicode="†"/><glyph d="M304 519q22 0 41.5 9t34.5 24.5t23.5 37t8.5 46.5q0 35 -20 57.5t-54 22.5q-21 0 -41 -8.5t-35.5 -24t-25 -36.5t-9.5 -46q0 -35 21.5 -58.5t55.5 -23.5zM291 450q-30 0 -55 11t-43 29.5t-28 44t-10 55.5q0 42 16 77t43 61t62.5 40.5t73.5 14.5q30 0 55 -10.5t42.5 -29 t27.5 -44t10 -55.5q0 -41 -16 -76.5t-43 -61.5t-62 -41t-73 -15z" glyph-name="degree" horiz-adv-x="422" unicode="°"/><glyph d="M229 -12l17 97q-57 13 -88 65t-31 131q0 137 57.5 223t154.5 108l18 100h67l-18 -97q49 -5 80 -30t40 -77l-70 -26q-6 29 -25.5 47.5t-54.5 18.5q-45 0 -78.5 -19.5t-55.5 -54.5t-33 -82.5t-11 -102.5q0 -63 25.5 -100.5t78.5 -37.5q36 0 66 20.5t46 56.5l61 -24 q-52 -112 -162 -121l-17 -95h-67z" glyph-name="cent" horiz-adv-x="512" unicode="¢"/><glyph d="M102 0l14 79q28 12 51 37t39.5 56t25.5 64.5t11 63.5h-93l10 57h78q-8 24 -16 51t-8 65q0 48 16.5 91.5t48.5 76.5t80 52t111 19t105 -18t73 -47l-37 -64q-9 9 -21 19.5t-30 20t-43 16t-59 6.5q-43 0 -74.5 -13.5t-52.5 -36t-31.5 -52t-10.5 -60.5q0 -43 10.5 -72 t14.5 -54h157l-10 -57h-144q-5 -69 -44.5 -127.5t-100.5 -107.5h386l-11 -65h-445z" glyph-name="sterling" horiz-adv-x="601" unicode="£"/><glyph d="M502 590q-6 8 -14.5 17t-23 17t-35 13t-48.5 5q-58 0 -92 -22.5t-34 -66.5q0 -19 11 -34t30 -28t45 -24.5l55 -23.5l47 -22t40 -27t27.5 -37t10.5 -51q0 -45 -18.5 -79t-62.5 -54q21 -19 30.5 -45.5t9.5 -54.5q0 -46 -16 -82t-46 -60.5t-71.5 -37.5t-92.5 -13 q-37 0 -67.5 7.5t-54 19.5t-40 27.5t-25.5 31.5l59 47q5 -9 15.5 -20t27.5 -21t40 -17t54 -7q65 0 104.5 22.5t39.5 79.5q0 27 -16 46t-40 33t-51 25t-48 22q-23 11 -43 22t-36 25.5t-25 33t-9 43.5q0 50 27.5 83t66.5 46q-26 16 -38.5 44.5t-12.5 62.5q0 43 18 76 t47.5 55.5t67.5 33.5t79 11q37 0 65 -7.5t48 -19t33.5 -25.5t21.5 -27zM449 287q0 20 -11.5 35.5t-31 27.5t-45 23t-54.5 22q-44 -7 -69 -28.5t-25 -53.5q0 -21 15.5 -36.5t40 -27.5t54.5 -22.5t60 -22.5q30 12 48 32t18 51z" glyph-name="section" horiz-adv-x="542" unicode="§"/><glyph d="M248 223q-48 0 -76.5 31t-28.5 76q0 30 12 57.5t32.5 47.5t48 32t57.5 12q24 0 44.5 -8.5t34.5 -23.5t22 -35t8 -42q0 -31 -12.5 -57.5t-34 -46.5t-49.5 -31.5t-58 -11.5z" glyph-name="bullet" horiz-adv-x="421" unicode="•"/><glyph d="M435 -134l135 764h-98l-141 -798l-73 -32l84 478q-61 0 -102.5 16.5t-66.5 42t-35.5 57.5t-10.5 63q0 41 13.5 84t44 78.5t80 58t121.5 22.5h264l-141 -802z" glyph-name="paragraph" horiz-adv-x="629" unicode="¶"/><glyph d="M171 478q11 64 36 108.5t57 72.5t68.5 40.5t70.5 12.5q74 0 117.5 -42t43.5 -109q0 -58 -30 -107.5t-91 -68.5q50 -19 74 -58t24 -87q0 -55 -19.5 -101t-52.5 -79.5t-77 -52.5t-94 -19q-22 0 -41.5 4.5t-31.5 11.5l40 54q19 -7 45 -7t54 10.5t51.5 33t39 56t15.5 80.5 q0 22 -7 43t-22.5 37.5t-41.5 26.5t-63 10h-4l11 63h4q65 0 105.5 33.5t40.5 108.5q0 44 -25.5 70t-76.5 26q-25 0 -49 -9.5t-44 -30t-35 -52t-23 -76.5l-114 -648l-75 -36z" glyph-name="germandbls" horiz-adv-x="565" unicode="ß"/><glyph d="M488 -12q-77 0 -143 27.5t-115 76.5t-76.5 115t-27.5 143t27.5 143t76.5 115t115 76.5t143 27.5t143 -27.5t115 -76.5t76.5 -115t27.5 -143t-27.5 -143t-76.5 -115t-115 -76.5t-143 -27.5zM488 42q66 0 121.5 23.5t96 65t63 97.5t22.5 122t-22.5 122t-63 97t-96 64.5 t-121.5 23.5t-121.5 -23.5t-96.5 -64.5t-64 -97t-23 -122t23 -122t64 -97.5t96.5 -65t121.5 -23.5zM336 137v423h207q31 0 53.5 -12t36 -30t20 -39.5t6.5 -40.5q0 -45 -27.5 -82.5t-77.5 -45.5l102 -173h-72l-95 172h-88v-172h-65zM545 365q23 0 37 21t14 50q0 10 -3 21.5 t-9.5 21t-16 15.5t-22.5 6h-144v-135h144z" glyph-name="registered" horiz-adv-x="860" unicode="®"/><glyph d="M653 259q-17 -59 -59 -90t-100 -31q-85 0 -133.5 55.5t-48.5 161.5q0 100 49.5 159t140.5 59q54 0 91.5 -29t56.5 -81l-63 -26q-10 29 -33 50t-61 21q-33 0 -55 -10.5t-34.5 -30.5t-18 -48t-5.5 -64q0 -78 24.5 -116t91.5 -38q35 0 63 18t37 63zM488 -12q-77 0 -143 27.5 t-115 76.5t-76.5 115t-27.5 143t27.5 143t76.5 115t115 76.5t143 27.5t143 -27.5t115 -76.5t76.5 -115t27.5 -143t-27.5 -143t-76.5 -115t-115 -76.5t-143 -27.5zM488 42q66 0 121.5 23.5t96 65t63 97.5t22.5 122t-22.5 122t-63 97t-96 64.5t-121.5 23.5t-121.5 -23.5 t-96.5 -64.5t-64 -97t-23 -122t23 -122t64 -97.5t96.5 -65t121.5 -23.5z" glyph-name="copyright" horiz-adv-x="860" unicode="©"/><glyph d="M285 648v-370h-56v370h-115v52h285v-52h-114zM724 278v256l-9 -27l-104 -245l-105 245l-10 30v-259h-56v422h45l116 -278l9 -25l9 25l116 278h45v-422h-56z" glyph-name="trademark" horiz-adv-x="776" unicode="™"/><glyph d="M317 576h-69l164 156h102z" glyph-name="acute" unicode="´"/><glyph d="M241 616q-17 0 -27.5 11.5t-10.5 28.5q0 23 16.5 38.5t37.5 15.5q17 0 27.5 -11t10.5 -28q0 -23 -16 -39t-38 -16zM401 616q-17 0 -28 11.5t-11 28.5q0 23 17.5 38.5t37.5 15.5q17 0 27.5 -11t10.5 -28q0 -23 -16.5 -39t-37.5 -16z" glyph-name="dieresis" unicode="¨"/><glyph d="M360 227l-50 -104h-72l50 104h-133v72h173l45 87h-218v72h255l46 88h71l-46 -88h139v-72h-176l-46 -87h222v-72h-260z" glyph-name="notequal" horiz-adv-x="655" unicode="≠"/><glyph d="M434 0l32 181h-249l-131 -181h-84l514 700h369l-10 -63h-259l-43 -243h167l-12 -63h-166l-47 -268h280l-11 -63h-350zM477 243l70 399l-19 -28l-22 -31l-244 -340h215z" glyph-name="AE" horiz-adv-x="861" unicode="Æ"/><glyph d="M87 -12l80 98q-10 17 -17 39t-11.5 46t-6.5 47.5t-2 44.5q0 49 8.5 101.5t26.5 102.5t46.5 94.5t67.5 78t89.5 53t113.5 19.5q51 0 88 -14.5t63 -39.5l45 54h71l-80 -98q10 -17 17 -39t11.5 -46t6.5 -48.5t2 -45.5q0 -73 -19.5 -152t-61.5 -144.5t-109 -108t-162 -42.5 q-51 0 -89 14.5t-65 39.5l-44 -54h-69zM200 267q0 -13 1 -29t3 -32.5t5 -31.5t8 -26l371 454q-20 22 -49 34.5t-69 12.5q-70 0 -121 -36t-84 -92t-49 -123.5t-16 -130.5zM365 51q71 0 122 36t84 91.5t49 122.5t16 129q0 13 -1 29.5t-3.5 33t-6 32t-8.5 27.5l-371 -454 q20 -22 49 -34.5t70 -12.5z" glyph-name="Oslash" horiz-adv-x="712" unicode="Ø"/><glyph d="M744 128q-44 0 -76 13t-55.5 36t-38.5 54.5t-24 69.5q-23 -36 -49 -67.5t-57 -55t-67 -37t-79 -13.5q-39 0 -72.5 12.5t-57.5 36t-37.5 58t-13.5 78.5q0 65 21.5 116t57.5 86.5t83.5 54t99.5 18.5q43 0 74 -14t53.5 -38t37.5 -56t26 -68q23 38 49 70.5t56.5 56t67 36.5 t80.5 13q40 0 73.5 -12.5t57.5 -36.5t37.5 -58.5t13.5 -78.5q0 -65 -21.5 -116t-57.5 -86t-83.5 -53.5t-98.5 -18.5zM747 191q38 0 72.5 13.5t60 39.5t40.5 62.5t15 83.5q0 63 -35.5 99t-93.5 36q-33 0 -64 -14.5t-58.5 -38t-52.5 -54t-46 -61.5q10 -32 24 -62t33.5 -53 t45.5 -37t59 -14zM316 191q34 0 64.5 14t57.5 37t51 53t45 62q-10 31 -23.5 61.5t-32 54t-44 38t-59.5 14.5q-38 0 -72 -14t-60 -40t-41.5 -63.5t-15.5 -83.5q0 -62 36 -97.5t94 -35.5z" glyph-name="infinity" horiz-adv-x="996" unicode="∞"/><glyph d="M423 373v-168h-72v168h-198v67h198v168h72v-168h200v-67h-200zM153 0v67h470v-67h-470z" glyph-name="plusminus" horiz-adv-x="655" unicode="±"/><glyph d="M620 192l-468 169v70l468 171v-80l-378 -125l378 -127v-78zM152 0v67h470v-67h-470z" glyph-name="lessequal" horiz-adv-x="655" unicode="≤"/><glyph d="M152 192v78l378 127l-378 125v80l468 -171v-70zM152 0v67h470v-67h-470z" glyph-name="greaterequal" horiz-adv-x="655" unicode="≥"/><glyph d="M363 309h149l-10 -60h-146l-12 -66h146l-10 -60h-146l-22 -123h-67l22 123h-158l10 60h158l12 66h-158l10 60h160l-139 391h75l106 -324l228 324h69z" glyph-name="yen" horiz-adv-x="557" unicode="¥"/><glyph d="M399 0l11 58q-30 -41 -67.5 -55.5t-70.5 -14.5q-29 0 -58 14t-42 48l-39 -223l-75 -30l126 714h70l-55 -310q-2 -14 -4 -26.5t-2 -32.5q0 -15 4.5 -31.5t15 -29.5t28.5 -21.5t46 -8.5q23 0 46.5 8t43.5 25t35 45t22 68l55 314h68l-90 -511h-68z" glyph-name="mu" horiz-adv-x="564" unicode="µ"/><glyph d="M271 -12q-89 0 -138.5 50.5t-49.5 136.5q0 58 20.5 106t55.5 82.5t82 53.5t100 19q69 0 113.5 -31.5t56.5 -79.5q4 14 10 37.5t6 68.5q0 53 -14.5 92.5t-40 66.5t-59 41t-70.5 16l27 65q115 -14 169.5 -87.5t54.5 -188.5q0 -74 -18.5 -153.5t-58 -145t-100.5 -107.5 t-146 -42zM278 55q40 0 75 14.5t61 39.5t40.5 59t14.5 73q0 63 -37.5 95.5t-98.5 32.5q-37 0 -70 -14t-57.5 -39t-39 -60t-14.5 -77q0 -54 32.5 -89t93.5 -35z" glyph-name="partialdiff" horiz-adv-x="593" unicode="∂"/><glyph d="M43 -142l10 59l326 371l-184 351l10 59h466l-12 -68h-377l181 -340l-319 -363h410l-12 -69h-499z" glyph-name="summation" horiz-adv-x="626" unicode="∑"/><glyph d="M509 -140l136 770h-354l-136 -770h-69l148 840h492l-148 -840h-69z" glyph-name="product" horiz-adv-x="714" unicode="∏"/><glyph d="M516 -12q-41 0 -66 23.5t-25 66.5q0 8 0.5 21.5t4.5 34.5l53 302h-160l-11 -63q-12 -70 -27.5 -132t-37.5 -112.5t-53 -88.5t-74 -60l-50 47q25 14 49 33t46 52.5t41 85.5t33 132l19 106h-96l13 75h514l-13 -75h-123l-53 -301q-2 -10 -3 -19.5t-1 -17.5q0 -20 8.5 -32 t33.5 -12t44 8.5t34 18.5l-21 -73q-40 -20 -79 -20z" glyph-name="pi" horiz-adv-x="673" unicode="π"/><glyph d="M128 -140q-33 0 -52.5 7t-33.5 15l9 52q13 -5 29.5 -9.5t38.5 -4.5q18 0 29.5 5t18 13.5t10 19t5.5 21.5l109 619q11 63 45 88.5t77 25.5q32 0 51.5 -7.5t33.5 -16.5l-9 -52l-30 10.5t-37 5.5q-18 0 -29.5 -5.5t-18.5 -14t-10.5 -19.5t-5.5 -22l-109 -617 q-6 -32 -17.5 -54t-27.5 -35.5t-35.5 -19t-40.5 -5.5z" glyph-name="integral" horiz-adv-x="441" unicode="∫"/><glyph d="M372 283l6 31q-22 -16 -54.5 -28.5t-67.5 -12.5q-54 0 -90.5 31.5t-36.5 85.5q0 43 17.5 74.5t45 52t60.5 30t64 9.5q24 0 52.5 -6.5t48.5 -16.5l2 12q3 18 4 26.5t1 16.5q0 34 -21 48.5t-63 14.5q-37 0 -66.5 -10.5t-52.5 -26.5l-6 59q25 17 62.5 28t82.5 11q21 0 44 -5 t42 -17t31.5 -32.5t12.5 -52.5q0 -11 -1.5 -24t-5.5 -35l-46 -263h-65zM273 332q15 0 31 4t31.5 10.5t29.5 15t24 16.5l16 92q-18 11 -45 18.5t-48 7.5q-20 0 -40 -5.5t-36 -17t-26 -29.5t-10 -44q0 -31 19 -49.5t54 -18.5z" glyph-name="ordfeminine" horiz-adv-x="465" unicode="ª"/><glyph d="M283 272q-70 0 -109 45t-39 123q0 62 17 112.5t47 86t71.5 54.5t90.5 19q72 0 110.5 -45.5t38.5 -123.5q0 -63 -16.5 -113t-46.5 -85t-71.5 -54t-92.5 -19zM294 337q37 0 65 14.5t46.5 41t27.5 63t9 80.5q0 52 -23 81.5t-70 29.5q-65 0 -105.5 -52.5t-40.5 -143.5 q0 -53 24 -83.5t67 -30.5z" glyph-name="ordmasculine" horiz-adv-x="471" unicode="º"/><glyph d="M431 0l13 71q60 57 97 102t57.5 88t27.5 88t7 104q0 36 -8 71t-26 62.5t-48 45t-73 17.5q-65 0 -111.5 -30.5t-77.5 -79.5t-45.5 -109.5t-14.5 -121.5q0 -68 21 -124.5t61 -112.5l-13 -71h-206l11 63h162q-51 39 -78 103.5t-27 143.5q0 68 19 139t59 129.5t102.5 96 t149.5 37.5q60 0 101 -22.5t66 -58.5t36 -80.5t11 -89.5q0 -137 -57 -236t-163 -162h164l-11 -63h-206z" glyph-name="Omega" horiz-adv-x="730"/><glyph d="M600 -12q-56 0 -98 30.5t-60 83.5q-45 -62 -98.5 -88t-104.5 -26q-67 0 -107 39.5t-40 107.5q0 50 17 87t46.5 61t68 35.5t81.5 11.5q31 0 63.5 -9t61.5 -29l8 45q5 25 5 41q0 44 -22.5 64t-60.5 20q-21 0 -43.5 -5t-43.5 -13t-40.5 -17.5t-34.5 -19.5l-9 60 q33 20 79.5 38t96.5 18q54 0 88.5 -25t45.5 -64q19 25 41 42.5t45 27.5t45.5 14.5t42.5 4.5q87 0 130.5 -48.5t43.5 -138.5q0 -39 -7 -65.5t-12 -43.5h-334q-1 -7 -1 -9.5v-8.5q0 -75 29.5 -115.5t85.5 -40.5q26 0 56 9t62 31l31 -51q-29 -22 -69 -38t-88 -16zM251 49 q22 0 43.5 7t41 18.5t36.5 26t30 29.5l16 95q-20 17 -51 30.5t-67 13.5q-29 0 -54.5 -7t-45.5 -22.5t-31.5 -39.5t-11.5 -58q0 -40 23.5 -66.5t70.5 -26.5zM673 460q-28 0 -54.5 -10.5t-49 -31.5t-40 -53t-27.5 -75h270q4 16 5.5 30.5t1.5 27.5q0 57 -30.5 84.5t-75.5 27.5z" glyph-name="ae" horiz-adv-x="849" unicode="æ"/><glyph d="M507 442q16 -28 23.5 -61t7.5 -66q0 -55 -15.5 -113t-47.5 -105.5t-81 -78t-115 -30.5q-39 0 -68.5 11t-51.5 31l-35 -42h-63l68 80q-16 27 -23.5 60t-7.5 68q0 55 16 113t48 105.5t80.5 78t114.5 30.5q39 0 68 -11.5t51 -31.5l36 43h63zM168 196q0 -18 2.5 -35.5 t7.5 -33.5l254 301q-14 15 -32 23.5t-43 8.5q-48 0 -83.5 -24.5t-59 -63t-35 -85t-11.5 -91.5zM279 51q48 0 84 24.5t59 63t34.5 85.5t11.5 91q0 17 -2.5 34.5t-8.5 33.5l-253 -301q13 -14 31.5 -22.5t43.5 -8.5z" glyph-name="oslash" horiz-adv-x="547" unicode="ø"/><glyph d="M227 -200q-43 0 -75.5 12t-54 33t-32.5 49t-11 60q0 52 15.5 87t39.5 60t53 45.5t55.5 42.5t47.5 51t30 72l2 10h69l-2 -10q-10 -50 -31.5 -84t-48 -59.5t-55 -45.5t-51.5 -42t-38 -49.5t-15 -67.5q0 -41 28.5 -70t85.5 -29q72 0 119.5 41.5t61.5 117.5h68 q-9 -50 -33 -91.5t-58.5 -71t-78 -45.5t-91.5 -16zM347 397q-23 0 -36.5 16.5t-13.5 37.5q0 13 6 26t16 23.5t23 16.5t27 6q24 0 37.5 -16.5t13.5 -37.5q0 -14 -6 -26.5t-16 -23t-23 -16.5t-28 -6z" glyph-name="questiondown" horiz-adv-x="526" unicode="¿"/><glyph d="M68 -200l37 214l83 302h11l-25 -302l-37 -214h-69zM209 397q-23 0 -36.5 16.5t-13.5 37.5q0 13 6 26t16 23.5t23 16.5t27 6q23 0 37 -16.5t14 -37.5q0 -14 -6 -26.5t-16 -23t-23 -16.5t-28 -6z" glyph-name="exclamdown" horiz-adv-x="280" unicode="¡"/><glyph d="M547 176v220h-398v67h470v-287h-72z" glyph-name="logicalnot" horiz-adv-x="655" unicode="¬"/><glyph d="M626 700l-326 -700h-69l-105 327h67l81 -250l281 623h71z" glyph-name="radical" horiz-adv-x="557" unicode="√"/><glyph d="M156 511h79l15 87q6 31 18.5 53t29.5 35.5t36.5 19.5t38.5 6q28 0 46 -7.5t32 -16.5l-10 -61q-13 8 -29 14t-38 6q-17 0 -27.5 -5t-16.5 -13.5t-9 -19.5t-5 -22l-14 -76h118l-11 -63h-118l-85 -480q-9 -51 -28 -85t-44.5 -54.5t-54.5 -30t-58 -11.5l-21 55q36 3 60 12 t39.5 22t23.5 29.5t11 34.5l90 508h-79z" glyph-name="florin" horiz-adv-x="374" unicode="ƒ"/><glyph d="M496 367q-31 0 -60.5 10t-57 21.5t-54.5 21.5t-52 10q-33 0 -54.5 -17.5t-23.5 -45.5h-40q0 25 6.5 48.5t21.5 41t38.5 28t57.5 10.5q32 0 62 -10t58 -21.5l54 -21.5t50 -10q33 0 54.5 18t23.5 45h40q0 -26 -7 -49t-22 -40.5t-38.5 -28t-56.5 -10.5zM496 190 q-31 0 -60.5 10t-57 21.5t-54.5 21.5t-52 10q-33 0 -54.5 -17t-23.5 -46h-40q0 25 6.5 48.5t21.5 41.5t38.5 29t57.5 11q32 0 62 -10t58 -21.5l54 -21.5t50 -10q33 0 54.5 17.5t23.5 45.5h18h22q0 -26 -7 -49.5t-22 -41.5t-38.5 -28.5t-56.5 -10.5z" glyph-name="approxequal" horiz-adv-x="655" unicode="≈"/><glyph d="M64 0l356 700h56l113 -700h-525zM444 489l-7.5 48t-6.5 49l-10 -22l-12.5 -26.5l-13 -26.5t-10.5 -22l-213 -424h339z" glyph-name="Delta" horiz-adv-x="657" unicode="∆"/><glyph d="M200 0l-101 256l191 255h75l-191 -258l101 -253h-75zM425 0h-34l-101 256l191 255h77l-191 -258l101 -253h-43z" glyph-name="guillemotleft" horiz-adv-x="507" unicode="«"/><glyph d="M230 0l191 256l-101 255h77l101 -255l-191 -256h-77zM39 0l191 256l-101 255h75l101 -255l-191 -256h-75z" glyph-name="guillemotright" horiz-adv-x="507" unicode="»"/><glyph d="M148 -12q-14 0 -23.5 10t-9.5 23q0 18 15 32t32 14q15 0 24.5 -10.5t9.5 -24.5q0 -17 -14.5 -30.5t-33.5 -13.5zM401 -12q-15 0 -24 10t-9 23q0 18 14 32t33 14q15 0 25 -10.5t10 -24.5q0 -18 -15 -31t-34 -13zM654 -12q-14 0 -23.5 10t-9.5 23q0 18 15 32t32 14 q15 0 24.5 -10.5t9.5 -24.5q0 -17 -14.5 -30.5t-33.5 -13.5z" glyph-name="ellipsis" horiz-adv-x="808" unicode="…"/><glyph d="M521 0l-29 181h-263l-91 -181h-74l356 700h56l113 -700h-68zM439 523l-5 33t-4 30q-4 -10 -13 -29.5l-16 -33.5l-141 -280h223zM454 766l-144 156h103l109 -156h-68z" glyph-name="Agrave" horiz-adv-x="657" unicode="À"/><glyph d="M521 0l-29 181h-263l-91 -181h-74l356 700h56l113 -700h-68zM439 523l-5 33t-4 30q-4 -10 -13 -29.5l-16 -33.5l-141 -280h223zM540 792q-26 0 -45.5 8t-37 17l-33.5 17t-34 8t-33 -11.5t-20 -34.5h-37q9 53 35.5 81.5t72.5 28.5q25 0 45 -8t37 -17.5t33 -17.5t34 -8 t33.5 12t21.5 35h36q-10 -53 -36.5 -81.5t-71.5 -28.5z" glyph-name="Atilde" horiz-adv-x="657" unicode="Ã"/><glyph d="M362 51q70 0 122 36t85.5 92.5t50 124.5t16.5 132q0 39 -8.5 77.5t-28 68.5t-50 48.5t-74.5 18.5q-71 0 -122.5 -36t-85.5 -92.5t-50.5 -124.5t-16.5 -132q0 -42 9 -80.5t28.5 -68t50 -47t74.5 -17.5zM362 -12q-62 0 -106 23t-72 61t-41 88t-13 104q0 75 20.5 154 t63.5 144.5t107.5 107.5t153.5 42q63 0 107 -24t71.5 -63t40 -88.5t12.5 -100.5q0 -75 -20.5 -154t-63 -144.5t-107.5 -107.5t-153 -42zM575 792q-26 0 -45.5 8t-37 17l-33.5 17t-34 8t-33 -11.5t-20 -34.5h-37q9 53 35.5 81.5t72.5 28.5q25 0 45 -8t37 -17.5t33 -17.5 t34 -8t33.5 12t21.5 35h36q-10 -53 -36.5 -81.5t-71.5 -28.5z" glyph-name="Otilde" horiz-adv-x="712" unicode="Õ"/><glyph d="M443 0q-41 -12 -89 -12q-63 0 -105.5 24t-69 63t-38 88.5t-11.5 99.5q0 75 19.5 154.5t62 145t109 107.5t161.5 42q26 0 46 -3t37 -9h353l-11 -67h-261l-42 -238h177l-12 -66h-177l-46 -262h282l-12 -67h-373zM365 51q32 0 61 9t56 25l93 530q-42 34 -105 34 q-70 0 -121 -36t-84 -92t-48.5 -123t-15.5 -130q0 -42 8.5 -81t28 -69t51 -48.5t76.5 -18.5z" glyph-name="OE" horiz-adv-x="894" unicode="Œ"/><glyph d="M525 213q0 -75 28.5 -117.5t86.5 -42.5q27 0 56.5 9t61.5 31l31 -51q-33 -25 -73 -39.5t-84 -14.5q-57 0 -97.5 29t-60.5 77q-32 -48 -80.5 -77t-114.5 -29q-48 0 -82.5 17.5t-56.5 46t-32 66t-10 78.5q0 55 16 113t48 105.5t80.5 78t114.5 30.5q64 0 102.5 -29t57.5 -73 q34 48 82.5 75t105.5 27q38 0 70 -10.5t55 -33.5t36 -58.5t13 -86.5q0 -33 -6 -58.5t-13 -48.5h-335v-14zM279 51q48 0 84 24.5t59 63t34.5 85.5t11.5 91q0 27 -6 53t-19 46.5t-34.5 33t-51.5 12.5q-48 0 -83.5 -24.5t-59 -63t-35 -85t-11.5 -91.5q0 -28 6 -54t19.5 -46.5 t34.5 -32.5t51 -12zM804 290q7 27 7 50q0 36 -9.5 59t-24.5 36.5t-34 19t-38 5.5q-37 0 -66 -15t-50 -39t-34.5 -54.5t-20.5 -61.5h270z" glyph-name="oe" horiz-adv-x="879" unicode="œ"/><glyph d="M118 257l11 60h379l-11 -60h-379z" glyph-name="endash" horiz-adv-x="525" unicode="–"/><glyph d="M65 257l11 60h562l-11 -60h-562z" glyph-name="emdash" horiz-adv-x="602" unicode="—"/><glyph d="M282 707q-8 -6 -18 -16.5t-20 -25.5t-18.5 -34t-12.5 -41q28 0 44.5 -15t16.5 -38q0 -34 -22 -54.5t-50 -20.5q-22 0 -39 16t-17 49q0 60 34.5 108t84.5 77zM471 707q-8 -6 -18.5 -16.5t-20.5 -25.5t-18 -34t-12 -41q27 0 43.5 -15t16.5 -38q0 -34 -22 -54.5t-50 -20.5 q-21 0 -38.5 16t-17.5 50q0 29 9.5 56t25.5 51t37.5 43.5t46.5 33.5z" glyph-name="quotedblleft" horiz-adv-x="426" unicode="“"/><glyph d="M163 467q7 6 17.5 16.5t20.5 25.5t18.5 34t12.5 41q-28 0 -44 15t-16 38q0 34 21.5 54.5t49.5 20.5q22 0 39 -16t17 -49q0 -60 -34.5 -108t-84.5 -77zM351 467q7 6 17.5 16.5t20.5 25.5t18.5 34t12.5 41q-27 0 -43.5 15t-16.5 38q0 34 22 54.5t49 20.5q22 0 39 -16 t17 -49q0 -60 -34.5 -108t-84.5 -77z" glyph-name="quotedblright" horiz-adv-x="426" unicode="”"/><glyph d="M282 707q-8 -6 -18 -16.5t-20 -25.5t-18.5 -34t-12.5 -41q28 0 44.5 -15t16.5 -38q0 -34 -22 -54.5t-50 -20.5q-22 0 -39 16t-17 49q0 60 34.5 108t84.5 77z" glyph-name="quoteleft" horiz-adv-x="238" unicode="‘"/><glyph d="M163 467q7 6 17.5 16.5t20.5 25.5t18.5 34t12.5 41q-28 0 -44 15t-16 38q0 34 21.5 54.5t49.5 20.5q22 0 39 -16t17 -49q0 -60 -34.5 -108t-84.5 -77z" glyph-name="quoteright" horiz-adv-x="238" unicode="’"/><glyph d="M149 308v68h470v-68h-470zM381 501q-21 0 -34.5 14t-13.5 34q0 19 13.5 34t34.5 15q22 0 36.5 -15t14.5 -34q0 -20 -14.5 -34t-36.5 -14zM381 88q-21 0 -34.5 13t-13.5 33t13.5 34.5t34.5 14.5q22 0 36.5 -14.5t14.5 -34.5t-14.5 -33t-36.5 -13z" glyph-name="divide" horiz-adv-x="655" unicode="÷"/><glyph d="M271 -12l-130 362l258 362h73l130 -362l-258 -362h-73zM426 665l-222 -315l111 -315l223 315z" glyph-name="lozenge" horiz-adv-x="616" unicode="◊"/><glyph d="M183 -194h-71l110 210l-93 495h72l60 -371l2 -13.5t2 -11.5l2 -12q-1 0 6.5 13l13.5 24l194 371h76zM277 616q-17 0 -27.5 11.5t-10.5 28.5q0 23 16.5 38.5t37.5 15.5q17 0 27.5 -11t10.5 -28q0 -23 -16 -39t-38 -16zM437 616q-17 0 -28 11.5t-11 28.5q0 23 17.5 38.5 t37.5 15.5q17 0 27.5 -11t10.5 -28q0 -23 -16.5 -39t-37.5 -16z" glyph-name="ydieresis" horiz-adv-x="512" unicode="ÿ"/><glyph d="M271 0l49 280l-143 420h71l115 -360l247 360h72l-296 -427l-48 -273h-67zM363 796q-17 0 -27.5 11.5t-10.5 28.5q0 23 16.5 38.5t37.5 15.5q17 0 27.5 -11t10.5 -28q0 -23 -16 -39t-38 -16zM523 796q-17 0 -28 11.5t-11 28.5q0 23 17.5 38.5t37.5 15.5q17 0 27.5 -11 t10.5 -28q0 -23 -16.5 -39t-37.5 -16z" glyph-name="Ydieresis" horiz-adv-x="613" unicode="Ÿ"/><glyph d="M-98 -12l587 724h66l-587 -724h-66z" glyph-name="fraction" horiz-adv-x="333" unicode="⁄"/><glyph d="M493 396h-237q-7 -26 -12 -51.5t-7 -54.5h195l-33 -58h-164q0 -85 30.5 -132t104.5 -47q47 0 85 20t67 52l48 -35q-15 -19 -36 -37t-47.5 -32.5t-58 -23.5t-67.5 -9q-57 0 -94.5 18.5t-60.5 51.5t-33 77.5t-11 96.5h-69l36 58h36q2 25 6.5 51t11.5 55h-61l36 58h43 q18 51 45 97.5t63.5 82t84 57t105.5 21.5q45 0 82.5 -12t66.5 -35l-37 -64q-20 21 -51.5 33.5t-73.5 12.5t-75.5 -16t-59.5 -42.5t-45 -61.5t-32 -73h252z" glyph-name="Euro" horiz-adv-x="673" unicode="€"/><glyph d="M200 0l-101 256l191 255h75l-191 -255l101 -256h-75z" glyph-name="guilsinglleft" horiz-adv-x="314" unicode="‹"/><glyph d="M39 0l191 256l-101 255h75l101 -255l-191 -256h-75z" glyph-name="guilsinglright" horiz-adv-x="314" unicode="›"/><glyph d="M459 133h35l-12 -70h-35l-129 22l-8 -101l-22 -125h-69l22 125l26 101l-135 -22h-34l12 70h34l130 -21l11 120l19 106l31 119l-137 -19h-34l12 68h34l128 -20l10 101l22 125h69l-22 -125l-28 -101l136 20h35l-12 -68h-35l-131 19l-9 -119l-19 -106l-33 -120z" glyph-name="daggerdbl" horiz-adv-x="559" unicode="‡"/><glyph d="M169 286q-23 0 -36 16.5t-13 37.5q0 13 6 26t16 23.5t23 16.5t27 6q23 0 36.5 -16.5t13.5 -37.5q0 -14 -6 -26.5t-16 -23t-23 -16.5t-28 -6z" glyph-name="periodcentered" horiz-adv-x="238" unicode="·"/><glyph d="M57 -136q7 6 17.5 16.5t20.5 25.5t18.5 34t12.5 41q-28 0 -44 15t-16 38q0 34 21.5 54.5t48.5 20.5q23 0 39.5 -16t16.5 -49q0 -60 -34 -108t-84 -77z" glyph-name="quotesinglbase" horiz-adv-x="238" unicode="‚"/><glyph d="M57 -136q7 6 17.5 16.5t20.5 25.5t18.5 34t12.5 41q-28 0 -44 15t-16 38q0 34 21.5 54.5t48.5 20.5q23 0 39.5 -16t16.5 -49q0 -60 -34 -108t-84 -77zM245 -136q7 6 17.5 16.5t20.5 25.5t18.5 34t12.5 41q-27 0 -43.5 15t-16.5 38q0 34 22 54.5t48 20.5q23 0 39.5 -16 t16.5 -49q0 -60 -34 -108t-84 -77z" glyph-name="quotedblbase" horiz-adv-x="426" unicode="„"/><glyph d="M281 356q-34 0 -57.5 12.5t-38.5 32.5t-21.5 45t-6.5 51q0 33 11 71t34.5 70t58.5 53t83 21q34 0 57.5 -12.5t38 -32.5t21 -45.5t6.5 -50.5q0 -33 -10.5 -71t-33 -70t-58 -53t-84.5 -21zM291 414q27 0 48 12.5t35.5 33.5t22 48.5t7.5 57.5q0 38 -17.5 63t-53.5 25 q-28 0 -49 -13t-35 -34t-21 -48.5t-7 -56.5q0 -37 16.5 -62.5t53.5 -25.5zM240 -12h-69l587 724h69zM654 -12q-35 0 -58.5 12.5t-38 32.5t-21 45t-6.5 50q0 33 11 71t34 70.5t58 53.5t84 21q34 0 57 -12.5t37.5 -32t21 -45t6.5 -50.5q0 -33 -10.5 -71t-32.5 -70.5 t-57.5 -53.5t-84.5 -21zM664 46q27 0 48 12.5t35.5 33.5t22 48.5t7.5 56.5q0 38 -17.5 63.5t-53.5 25.5q-29 0 -50 -13t-35 -34t-21 -48t-7 -56q0 -38 17 -63.5t54 -25.5zM1020 -12q-34 0 -57.5 12.5t-38 32.5t-21 45t-6.5 50q0 33 11 71t34 70.5t58 53.5t83 21 q34 0 57.5 -12.5t38 -32t21 -45t6.5 -50.5q0 -33 -10.5 -71t-33 -70.5t-57.5 -53.5t-85 -21zM1030 46q27 0 48 12.5t36 33.5t22.5 48.5t7.5 56.5q0 38 -17.5 63.5t-54.5 25.5q-28 0 -49 -13t-35 -34t-21 -48.5t-7 -56.5q0 -37 16.5 -62.5t53.5 -25.5z" glyph-name="perthousand" horiz-adv-x="1241" unicode="‰"/><glyph d="M521 0l-29 181h-263l-91 -181h-74l356 700h56l113 -700h-68zM439 523l-5 33t-4 30q-4 -10 -13 -29.5l-16 -33.5l-141 -280h223zM570 766l-94 101l-129 -101h-62l162 156h77l109 -156h-63z" glyph-name="Acircumflex" horiz-adv-x="657" unicode="Â"/><glyph d="M110 0l123 700h384l-10 -63h-315l-43 -243h213l-12 -63h-212l-47 -268h336l-11 -63h-406zM545 766l-94 101l-129 -101h-62l162 156h77l109 -156h-63z" glyph-name="Ecircumflex" horiz-adv-x="593" unicode="Ê"/><glyph d="M521 0l-29 181h-263l-91 -181h-74l356 700h56l113 -700h-68zM439 523l-5 33t-4 30q-4 -10 -13 -29.5l-16 -33.5l-141 -280h223zM450 766h-69l164 156h102z" glyph-name="Aacute" horiz-adv-x="657" unicode="Á"/><glyph d="M110 0l123 700h384l-10 -63h-315l-43 -243h213l-12 -63h-212l-47 -268h336l-11 -63h-406zM354 796q-17 0 -27.5 11.5t-10.5 28.5q0 23 16.5 38.5t37.5 15.5q17 0 27.5 -11t10.5 -28q0 -23 -16 -39t-38 -16zM514 796q-17 0 -28 11.5t-11 28.5q0 23 17.5 38.5t37.5 15.5 q17 0 27.5 -11t10.5 -28q0 -23 -16.5 -39t-37.5 -16z" glyph-name="Edieresis" horiz-adv-x="593" unicode="Ë"/><glyph d="M110 0l123 700h384l-10 -63h-315l-43 -243h213l-12 -63h-212l-47 -268h336l-11 -63h-406zM440 766l-144 156h103l109 -156h-68z" glyph-name="Egrave" horiz-adv-x="593" unicode="È"/><glyph d="M110 0l123 700h70l-123 -700h-70zM277 766h-69l164 156h102z" glyph-name="Iacute" horiz-adv-x="290" unicode="Í"/><glyph d="M110 0l123 700h70l-123 -700h-70zM386 766l-94 101l-129 -101h-62l162 156h77l109 -156h-63z" glyph-name="Icircumflex" horiz-adv-x="290" unicode="Î"/><glyph d="M110 0l123 700h70l-123 -700h-70zM203 796q-17 0 -27.5 11.5t-10.5 28.5q0 23 16.5 38.5t37.5 15.5q17 0 27.5 -11t10.5 -28q0 -23 -16 -39t-38 -16zM363 796q-17 0 -28 11.5t-11 28.5q0 23 17.5 38.5t37.5 15.5q17 0 27.5 -11t10.5 -28q0 -23 -16.5 -39t-37.5 -16z" glyph-name="Idieresis" horiz-adv-x="290" unicode="Ï"/><glyph d="M110 0l123 700h70l-123 -700h-70zM270 766l-144 156h103l109 -156h-68z" glyph-name="Igrave" horiz-adv-x="290" unicode="Ì"/><glyph d="M362 51q70 0 122 36t85.5 92.5t50 124.5t16.5 132q0 39 -8.5 77.5t-28 68.5t-50 48.5t-74.5 18.5q-71 0 -122.5 -36t-85.5 -92.5t-50.5 -124.5t-16.5 -132q0 -42 9 -80.5t28.5 -68t50 -47t74.5 -17.5zM362 -12q-62 0 -106 23t-72 61t-41 88t-13 104q0 75 20.5 154 t63.5 144.5t107.5 107.5t153.5 42q63 0 107 -24t71.5 -63t40 -88.5t12.5 -100.5q0 -75 -20.5 -154t-63 -144.5t-107.5 -107.5t-153 -42zM510 766h-69l164 156h102z" glyph-name="Oacute" horiz-adv-x="712" unicode="Ó"/><glyph d="M362 51q70 0 122 36t85.5 92.5t50 124.5t16.5 132q0 39 -8.5 77.5t-28 68.5t-50 48.5t-74.5 18.5q-71 0 -122.5 -36t-85.5 -92.5t-50.5 -124.5t-16.5 -132q0 -42 9 -80.5t28.5 -68t50 -47t74.5 -17.5zM362 -12q-62 0 -106 23t-72 61t-41 88t-13 104q0 75 20.5 154 t63.5 144.5t107.5 107.5t153.5 42q63 0 107 -24t71.5 -63t40 -88.5t12.5 -100.5q0 -75 -20.5 -154t-63 -144.5t-107.5 -107.5t-153 -42zM614 766l-94 101l-129 -101h-62l162 156h77l109 -156h-63z" glyph-name="Ocircumflex" horiz-adv-x="712" unicode="Ô"/><glyph d="M362 51q70 0 122 36t85.5 92.5t50 124.5t16.5 132q0 39 -8.5 77.5t-28 68.5t-50 48.5t-74.5 18.5q-71 0 -122.5 -36t-85.5 -92.5t-50.5 -124.5t-16.5 -132q0 -42 9 -80.5t28.5 -68t50 -47t74.5 -17.5zM362 -12q-62 0 -106 23t-72 61t-41 88t-13 104q0 75 20.5 154 t63.5 144.5t107.5 107.5t153.5 42q63 0 107 -24t71.5 -63t40 -88.5t12.5 -100.5q0 -75 -20.5 -154t-63 -144.5t-107.5 -107.5t-153 -42zM483 766l-144 156h103l109 -156h-68z" glyph-name="Ograve" horiz-adv-x="712" unicode="Ò"/><glyph d="M349 -12q-45 0 -83 12t-65 36.5t-42.5 62.5t-15.5 90q0 17 1.5 37t5.5 41l76 433h70l-77 -439q-6 -38 -6 -69q0 -42 11.5 -69.5t30.5 -43t44 -22t52 -6.5q32 0 62.5 9t56 32.5t45.5 64t31 103.5l77 440h70l-77 -440q-26 -146 -91.5 -209t-175.5 -63zM488 766h-69l164 156 h102z" glyph-name="Uacute" horiz-adv-x="674" unicode="Ú"/><glyph d="M349 -12q-45 0 -83 12t-65 36.5t-42.5 62.5t-15.5 90q0 17 1.5 37t5.5 41l76 433h70l-77 -439q-6 -38 -6 -69q0 -42 11.5 -69.5t30.5 -43t44 -22t52 -6.5q32 0 62.5 9t56 32.5t45.5 64t31 103.5l77 440h70l-77 -440q-26 -146 -91.5 -209t-175.5 -63zM576 766l-94 101 l-129 -101h-62l162 156h77l109 -156h-63z" glyph-name="Ucircumflex" horiz-adv-x="674" unicode="Û"/><glyph d="M349 -12q-45 0 -83 12t-65 36.5t-42.5 62.5t-15.5 90q0 17 1.5 37t5.5 41l76 433h70l-77 -439q-6 -38 -6 -69q0 -42 11.5 -69.5t30.5 -43t44 -22t52 -6.5q32 0 62.5 9t56 32.5t45.5 64t31 103.5l77 440h70l-77 -440q-26 -146 -91.5 -209t-175.5 -63zM471 766l-144 156 h103l109 -156h-68z" glyph-name="Ugrave" horiz-adv-x="674" unicode="Ù"/><glyph d="M95 0l90 511h67l-90 -511h-67z" glyph-name="dotlessi" horiz-adv-x="261" unicode="ı"/><glyph d="M419 576l-94 101l-129 -101h-62l162 156h77l109 -156h-63z" glyph-name="circumflex" unicode="ˆ"/><glyph d="M384 602q-26 0 -45.5 8t-37 17l-33.5 17t-34 8t-33 -11.5t-20 -34.5h-37q9 53 35.5 81.5t72.5 28.5q25 0 45 -8t37 -17.5t33 -17.5t34 -8t33.5 12t21.5 35h36q-10 -53 -36.5 -81.5t-71.5 -28.5z" glyph-name="tilde" unicode="˜"/><glyph d="M157 609l11 61h317l-11 -61h-317z" glyph-name="macron" unicode="¯"/><glyph d="M314 581q-39 0 -67.5 10.5t-47 27.5t-27.5 40t-9 47q0 18 3 36h63q-1 -5 -1.5 -10t-0.5 -10q0 -41 23.5 -60t68.5 -19q21 0 41.5 7t37.5 19.5t29 31t16 41.5h66q-6 -33 -20.5 -62.5t-38.5 -51.5t-58 -34.5t-78 -12.5z" glyph-name="breve" unicode="˘"/><glyph d="M311 606q-17 0 -27.5 11.5t-10.5 28.5q0 23 16.5 38.5t37.5 15.5q17 0 27.5 -11t10.5 -28q0 -23 -16 -39t-38 -16z" glyph-name="dotaccent" unicode="˙"/><glyph d="M298 540q-20 0 -37 8t-29 21t-19 30.5t-7 37.5q0 27 11 50t29.5 40.5t42.5 27.5t49 10q40 0 66 -27.5t26 -67.5q0 -26 -11.5 -49.5t-30 -41.5t-42.5 -28.5t-48 -10.5zM307 592q27 0 47 20.5t20 52.5q0 22 -12.5 35t-32.5 13q-25 0 -45.5 -19t-20.5 -51q0 -22 12.5 -36.5 t31.5 -14.5z" glyph-name="ring" unicode="˚"/><glyph d="M142 -234q-32 0 -51.5 11t-30.5 25l45 27q5 -5 12.5 -10t24.5 -5q22 0 39.5 15t17.5 38q0 21 -14 33.5t-37 12.5q-25 0 -35 -5l-10 15l81 87h40l-50 -65q49 0 68.5 -22t19.5 -50q0 -50 -34.5 -78.5t-85.5 -28.5z" glyph-name="cedilla" unicode="¸"/><glyph d="M307 576h-68l163 156h103zM497 576h-68l163 156h44h59z" glyph-name="hungarumlaut" unicode="˝"/><glyph d="M135 -234q-38 0 -64 20.5t-26 60.5q0 56 43 98t117 65h53q-78 -31 -115 -69.5t-37 -79.5q0 -24 13 -34.5t30 -10.5q20 0 34 7.5t23 15.5l32 -29q-17 -17 -42.5 -30.5t-60.5 -13.5z" glyph-name="ogonek" unicode="˛"/><glyph d="M335 576h-77l-108 156h62l94 -101l129 101h63z" glyph-name="caron" unicode="ˇ"/><glyph d="M330 86q-87 0 -134 46l-74 -66l-41 54l77 68q-8 18 -12 44t-4 49q0 54 15.5 102t50.5 96l-52 67l57 52l52 -65q32 22 70 35t82 13q43 0 77 -12.5t58 -34.5l73 64l42 -55l-74 -65q8 -19 11 -44t3 -46q0 -57 -16.5 -107t-52.5 -96l54 -68l-57 -51l-53 67q-65 -47 -152 -47z M342 153q42 0 77.5 16.5t61.5 45t40.5 68t14.5 85.5q0 31 -9 57.5t-25.5 46t-40.5 31t-55 11.5q-41 0 -76 -16.5t-61.5 -46t-41.5 -69t-15 -84.5q0 -31 9 -57.5t25.5 -46t41 -30.5t54.5 -11z" glyph-name="currency" horiz-adv-x="631" unicode="¤"/><glyph d="M144 264l12 68h214l-12 -68h-214z" glyph-name="uni00AD" horiz-adv-x="408" unicode="­"/><glyph d="M521 0l-29 181h-263l-91 -181h-74l356 700h56l113 -700h-68zM439 523l-5 33t-4 30q-4 -10 -13 -29.5l-16 -33.5l-141 -280h223zM309 799l11 61h317l-11 -61h-317z" glyph-name="Amacron" horiz-adv-x="657" unicode="Ā"/><glyph d="M379 0l7 42q-24 -20 -61 -37t-86 -17q-69 0 -108 40.5t-39 106.5q0 52 18.5 89.5t48 60.5t67 34t75.5 11q48 0 79.5 -12.5t49.5 -25.5l8 45q5 25 5 43q0 24 -7.5 40t-19 25.5t-26.5 13t-30 3.5q-21 0 -43.5 -5t-43.5 -13t-40.5 -17.5t-34.5 -19.5l-9 60q33 20 79 38 t97 18q25 0 50.5 -6.5t46.5 -22.5t34 -41.5t13 -64.5q0 -20 -5 -48l-60 -340h-65zM251 49q44 0 84.5 23.5t65.5 51.5l17 101q-15 12 -45.5 28t-72.5 16q-28 0 -53.5 -7t-45.5 -22.5t-32 -39.5t-12 -58q0 -40 23.5 -66.5t70.5 -26.5zM209 609l11 61h317l-11 -61h-317z" glyph-name="amacron" horiz-adv-x="532" unicode="ā"/><glyph d="M521 0l-29 181h-263l-91 -181h-74l356 700h56l113 -700h-68zM439 523l-5 33t-4 30q-4 -10 -13 -29.5l-16 -33.5l-141 -280h223zM465 771q-39 0 -67.5 10.5t-47 27.5t-27.5 40t-9 47q0 18 3 36h63q-1 -5 -1.5 -10t-0.5 -10q0 -41 23.5 -60t68.5 -19q21 0 41.5 7t37.5 19.5 t29 31t16 41.5h66q-6 -33 -20.5 -62.5t-38.5 -51.5t-58 -34.5t-78 -12.5z" glyph-name="Abreve" horiz-adv-x="657" unicode="Ă"/><glyph d="M379 0l7 42q-24 -20 -61 -37t-86 -17q-69 0 -108 40.5t-39 106.5q0 52 18.5 89.5t48 60.5t67 34t75.5 11q48 0 79.5 -12.5t49.5 -25.5l8 45q5 25 5 43q0 24 -7.5 40t-19 25.5t-26.5 13t-30 3.5q-21 0 -43.5 -5t-43.5 -13t-40.5 -17.5t-34.5 -19.5l-9 60q33 20 79 38 t97 18q25 0 50.5 -6.5t46.5 -22.5t34 -41.5t13 -64.5q0 -20 -5 -48l-60 -340h-65zM251 49q44 0 84.5 23.5t65.5 51.5l17 101q-15 12 -45.5 28t-72.5 16q-28 0 -53.5 -7t-45.5 -22.5t-32 -39.5t-12 -58q0 -40 23.5 -66.5t70.5 -26.5zM366 581q-39 0 -67.5 10.5t-47 27.5 t-27.5 40t-9 47q0 18 3 36h63q-1 -5 -1.5 -10t-0.5 -10q0 -41 23.5 -60t68.5 -19q21 0 41.5 7t37.5 19.5t29 31t16 41.5h66q-6 -33 -20.5 -62.5t-38.5 -51.5t-58 -34.5t-78 -12.5z" glyph-name="abreve" horiz-adv-x="532" unicode="ă"/><glyph d="M469 -234q-38 0 -64 20.5t-26 60.5q0 50 35 89.5t106 63.5l-29 181h-262l-91 -181h-74l356 700h56l113 -700q-43 -15 -71.5 -32t-46 -35t-24.5 -36t-7 -36q0 -24 13.5 -34.5t30.5 -10.5q20 0 33.5 7.5t22.5 15.5l32 -29q-17 -17 -42.5 -30.5t-60.5 -13.5zM439 523l-5 33 t-4 30q-4 -10 -13 -29.5l-16 -33.5l-141 -280h223z" glyph-name="Aogonek" horiz-adv-x="657" unicode="Ą"/><glyph d="M335 -234q-37 0 -63 20.5t-26 60.5q0 55 38 92t95 61l7 42q-24 -20 -61 -37t-86 -17q-69 0 -108 40.5t-39 106.5q0 52 18.5 89.5t48 60.5t67 34t75.5 11q48 0 79.5 -12.5t49.5 -25.5l8 45q5 25 5 43q0 24 -7.5 40t-19 25.5t-26.5 13t-30 3.5q-21 0 -43.5 -5t-43.5 -13 t-40.5 -17.5t-34.5 -19.5l-9 60q33 20 79 38t97 18q25 0 50.5 -6.5t46.5 -22.5t34 -41.5t13 -64.5q0 -20 -5 -48l-60 -340q-41 -16 -67.5 -34t-42 -36.5t-22 -36t-6.5 -32.5q0 -24 13.5 -34.5t30.5 -10.5q20 0 33.5 7.5t23.5 15.5l31 -29q-17 -17 -42.5 -30.5t-60.5 -13.5z M251 49q44 0 84.5 23.5t65.5 51.5l17 101q-15 12 -45.5 28t-72.5 16q-28 0 -53.5 -7t-45.5 -22.5t-32 -39.5t-12 -58q0 -40 23.5 -66.5t70.5 -26.5z" glyph-name="aogonek" horiz-adv-x="532" unicode="ą"/><glyph d="M367 -12q-62 0 -106.5 25t-73.5 66t-42.5 93t-13.5 106q0 82 23.5 160.5t68 139t109 97.5t147.5 37q39 0 70 -10.5t54.5 -26.5t39 -36.5t24.5 -39.5l-57 -32q-10 16 -22 31t-28.5 26.5t-38.5 18t-51 6.5q-66 0 -116 -33t-84 -85.5t-51.5 -117t-17.5 -127.5q0 -44 9.5 -86 t30.5 -75t53 -53.5t77 -20.5q59 0 97.5 25t69.5 65l57 -28q-15 -24 -36.5 -46.5t-49.5 -40t-63.5 -28t-78.5 -10.5zM483 766h-69l164 156h102z" glyph-name="Cacute" horiz-adv-x="639" unicode="Ć"/><glyph d="M265 -12q-37 0 -67.5 14.5t-52 41.5t-33.5 65t-12 86q0 75 18 135.5t50 103t77.5 66t100.5 23.5q56 0 96.5 -27.5t54.5 -79.5l-65 -25q-8 29 -30 49t-63 20q-44 0 -75.5 -22.5t-51.5 -60t-30 -85t-10 -97.5q0 -68 24 -106t75 -38q83 0 123 78l56 -24q-27 -54 -73 -85.5 t-112 -31.5zM364 576h-69l164 156h102z" glyph-name="cacute" horiz-adv-x="485" unicode="ć"/><glyph d="M367 -12q-62 0 -106.5 25t-73.5 66t-42.5 93t-13.5 106q0 82 23.5 160.5t68 139t109 97.5t147.5 37q39 0 70 -10.5t54.5 -26.5t39 -36.5t24.5 -39.5l-57 -32q-10 16 -22 31t-28.5 26.5t-38.5 18t-51 6.5q-66 0 -116 -33t-84 -85.5t-51.5 -117t-17.5 -127.5q0 -44 9.5 -86 t30.5 -75t53 -53.5t77 -20.5q59 0 97.5 25t69.5 65l57 -28q-15 -24 -36.5 -46.5t-49.5 -40t-63.5 -28t-78.5 -10.5zM605 766l-94 101l-129 -101h-62l162 156h77l109 -156h-63z" glyph-name="Ccircumflex" horiz-adv-x="639" unicode="Ĉ"/><glyph d="M265 -12q-37 0 -67.5 14.5t-52 41.5t-33.5 65t-12 86q0 75 18 135.5t50 103t77.5 66t100.5 23.5q56 0 96.5 -27.5t54.5 -79.5l-65 -25q-8 29 -30 49t-63 20q-44 0 -75.5 -22.5t-51.5 -60t-30 -85t-10 -97.5q0 -68 24 -106t75 -38q83 0 123 78l56 -24q-27 -54 -73 -85.5 t-112 -31.5zM475 576l-94 101l-129 -101h-62l162 156h77l109 -156h-63z" glyph-name="ccircumflex" horiz-adv-x="485" unicode="ĉ"/><glyph d="M367 -12q-62 0 -106.5 25t-73.5 66t-42.5 93t-13.5 106q0 82 23.5 160.5t68 139t109 97.5t147.5 37q39 0 70 -10.5t54.5 -26.5t39 -36.5t24.5 -39.5l-57 -32q-10 16 -22 31t-28.5 26.5t-38.5 18t-51 6.5q-66 0 -116 -33t-84 -85.5t-51.5 -117t-17.5 -127.5q0 -44 9.5 -86 t30.5 -75t53 -53.5t77 -20.5q59 0 97.5 25t69.5 65l57 -28q-15 -24 -36.5 -46.5t-49.5 -40t-63.5 -28t-78.5 -10.5zM502 796q-17 0 -27.5 11.5t-10.5 28.5q0 23 16.5 38.5t37.5 15.5q17 0 27.5 -11t10.5 -28q0 -23 -16 -39t-38 -16z" glyph-name="Cdotaccent" horiz-adv-x="639" unicode="Ċ"/><glyph d="M265 -12q-37 0 -67.5 14.5t-52 41.5t-33.5 65t-12 86q0 75 18 135.5t50 103t77.5 66t100.5 23.5q56 0 96.5 -27.5t54.5 -79.5l-65 -25q-8 29 -30 49t-63 20q-44 0 -75.5 -22.5t-51.5 -60t-30 -85t-10 -97.5q0 -68 24 -106t75 -38q83 0 123 78l56 -24q-27 -54 -73 -85.5 t-112 -31.5zM363 606q-17 0 -27.5 11.5t-10.5 28.5q0 23 16.5 38.5t37.5 15.5q17 0 27.5 -11t10.5 -28q0 -23 -16 -39t-38 -16z" glyph-name="cdotaccent" horiz-adv-x="485" unicode="ċ"/><glyph d="M367 -12q-62 0 -106.5 25t-73.5 66t-42.5 93t-13.5 106q0 82 23.5 160.5t68 139t109 97.5t147.5 37q39 0 70 -10.5t54.5 -26.5t39 -36.5t24.5 -39.5l-57 -32q-10 16 -22 31t-28.5 26.5t-38.5 18t-51 6.5q-66 0 -116 -33t-84 -85.5t-51.5 -117t-17.5 -127.5q0 -44 9.5 -86 t30.5 -75t53 -53.5t77 -20.5q59 0 97.5 25t69.5 65l57 -28q-15 -24 -36.5 -46.5t-49.5 -40t-63.5 -28t-78.5 -10.5zM531 766h-77l-108 156h62l94 -101l129 101h63z" glyph-name="Ccaron" horiz-adv-x="639" unicode="Č"/><glyph d="M265 -12q-37 0 -67.5 14.5t-52 41.5t-33.5 65t-12 86q0 75 18 135.5t50 103t77.5 66t100.5 23.5q56 0 96.5 -27.5t54.5 -79.5l-65 -25q-8 29 -30 49t-63 20q-44 0 -75.5 -22.5t-51.5 -60t-30 -85t-10 -97.5q0 -68 24 -106t75 -38q83 0 123 78l56 -24q-27 -54 -73 -85.5 t-112 -31.5zM394 576h-77l-108 156h62l94 -101l129 101h63z" glyph-name="ccaron" horiz-adv-x="485" unicode="č"/><glyph d="M233 700h177q71 0 120 -26.5t79 -68.5t43.5 -94t13.5 -103q0 -65 -17.5 -136.5t-61 -132t-117 -100t-184.5 -39.5h-176zM302 63q85 0 141.5 33.5t90.5 84.5t48 112t14 115q0 41 -10 82t-32 73.5t-57 53t-84 20.5h-121l-101 -574h111zM464 766h-77l-108 156h62l94 -101 l129 101h63z" glyph-name="Dcaron" horiz-adv-x="672" unicode="Ď"/><glyph d="M268 -12q-39 0 -70.5 16t-53 45t-33 70t-11.5 91q0 71 19 129t53.5 99t81.5 63t104 22q48 0 77.5 -17t44.5 -34l39 220l75 30l-127 -722h-70l7 43q-25 -26 -59 -40.5t-77 -14.5zM283 51q24 0 45.5 8t39 19.5t30.5 25.5t22 26l45 257q-5 12 -13.5 24.5t-22 23.5t-32 18 t-42.5 7q-44 0 -77.5 -18.5t-57 -52.5t-35.5 -80.5t-12 -101.5q0 -32 6.5 -60.5t20 -49.5t34 -33.5t49.5 -12.5zM789 712l-2 -8q-11 -61 -35 -116.5t-80 -103.5l-17 14q9 15 19 39.5t19 54t16.5 61t12.5 59.5h67z" glyph-name="dcaron" horiz-adv-x="721" unicode="ď"/><glyph d="M166 318h-66l11 62h66l56 320h177q68 0 116.5 -24.5t79.5 -65.5t45.5 -93.5t14.5 -108.5q0 -39 -7 -85t-23.5 -91t-44.5 -87t-70.5 -74.5t-100.5 -51.5t-134 -19h-176zM302 63q86 0 142.5 34t90.5 85.5t47.5 112t13.5 113.5q0 43 -10.5 84t-33 73t-57 52t-82.5 20h-121 l-45 -257h148l-11 -62h-148l-45 -255h111z" glyph-name="Dcroat" horiz-adv-x="672" unicode="Đ"/><glyph d="M565 553l-97 -553h-70l8 44q-28 -29 -61 -42.5t-77 -13.5q-39 0 -70 15.5t-52.5 43.5t-33.5 68t-12 89q0 61 18.5 113.5t52 90.5t80 59.5t102.5 21.5q45 0 74 -14.5t49 -33.5l20 112h-137l11 63h137l13 76l75 30l-19 -106h63l-11 -63h-63zM284 51q37 0 73.5 21t63.5 59 l39 221q-6 13 -15 26t-22.5 23.5t-31.5 17.5t-41 7q-42 0 -75.5 -16.5t-56 -46.5t-34.5 -71.5t-12 -90.5q0 -29 7 -56t21.5 -48t35.5 -33.5t48 -12.5z" glyph-name="dcroat" horiz-adv-x="561" unicode="đ"/><glyph d="M110 0l123 700h384l-10 -63h-315l-43 -243h213l-12 -63h-212l-47 -268h336l-11 -63h-406zM287 799l11 61h317l-11 -61h-317z" glyph-name="Emacron" horiz-adv-x="593" unicode="Ē"/><glyph d="M279 -12q-42 0 -75.5 16.5t-56.5 45.5t-35 68t-12 84q0 69 19 128t53 101.5t80 67t100 24.5q38 0 70 -10.5t55 -33.5t36 -58.5t13 -86.5q0 -33 -6 -58.5t-13 -48.5h-335v-14q0 -75 28.5 -117.5t86.5 -42.5q27 0 56.5 9t61.5 31l31 -51q-33 -25 -73 -39.5t-84 -14.5z M352 460q-37 0 -66 -15t-50 -39t-34.5 -54.5t-20.5 -61.5h270q7 27 7 50q0 36 -9.5 59t-24.5 36.5t-34 19t-38 5.5zM224 609l11 61h317l-11 -61h-317z" glyph-name="emacron" horiz-adv-x="528" unicode="ē"/><glyph d="M110 0l123 700h384l-10 -63h-315l-43 -243h213l-12 -63h-212l-47 -268h336l-11 -63h-406zM439 771q-39 0 -67.5 10.5t-47 27.5t-27.5 40t-9 47q0 18 3 36h63q-1 -5 -1.5 -10t-0.5 -10q0 -41 23.5 -60t68.5 -19q21 0 41.5 7t37.5 19.5t29 31t16 41.5h66 q-6 -33 -20.5 -62.5t-38.5 -51.5t-58 -34.5t-78 -12.5z" glyph-name="Ebreve" horiz-adv-x="593" unicode="Ĕ"/><glyph d="M279 -12q-42 0 -75.5 16.5t-56.5 45.5t-35 68t-12 84q0 69 19 128t53 101.5t80 67t100 24.5q38 0 70 -10.5t55 -33.5t36 -58.5t13 -86.5q0 -33 -6 -58.5t-13 -48.5h-335v-14q0 -75 28.5 -117.5t86.5 -42.5q27 0 56.5 9t61.5 31l31 -51q-33 -25 -73 -39.5t-84 -14.5z M352 460q-37 0 -66 -15t-50 -39t-34.5 -54.5t-20.5 -61.5h270q7 27 7 50q0 36 -9.5 59t-24.5 36.5t-34 19t-38 5.5zM391 581q-39 0 -67.5 10.5t-47 27.5t-27.5 40t-9 47q0 18 3 36h63q-1 -5 -1.5 -10t-0.5 -10q0 -41 23.5 -60t68.5 -19q21 0 41.5 7t37.5 19.5t29 31t16 41.5 h66q-6 -33 -20.5 -62.5t-38.5 -51.5t-58 -34.5t-78 -12.5z" glyph-name="ebreve" horiz-adv-x="528" unicode="ĕ"/><glyph d="M110 0l123 700h384l-10 -63h-315l-43 -243h213l-12 -63h-212l-47 -268h336l-11 -63h-406zM446 796q-17 0 -27.5 11.5t-10.5 28.5q0 23 16.5 38.5t37.5 15.5q17 0 27.5 -11t10.5 -28q0 -23 -16 -39t-38 -16z" glyph-name="Edotaccent" horiz-adv-x="593" unicode="Ė"/><glyph d="M279 -12q-42 0 -75.5 16.5t-56.5 45.5t-35 68t-12 84q0 69 19 128t53 101.5t80 67t100 24.5q38 0 70 -10.5t55 -33.5t36 -58.5t13 -86.5q0 -33 -6 -58.5t-13 -48.5h-335v-14q0 -75 28.5 -117.5t86.5 -42.5q27 0 56.5 9t61.5 31l31 -51q-33 -25 -73 -39.5t-84 -14.5z M352 460q-37 0 -66 -15t-50 -39t-34.5 -54.5t-20.5 -61.5h270q7 27 7 50q0 36 -9.5 59t-24.5 36.5t-34 19t-38 5.5zM388 606q-17 0 -27.5 11.5t-10.5 28.5q0 23 16.5 38.5t37.5 15.5q17 0 27.5 -11t10.5 -28q0 -23 -16 -39t-38 -16z" glyph-name="edotaccent" horiz-adv-x="528" unicode="ė"/><glyph d="M481 0q-28 0 -57 -12.5t-52.5 -32t-38.5 -44.5t-15 -50q0 -24 13.5 -34.5t30.5 -10.5q20 0 33.5 7.5t22.5 15.5l32 -29q-17 -17 -42.5 -30.5t-60.5 -13.5q-38 0 -64 20.5t-26 60.5q0 51 35.5 89.5t96.5 63.5h-278l123 700h383l-11 -67h-315l-42 -238h213l-12 -66h-213 l-46 -262h337l-12 -67h-35z" glyph-name="Eogonek" horiz-adv-x="593" unicode="Ę"/><glyph d="M437 42q-27 -21 -64.5 -37.5t-71.5 -35t-57.5 -44t-23.5 -64.5q0 -24 13.5 -34.5t30.5 -10.5q20 0 33.5 7.5t23.5 15.5l31 -29q-17 -17 -42.5 -30.5t-60.5 -13.5q-38 0 -64 20.5t-26 60.5q0 45 31 80t81 61q-41 2 -72.5 20t-53.5 46.5t-33 66.5t-11 81q0 69 19 128 t53 101.5t80 67t100 24.5q38 0 70 -10.5t55 -33.5t36 -58.5t13 -86.5q0 -33 -6 -58.5t-13 -48.5h-335v-14q0 -75 28.5 -117.5t86.5 -42.5q27 0 56.5 9t61.5 31zM353 460q-37 0 -66 -15t-50 -39t-34.5 -54.5t-20.5 -61.5h270q7 27 7 50q0 36 -9.5 59t-24.5 36.5t-34 19 t-38 5.5z" glyph-name="eogonek" horiz-adv-x="529" unicode="ę"/><glyph d="M110 0l123 700h384l-10 -63h-315l-43 -243h213l-12 -63h-212l-47 -268h336l-11 -63h-406zM480 766h-77l-108 156h62l94 -101l129 101h63z" glyph-name="Ecaron" horiz-adv-x="593" unicode="Ě"/><glyph d="M279 -12q-42 0 -75.5 16.5t-56.5 45.5t-35 68t-12 84q0 69 19 128t53 101.5t80 67t100 24.5q38 0 70 -10.5t55 -33.5t36 -58.5t13 -86.5q0 -33 -6 -58.5t-13 -48.5h-335v-14q0 -75 28.5 -117.5t86.5 -42.5q27 0 56.5 9t61.5 31l31 -51q-33 -25 -73 -39.5t-84 -14.5z M352 460q-37 0 -66 -15t-50 -39t-34.5 -54.5t-20.5 -61.5h270q7 27 7 50q0 36 -9.5 59t-24.5 36.5t-34 19t-38 5.5zM412 576h-77l-108 156h62l94 -101l129 101h63z" glyph-name="ecaron" horiz-adv-x="528" unicode="ě"/><glyph d="M364 -12q-61 0 -105 23.5t-72.5 62.5t-42 88.5t-13.5 101.5q0 83 21.5 163.5t65 143.5t108 102t151.5 39q43 0 75 -11t55.5 -27.5t38 -36.5t22.5 -38l-62 -33q-17 34 -50 58.5t-92 24.5q-65 0 -114 -34.5t-82 -88.5t-50 -121t-17 -132q0 -43 9.5 -83t29.5 -71t51.5 -49.5 t75.5 -18.5q74 0 123 47t63 127l7 42h-121l11 62h195l-16 -88q-12 -65 -36.5 -113t-59 -79t-77.5 -46t-92 -15zM589 766l-94 101l-129 -101h-62l162 156h77l109 -156h-63z" glyph-name="Gcircumflex" horiz-adv-x="679" unicode="Ĝ"/><glyph d="M176 -158q60 3 100 15.5t64 31t36 42t17 49.5l12 69q-19 -22 -51.5 -41.5t-84.5 -19.5q-40 0 -71.5 16t-53 44.5t-33 66.5t-11.5 83q0 72 18 131.5t51 102.5t78.5 67t100.5 24q35 0 69.5 -14t60.5 -46l9 48h68l-92 -519q-12 -65 -37 -104.5t-60.5 -61.5t-78.5 -29.5 t-91 -9.5zM287 51q21 0 41 7t37.5 19t32 27.5t23.5 32.5l43 245q-11 32 -41.5 55t-72.5 23q-44 0 -77 -21.5t-56 -56.5t-34.5 -81.5t-11.5 -95.5q0 -72 32 -113t84 -41zM486 576l-94 101l-129 -101h-62l162 156h77l109 -156h-63z" glyph-name="gcircumflex" horiz-adv-x="562" unicode="ĝ"/><glyph d="M364 -12q-61 0 -105 23.5t-72.5 62.5t-42 88.5t-13.5 101.5q0 83 21.5 163.5t65 143.5t108 102t151.5 39q43 0 75 -11t55.5 -27.5t38 -36.5t22.5 -38l-62 -33q-17 34 -50 58.5t-92 24.5q-65 0 -114 -34.5t-82 -88.5t-50 -121t-17 -132q0 -43 9.5 -83t29.5 -71t51.5 -49.5 t75.5 -18.5q74 0 123 47t63 127l7 42h-121l11 62h195l-16 -88q-12 -65 -36.5 -113t-59 -79t-77.5 -46t-92 -15zM484 771q-39 0 -67.5 10.5t-47 27.5t-27.5 40t-9 47q0 18 3 36h63q-1 -5 -1.5 -10t-0.5 -10q0 -41 23.5 -60t68.5 -19q21 0 41.5 7t37.5 19.5t29 31t16 41.5h66 q-6 -33 -20.5 -62.5t-38.5 -51.5t-58 -34.5t-78 -12.5z" glyph-name="Gbreve" horiz-adv-x="679" unicode="Ğ"/><glyph d="M176 -158q60 3 100 15.5t64 31t36 42t17 49.5l12 69q-19 -22 -51.5 -41.5t-84.5 -19.5q-40 0 -71.5 16t-53 44.5t-33 66.5t-11.5 83q0 72 18 131.5t51 102.5t78.5 67t100.5 24q35 0 69.5 -14t60.5 -46l9 48h68l-92 -519q-12 -65 -37 -104.5t-60.5 -61.5t-78.5 -29.5 t-91 -9.5zM287 51q21 0 41 7t37.5 19t32 27.5t23.5 32.5l43 245q-11 32 -41.5 55t-72.5 23q-44 0 -77 -21.5t-56 -56.5t-34.5 -81.5t-11.5 -95.5q0 -72 32 -113t84 -41zM381 581q-39 0 -67.5 10.5t-47 27.5t-27.5 40t-9 47q0 18 3 36h63q-1 -5 -1.5 -10t-0.5 -10 q0 -41 23.5 -60t68.5 -19q21 0 41.5 7t37.5 19.5t29 31t16 41.5h66q-6 -33 -20.5 -62.5t-38.5 -51.5t-58 -34.5t-78 -12.5z" glyph-name="gbreve" horiz-adv-x="562" unicode="ğ"/><glyph d="M364 -12q-61 0 -105 23.5t-72.5 62.5t-42 88.5t-13.5 101.5q0 83 21.5 163.5t65 143.5t108 102t151.5 39q43 0 75 -11t55.5 -27.5t38 -36.5t22.5 -38l-62 -33q-17 34 -50 58.5t-92 24.5q-65 0 -114 -34.5t-82 -88.5t-50 -121t-17 -132q0 -43 9.5 -83t29.5 -71t51.5 -49.5 t75.5 -18.5q74 0 123 47t63 127l7 42h-121l11 62h195l-16 -88q-12 -65 -36.5 -113t-59 -79t-77.5 -46t-92 -15zM489 796q-17 0 -27.5 11.5t-10.5 28.5q0 23 16.5 38.5t37.5 15.5q17 0 27.5 -11t10.5 -28q0 -23 -16 -39t-38 -16z" glyph-name="Gdotaccent" horiz-adv-x="679" unicode="Ġ"/><glyph d="M176 -158q60 3 100 15.5t64 31t36 42t17 49.5l12 69q-19 -22 -51.5 -41.5t-84.5 -19.5q-40 0 -71.5 16t-53 44.5t-33 66.5t-11.5 83q0 72 18 131.5t51 102.5t78.5 67t100.5 24q35 0 69.5 -14t60.5 -46l9 48h68l-92 -519q-12 -65 -37 -104.5t-60.5 -61.5t-78.5 -29.5 t-91 -9.5zM287 51q21 0 41 7t37.5 19t32 27.5t23.5 32.5l43 245q-11 32 -41.5 55t-72.5 23q-44 0 -77 -21.5t-56 -56.5t-34.5 -81.5t-11.5 -95.5q0 -72 32 -113t84 -41zM376 606q-17 0 -27.5 11.5t-10.5 28.5q0 23 16.5 38.5t37.5 15.5q17 0 27.5 -11t10.5 -28 q0 -23 -16 -39t-38 -16z" glyph-name="gdotaccent" horiz-adv-x="562" unicode="ġ"/><glyph d="M364 -12q-61 0 -105 23.5t-72.5 62.5t-42 88.5t-13.5 101.5q0 83 21.5 163.5t65 143.5t108 102t151.5 39q43 0 75 -11t55.5 -27.5t38 -36.5t22.5 -38l-62 -33q-17 34 -50 58.5t-92 24.5q-65 0 -114 -34.5t-82 -88.5t-50 -121t-17 -132q0 -43 9.5 -83t29.5 -71t51.5 -49.5 t75.5 -18.5q74 0 123 47t63 127l7 42h-121l11 62h195l-16 -88q-12 -65 -36.5 -113t-59 -79t-77.5 -46t-92 -15zM276 -239q4 3 11 9t14.5 15.5t14.5 22t11 27.5q-23 0 -33.5 13t-10.5 30q0 29 20 46.5t41 17.5q17 0 29.5 -13t12.5 -36q0 -36 -21.5 -72.5t-71.5 -64.5z" glyph-name="Gcommaaccent" horiz-adv-x="679" unicode="Ģ"/><glyph d="M176 -158q60 3 100 15.5t64.5 31t36 42t16.5 49.5l14 78q-26 -32 -60.5 -51t-85.5 -19q-34 0 -63.5 13.5t-51 39.5t-34 64t-12.5 88q0 76 20.5 137t55.5 104t82 66t101 23q28 0 48.5 -6.5t34.5 -16t23 -20t14 -17.5l8 48h68l-89 -503q-11 -63 -37.5 -104.5t-63 -67 t-80.5 -36.5t-89 -13zM287 51q15 0 33 6t36 17t35 26.5t30 35.5l43 246q-7 19 -19 33.5t-26.5 24.5t-30.5 15t-29 5q-47 0 -82 -19t-58.5 -53t-35.5 -81t-12 -102q0 -72 32 -113t84 -41zM458 784q-4 -3 -11 -9t-14.5 -15.5t-14.5 -22t-11 -27.5q22 0 33 -13.5t11 -29.5 q0 -32 -18.5 -48t-39.5 -16q-20 0 -33.5 13.5t-13.5 42.5q0 31 22 67t70 64z" glyph-name="gcommaaccent" horiz-adv-x="562" unicode="ģ"/><glyph d="M110 0l123 700h70l-53 -303h328l53 303h70l-123 -700h-70l58 331h-327l-58 -331h-71zM586 766l-94 101l-129 -101h-62l162 156h77l109 -156h-63z" glyph-name="Hcircumflex" horiz-adv-x="686" unicode="Ĥ"/><glyph d="M400 0l55 312q2 14 3.5 25.5t1.5 22.5q0 54 -26 77t-67 23q-26 0 -49.5 -7t-42.5 -24t-33.5 -45t-21.5 -70l-55 -314h-70l122 692l75 30l-48 -269q29 34 63.5 52t76.5 18q72 0 107.5 -35.5t35.5 -113.5q0 -40 -9 -91l-50 -283h-68zM510 765l-94 101l-129 -101h-62 l162 156h77l109 -156h-63z" glyph-name="hcircumflex" horiz-adv-x="560" unicode="ĥ"/><glyph d="M508 0l58 331h-327l-59 -331h-70l93 532h-85l11 66h86l18 102h70l-18 -102h328l18 102h70l-18 -102h87l-11 -66h-87l-94 -532h-70zM578 397l24 135h-328l-24 -135h328z" glyph-name="Hbar" horiz-adv-x="686" unicode="Ħ"/><glyph d="M400 0l49 278q2 14 3.5 25.5t1.5 22.5q0 54 -25.5 77t-66.5 23q-26 0 -49.5 -7t-43 -24t-34 -45t-21.5 -70l-49 -280h-70l98 553h-62l11 63h62l13 76l75 30l-19 -106h151l-11 -63h-151l-24 -134q58 70 141 70q72 0 107 -35t35 -113q0 -40 -9 -92l-44 -249h-68z" glyph-name="hbar" horiz-adv-x="560" unicode="ħ"/><glyph d="M110 0l123 700h70l-123 -700h-70zM359 792q-26 0 -45.5 8t-37 17l-33.5 17t-34 8t-33 -11.5t-20 -34.5h-37q9 53 35.5 81.5t72.5 28.5q25 0 45 -8t37 -17.5t33 -17.5t34 -8t33.5 12t21.5 35h36q-10 -53 -36.5 -81.5t-71.5 -28.5z" glyph-name="Itilde" horiz-adv-x="290" unicode="Ĩ"/><glyph d="M95 0l90 511h67l-90 -511h-67zM309 602q-26 0 -45.5 8t-37 17l-33.5 17t-34 8t-33 -11.5t-20 -34.5h-37q9 53 35.5 81.5t72.5 28.5q25 0 45 -8t37 -17.5t33 -17.5t34 -8t33.5 12t21.5 35h36q-10 -53 -36.5 -81.5t-71.5 -28.5z" glyph-name="itilde" horiz-adv-x="261" unicode="ĩ"/><glyph d="M110 0l123 700h70l-123 -700h-70zM128 799l11 61h317l-11 -61h-317z" glyph-name="Imacron" horiz-adv-x="290" unicode="Ī"/><glyph d="M95 0l90 511h67l-90 -511h-67zM75 609l11 61h317l-11 -61h-317z" glyph-name="imacron" horiz-adv-x="261" unicode="ī"/><glyph d="M110 0l123 700h70l-123 -700h-70zM287 771q-39 0 -67.5 10.5t-47 27.5t-27.5 40t-9 47q0 18 3 36h63q-1 -5 -1.5 -10t-0.5 -10q0 -41 23.5 -60t68.5 -19q21 0 41.5 7t37.5 19.5t29 31t16 41.5h66q-6 -33 -20.5 -62.5t-38.5 -51.5t-58 -34.5t-78 -12.5z" glyph-name="Ibreve" horiz-adv-x="290" unicode="Ĭ"/><glyph d="M95 0l90 511h67l-90 -511h-67zM235 581q-39 0 -67.5 10.5t-47 27.5t-27.5 40t-9 47q0 18 3 36h63q-1 -5 -1.5 -10t-0.5 -10q0 -41 23.5 -60t68.5 -19q21 0 41.5 7t37.5 19.5t29 31t16 41.5h66q-6 -33 -20.5 -62.5t-38.5 -51.5t-58 -34.5t-78 -12.5z" glyph-name="ibreve" horiz-adv-x="261" unicode="ĭ"/><glyph d="M67 -234q-38 0 -64 20.5t-26 60.5q0 28 11 51.5t29 42.5t42.5 33.5t51.5 25.5l123 700h68l-123 -700q-68 -23 -105 -60.5t-37 -78.5q0 -24 13.5 -34.5t30.5 -10.5q20 0 34 7.5t23 15.5l32 -29q-17 -17 -42.5 -30.5t-60.5 -13.5z" glyph-name="Iogonek" horiz-adv-x="290" unicode="Į"/><glyph d="M54 -234q-38 0 -64 20.5t-26 60.5q0 28 10.5 51.5t28.5 42.5t42.5 33.5t52.5 25.5l90 511h68l-90 -511q-69 -23 -105 -60.5t-36 -78.5q0 -24 13.5 -34.5t30.5 -10.5q20 0 33.5 7.5t23.5 15.5l31 -29q-17 -17 -42.5 -30.5t-60.5 -13.5zM241 616q-17 0 -27.5 11t-10.5 28 q0 23 16.5 39t37.5 16q17 0 27.5 -11.5t10.5 -28.5q0 -23 -17 -38.5t-37 -15.5z" glyph-name="iogonek" horiz-adv-x="263" unicode="į"/><glyph d="M110 0l123 700h70l-123 -700h-70zM284 796q-17 0 -27.5 11.5t-10.5 28.5q0 23 16.5 38.5t37.5 15.5q17 0 27.5 -11t10.5 -28q0 -23 -16 -39t-38 -16z" glyph-name="Idotaccent" horiz-adv-x="290" unicode="İ"/><glyph d="M110 0l123 700h70l-123 -700h-70zM504 -12q-63 0 -106.5 35t-60.5 86l58 24q12 -32 37.5 -57t72.5 -25q30 0 55 8.5t44.5 28.5t34 52.5t23.5 81.5l84 478h70l-85 -483q-14 -77 -39.5 -122.5t-57 -69t-65.5 -30.5t-65 -7z" glyph-name="IJ" horiz-adv-x="825" unicode="Ĳ"/><glyph d="M95 0l90 511h70l-90 -511h-70zM239 616q-17 0 -28 11t-11 28q0 23 16 39t36 16q19 0 29.5 -11t10.5 -28q0 -23 -16.5 -39t-36.5 -16zM201 -158q36 3 59.5 10.5t38.5 19.5t22.5 29t11.5 39l101 571h70l-102 -578q-8 -45 -25.5 -73.5t-41.5 -44.5t-53 -22.5t-59 -8.5z M489 616q-17 0 -28 11t-11 28q0 23 16 39t36 16q19 0 29.5 -11t10.5 -28q0 -23 -16.5 -39t-36.5 -16z" glyph-name="ij" horiz-adv-x="516" unicode="ĳ"/><glyph d="M235 -12q-63 0 -106.5 35t-60.5 86l58 24q12 -32 37.5 -57t72.5 -25q30 0 55 8.5t44.5 28.5t34 52.5t23.5 81.5l84 478h70l-85 -483q-14 -77 -39.5 -122.5t-57 -69t-65.5 -30.5t-65 -7zM630 766l-94 101l-129 -101h-62l162 156h77l109 -156h-63z" glyph-name="Jcircumflex" horiz-adv-x="536" unicode="Ĵ"/><glyph d="M-46 -158q36 3 59.5 10.5t38.5 19.5t22.5 29t11.5 39l101 571h70l-102 -578q-8 -45 -25.5 -73.5t-41.5 -44.5t-53 -22.5t-59 -8.5zM342 576l-94 101l-129 -101h-62l162 156h77l109 -156h-63z" glyph-name="jcircumflex" horiz-adv-x="269" unicode="ĵ"/><glyph d="M501 0l-139 399l-138 -147l-44 -252h-70l123 700h70l-60 -342l321 342h82l-232 -246l159 -454h-72zM260 -239q4 3 11 9t14.5 15.5t14.5 22t11 27.5q-23 0 -33.5 13t-10.5 30q0 29 20 46.5t41 17.5q17 0 29.5 -13t12.5 -36q0 -36 -21.5 -72.5t-71.5 -64.5z" glyph-name="Kcommaaccent" horiz-adv-x="638" unicode="Ķ"/><glyph d="M358 368l122 -368h-78l-97 318l-101 -93l-39 -225h-70l122 692l75 30l-72 -406l211 195h82zM202 -239q4 3 11 9t14.5 15.5t14.5 22t11 27.5q-23 0 -33.5 13t-10.5 30q0 29 20 46.5t41 17.5q17 0 29.5 -13t12.5 -36q0 -36 -21.5 -72.5t-71.5 -64.5z" glyph-name="kcommaaccent" horiz-adv-x="513" unicode="ķ"/><glyph d="M416 0l-91 264l-141 -149l-20 -115h-67l90 511h67l-53 -303l282 303h75l-176 -188l111 -323h-77z" glyph-name="kgreenlandic" horiz-adv-x="522" unicode="ĸ"/><glyph d="M110 0l123 700h70l-111 -633h332l-12 -67h-402zM311 766h-69l164 156h102z" glyph-name="Lacute" horiz-adv-x="561" unicode="Ĺ"/><glyph d="M100 0l122 692l75 30l-127 -722h-70zM262 756h-69l164 156h102z" glyph-name="lacute" horiz-adv-x="271" unicode="ĺ"/><glyph d="M110 0l123 700h70l-111 -633h332l-12 -67h-402zM238 -239q4 3 11 9t14.5 15.5t14.5 22t11 27.5q-23 0 -33.5 13t-10.5 30q0 29 20 46.5t41 17.5q17 0 29.5 -13t12.5 -36q0 -36 -21.5 -72.5t-71.5 -64.5z" glyph-name="Lcommaaccent" horiz-adv-x="561" unicode="Ļ"/><glyph d="M100 0l122 692l75 30l-127 -722h-70zM57 -239q4 3 11 9t14.5 15.5t14.5 22t11 27.5q-23 0 -33.5 13t-10.5 30q0 29 20 46.5t41 17.5q17 0 29.5 -13t12.5 -36q0 -36 -21.5 -72.5t-71.5 -64.5z" glyph-name="lcommaaccent" horiz-adv-x="271" unicode="ļ"/><glyph d="M110 0l123 700h70l-111 -633h332l-12 -67h-402zM314 766h-77l-108 156h62l94 -101l129 101h63z" glyph-name="Lcaron" horiz-adv-x="561" unicode="Ľ"/><glyph d="M100 0l122 692l75 30l-127 -722h-70zM502 712l-2 -8q-11 -61 -35 -116.5t-80 -103.5l-17 14q9 15 19 39.5t19 54t16.5 61t12.5 59.5h67z" glyph-name="lcaron" horiz-adv-x="434" unicode="ľ"/><glyph d="M110 0l123 700h70l-111 -633h332l-12 -67h-402zM450 301q-17 0 -27.5 11.5t-10.5 28.5q0 23 16.5 38.5t37.5 15.5q17 0 27.5 -11t10.5 -28q0 -23 -16 -39t-38 -16z" glyph-name="Ldot" horiz-adv-x="561" unicode="Ŀ"/><glyph d="M100 0l122 692l75 30l-127 -722h-70zM396 267q-17 0 -27.5 11.5t-10.5 28.5q0 23 16.5 38.5t37.5 15.5q17 0 27.5 -11t10.5 -28q0 -23 -16 -39t-38 -16z" glyph-name="ldot" horiz-adv-x="477" unicode="ŀ"/><glyph d="M518 0l-208 498q-2 4 -7 15.5t-10 24.5l-13 32q-3 -17 -6 -32q-2 -13 -4 -24.5t-3 -16.5l-87 -497h-70l123 700h65l225 -539q1 -2 3.5 -8t5.5 -14q4 -9 8 -19q1 9 3 17q2 7 2.5 13.5t1.5 9.5l95 540h70l-123 -700h-71zM510 766h-69l164 156h102z" glyph-name="Nacute" horiz-adv-x="697" unicode="Ń"/><glyph d="M400 0l54 308q5 28 5 47q0 50 -23.5 77.5t-69.5 27.5q-26 0 -50.5 -11t-44 -30.5t-33 -47.5t-19.5 -61l-54 -310h-70l90 511h70l-10 -56q28 33 63.5 50.5t73.5 17.5q69 0 107 -40t38 -123q0 -17 -1.5 -36.5t-5.5 -40.5l-50 -283h-70zM390 576h-69l164 156h102z" glyph-name="nacute" horiz-adv-x="560" unicode="ń"/><glyph d="M518 0l-208 498q-2 4 -7 15.5t-10 24.5l-13 32q-3 -17 -6 -32q-2 -13 -4 -24.5t-3 -16.5l-87 -497h-70l123 700h65l225 -539q1 -2 3.5 -8t5.5 -14q4 -9 8 -19q1 9 3 17q2 7 2.5 13.5t1.5 9.5l95 540h70l-123 -700h-71zM281 -239q4 3 11 9t14.5 15.5t14.5 22t11 27.5 q-23 0 -33.5 13t-10.5 30q0 29 20 46.5t41 17.5q17 0 29.5 -13t12.5 -36q0 -36 -21.5 -72.5t-71.5 -64.5z" glyph-name="Ncommaaccent" horiz-adv-x="697" unicode="Ņ"/><glyph d="M400 0l54 308q5 28 5 47q0 50 -23.5 77.5t-69.5 27.5q-26 0 -50.5 -11t-44 -30.5t-33 -47.5t-19.5 -61l-54 -310h-70l90 511h70l-10 -56q28 33 63.5 50.5t73.5 17.5q69 0 107 -40t38 -123q0 -17 -1.5 -36.5t-5.5 -40.5l-50 -283h-70zM202 -239q4 3 11 9t14.5 15.5 t14.5 22t11 27.5q-23 0 -33.5 13t-10.5 30q0 29 20 46.5t41 17.5q17 0 29.5 -13t12.5 -36q0 -36 -21.5 -72.5t-71.5 -64.5z" glyph-name="ncommaaccent" horiz-adv-x="560" unicode="ņ"/><glyph d="M518 0l-208 498q-2 4 -7 15.5t-10 24.5l-13 32q-3 -17 -6 -32q-2 -13 -4 -24.5t-3 -16.5l-87 -497h-70l123 700h65l225 -539q1 -2 3.5 -8t5.5 -14q4 -9 8 -19q1 9 3 17q2 7 2.5 13.5t1.5 9.5l95 540h70l-123 -700h-71zM528 766h-77l-108 156h62l94 -101l129 101h63z" glyph-name="Ncaron" horiz-adv-x="697" unicode="Ň"/><glyph d="M400 0l54 308q5 28 5 47q0 50 -23.5 77.5t-69.5 27.5q-26 0 -50.5 -11t-44 -30.5t-33 -47.5t-19.5 -61l-54 -310h-70l90 511h70l-10 -56q28 33 63.5 50.5t73.5 17.5q69 0 107 -40t38 -123q0 -17 -1.5 -36.5t-5.5 -40.5l-50 -283h-70zM431 576h-77l-108 156h62l94 -101 l129 101h63z" glyph-name="ncaron" horiz-adv-x="560" unicode="ň"/><glyph d="M595 0l54 308q5 28 5 47q0 50 -23.5 77.5t-69.5 27.5q-26 0 -50.5 -11t-44 -30.5t-33 -47.5t-19.5 -61l-54 -310h-70l90 511h70l-10 -56q28 33 63.5 50.5t73.5 17.5q69 0 107 -40t38 -123q0 -17 -1.5 -36.5t-5.5 -40.5l-50 -283h-70zM163 467q7 6 17.5 16.5t20.5 25.5 t18.5 34t12.5 41q-28 0 -44 15t-16 38q0 34 21.5 54.5t49.5 20.5q22 0 39 -16t17 -49q0 -60 -34.5 -108t-84.5 -77z" glyph-name="napostrophe" horiz-adv-x="776" unicode="ŉ"/><glyph d="M371 -186q36 3 59.5 10.5t38.5 19.5t22.5 29t11.5 39l15 88l-208 498q-1 3 -5.5 14t-10 23t-9.5 22.5t-5 12.5q0 -2 -2 -12.5t-4 -22.5l-4 -23t-3 -15l-87 -497h-70l123 700h65l225 -539q1 -3 3.5 -8.5t5 -12t5 -12t3.5 -8.5q1 5 3.5 20t3.5 20l95 540h70l-140 -795 q-8 -47 -26 -75t-43 -44q-24 -15 -52 -21.5t-58 -8.5z" glyph-name="Eng" horiz-adv-x="697" unicode="Ŋ"/><glyph d="M256 -158q36 3 59.5 10.5t38.5 19.5t22.5 29t11.5 38l65 368q2 14 3.5 26.5t1.5 21.5q0 53 -25 79t-68 26q-24 0 -48 -10t-43.5 -29t-34.5 -47t-21 -64l-54 -310h-70l90 511h70l-10 -56q29 35 64.5 51.5t72.5 16.5q74 0 109.5 -42.5t35.5 -120.5q0 -17 -1.5 -37t-5.5 -40 l-62 -350q-12 -68 -52 -106t-127 -43z" glyph-name="eng" horiz-adv-x="559" unicode="ŋ"/><glyph d="M362 51q70 0 122 36t85.5 92.5t50 124.5t16.5 132q0 39 -8.5 77.5t-28 68.5t-50 48.5t-74.5 18.5q-71 0 -122.5 -36t-85.5 -92.5t-50.5 -124.5t-16.5 -132q0 -42 9 -80.5t28.5 -68t50 -47t74.5 -17.5zM362 -12q-62 0 -106 23t-72 61t-41 88t-13 104q0 75 20.5 154 t63.5 144.5t107.5 107.5t153.5 42q63 0 107 -24t71.5 -63t40 -88.5t12.5 -100.5q0 -75 -20.5 -154t-63 -144.5t-107.5 -107.5t-153 -42zM338 799l11 61h317l-11 -61h-317z" glyph-name="Omacron" horiz-adv-x="712" unicode="Ō"/><glyph d="M279 -12q-48 0 -82.5 17.5t-56.5 46t-32 66t-10 78.5q0 55 16 113t48 105.5t80.5 78t114.5 30.5q49 0 83.5 -18t56.5 -47.5t31.5 -67t9.5 -75.5q0 -55 -15.5 -113t-47.5 -105.5t-81 -78t-115 -30.5zM279 51q48 0 84 24.5t59 63t34.5 85.5t11.5 91q0 27 -6 53t-19 46.5 t-34.5 33t-51.5 12.5q-48 0 -83.5 -24.5t-59 -63t-35 -85t-11.5 -91.5q0 -28 6 -54t19.5 -46.5t34.5 -32.5t51 -12zM220 609l11 61h317l-11 -61h-317z" glyph-name="omacron" horiz-adv-x="547" unicode="ō"/><glyph d="M362 51q70 0 122 36t85.5 92.5t50 124.5t16.5 132q0 39 -8.5 77.5t-28 68.5t-50 48.5t-74.5 18.5q-71 0 -122.5 -36t-85.5 -92.5t-50.5 -124.5t-16.5 -132q0 -42 9 -80.5t28.5 -68t50 -47t74.5 -17.5zM362 -12q-62 0 -106 23t-72 61t-41 88t-13 104q0 75 20.5 154 t63.5 144.5t107.5 107.5t153.5 42q63 0 107 -24t71.5 -63t40 -88.5t12.5 -100.5q0 -75 -20.5 -154t-63 -144.5t-107.5 -107.5t-153 -42zM499 771q-39 0 -67.5 10.5t-47 27.5t-27.5 40t-9 47q0 18 3 36h63q-1 -5 -1.5 -10t-0.5 -10q0 -41 23.5 -60t68.5 -19q21 0 41.5 7 t37.5 19.5t29 31t16 41.5h66q-6 -33 -20.5 -62.5t-38.5 -51.5t-58 -34.5t-78 -12.5z" glyph-name="Obreve" horiz-adv-x="712" unicode="Ŏ"/><glyph d="M279 -12q-48 0 -82.5 17.5t-56.5 46t-32 66t-10 78.5q0 55 16 113t48 105.5t80.5 78t114.5 30.5q49 0 83.5 -18t56.5 -47.5t31.5 -67t9.5 -75.5q0 -55 -15.5 -113t-47.5 -105.5t-81 -78t-115 -30.5zM279 51q48 0 84 24.5t59 63t34.5 85.5t11.5 91q0 27 -6 53t-19 46.5 t-34.5 33t-51.5 12.5q-48 0 -83.5 -24.5t-59 -63t-35 -85t-11.5 -91.5q0 -28 6 -54t19.5 -46.5t34.5 -32.5t51 -12zM379 581q-39 0 -67.5 10.5t-47 27.5t-27.5 40t-9 47q0 18 3 36h63q-1 -5 -1.5 -10t-0.5 -10q0 -41 23.5 -60t68.5 -19q21 0 41.5 7t37.5 19.5t29 31t16 41.5 h66q-6 -33 -20.5 -62.5t-38.5 -51.5t-58 -34.5t-78 -12.5z" glyph-name="obreve" horiz-adv-x="547" unicode="ŏ"/><glyph d="M362 51q70 0 122 36t85.5 92.5t50 124.5t16.5 132q0 39 -8.5 77.5t-28 68.5t-50 48.5t-74.5 18.5q-71 0 -122.5 -36t-85.5 -92.5t-50.5 -124.5t-16.5 -132q0 -42 9 -80.5t28.5 -68t50 -47t74.5 -17.5zM362 -12q-62 0 -106 23t-72 61t-41 88t-13 104q0 75 20.5 154 t63.5 144.5t107.5 107.5t153.5 42q63 0 107 -24t71.5 -63t40 -88.5t12.5 -100.5q0 -75 -20.5 -154t-63 -144.5t-107.5 -107.5t-153 -42zM419 766h-68l163 156h103zM609 766h-68l163 156h44h59z" glyph-name="Ohungarumlaut" horiz-adv-x="712" unicode="Ő"/><glyph d="M279 -12q-48 0 -82.5 17.5t-56.5 46t-32 66t-10 78.5q0 55 16 113t48 105.5t80.5 78t114.5 30.5q49 0 83.5 -18t56.5 -47.5t31.5 -67t9.5 -75.5q0 -55 -15.5 -113t-47.5 -105.5t-81 -78t-115 -30.5zM279 51q48 0 84 24.5t59 63t34.5 85.5t11.5 91q0 27 -6 53t-19 46.5 t-34.5 33t-51.5 12.5q-48 0 -83.5 -24.5t-59 -63t-35 -85t-11.5 -91.5q0 -28 6 -54t19.5 -46.5t34.5 -32.5t51 -12zM302 576h-68l163 156h103zM492 576h-68l163 156h44h59z" glyph-name="ohungarumlaut" horiz-adv-x="547" unicode="ő"/><glyph d="M654 525q0 -36 -11.5 -71t-36 -63.5t-62.5 -47.5t-90 -25l111 -318h-72l-109 315h-149l-55 -315h-70l123 700h220q58 0 96.5 -16.5t62 -42t33 -56.5t9.5 -60zM419 378q49 0 81 13.5t51.5 34.5t27.5 47t8 50q0 20 -6 40t-21.5 36.5t-41 27t-64.5 10.5h-162l-45 -259h172z M450 766h-69l164 156h102z" glyph-name="Racute" horiz-adv-x="653" unicode="Ŕ"/><glyph d="M95 0l90 511h70l-13 -72q35 45 74 64.5t71 19.5q39 0 60 -21l-22 -68q-9 6 -23 12.5t-38 6.5q-17 0 -39 -8t-43.5 -27t-39.5 -50.5t-26 -78.5l-51 -289h-70zM338 576h-69l164 156h102z" glyph-name="racute" horiz-adv-x="393" unicode="ŕ"/><glyph d="M654 525q0 -36 -11.5 -71t-36 -63.5t-62.5 -47.5t-90 -25l111 -318h-72l-109 315h-149l-55 -315h-70l123 700h220q58 0 96.5 -16.5t62 -42t33 -56.5t9.5 -60zM419 378q49 0 81 13.5t51.5 34.5t27.5 47t8 50q0 20 -6 40t-21.5 36.5t-41 27t-64.5 10.5h-162l-45 -259h172z M249 -239q4 3 11 9t14.5 15.5t14.5 22t11 27.5q-23 0 -33.5 13t-10.5 30q0 29 20 46.5t41 17.5q17 0 29.5 -13t12.5 -36q0 -36 -21.5 -72.5t-71.5 -64.5z" glyph-name="Rcommaaccent" horiz-adv-x="653" unicode="Ŗ"/><glyph d="M95 0l90 511h70l-13 -72q35 45 74 64.5t71 19.5q39 0 60 -21l-22 -68q-9 6 -23 12.5t-38 6.5q-17 0 -39 -8t-43.5 -27t-39.5 -50.5t-26 -78.5l-51 -289h-70zM45 -259q4 3 11 9t14.5 15.5t14.5 22t11 27.5q-23 0 -33.5 13t-10.5 30q0 29 20 46.5t41 17.5q17 0 29.5 -13 t12.5 -36q0 -36 -21.5 -72.5t-71.5 -64.5z" glyph-name="rcommaaccent" horiz-adv-x="393" unicode="ŗ"/><glyph d="M654 525q0 -36 -11.5 -71t-36 -63.5t-62.5 -47.5t-90 -25l111 -318h-72l-109 315h-149l-55 -315h-70l123 700h220q58 0 96.5 -16.5t62 -42t33 -56.5t9.5 -60zM419 378q49 0 81 13.5t51.5 34.5t27.5 47t8 50q0 20 -6 40t-21.5 36.5t-41 27t-64.5 10.5h-162l-45 -259h172z M493 766h-77l-108 156h62l94 -101l129 101h63z" glyph-name="Rcaron" horiz-adv-x="653" unicode="Ř"/><glyph d="M95 0l90 511h70l-13 -72q35 45 74 64.5t71 19.5q39 0 60 -21l-22 -68q-9 6 -23 12.5t-38 6.5q-17 0 -39 -8t-43.5 -27t-39.5 -50.5t-26 -78.5l-51 -289h-70zM378 576h-77l-108 156h62l94 -101l129 101h63z" glyph-name="rcaron" horiz-adv-x="393" unicode="ř"/><glyph d="M517 578q-15 29 -43 50t-80 21q-65 0 -102 -31.5t-37 -81.5q0 -37 21.5 -60t53.5 -41.5t70 -35.5t70 -41.5t53.5 -60.5t21.5 -91q0 -54 -18.5 -95t-51 -68t-76 -41t-94.5 -14q-41 0 -74.5 11t-59.5 30.5t-44 45t-26 55.5l64 25q38 -104 146 -104q75 0 118.5 38t43.5 111 q0 42 -21.5 69.5t-53.5 48t-69 38.5t-69 40.5t-53.5 54t-21.5 79.5q0 39 15 72.5t43 57.5t67.5 38t88.5 14q36 0 65.5 -9t52.5 -23.5t38.5 -34t23.5 -40.5zM419 766h-69l164 156h102z" glyph-name="Sacute" horiz-adv-x="591" unicode="Ś"/><glyph d="M415 407q-16 20 -43 37t-72 17q-43 0 -71.5 -21t-28.5 -56q0 -25 17 -41t42.5 -29.5t55 -26.5t55 -32.5t42.5 -47.5t17 -71q0 -67 -49.5 -107.5t-131.5 -40.5q-60 0 -101.5 25.5t-66.5 63.5l53 42q18 -28 48.5 -48.5t68.5 -20.5q45 0 77.5 22t32.5 65q0 27 -16.5 45.5 t-42 33t-54.5 27.5t-54.5 31.5t-42 43.5t-16.5 64q0 33 13 59t35.5 44.5t53 28t65.5 9.5q59 0 99.5 -20.5t63.5 -57.5zM336 576h-69l164 156h102z" glyph-name="sacute" horiz-adv-x="466" unicode="ś"/><glyph d="M517 578q-15 29 -43 50t-80 21q-65 0 -102 -31.5t-37 -81.5q0 -37 21.5 -60t53.5 -41.5t70 -35.5t70 -41.5t53.5 -60.5t21.5 -91q0 -54 -18.5 -95t-51 -68t-76 -41t-94.5 -14q-41 0 -74.5 11t-59.5 30.5t-44 45t-26 55.5l64 25q38 -104 146 -104q75 0 118.5 38t43.5 111 q0 42 -21.5 69.5t-53.5 48t-69 38.5t-69 40.5t-53.5 54t-21.5 79.5q0 39 15 72.5t43 57.5t67.5 38t88.5 14q36 0 65.5 -9t52.5 -23.5t38.5 -34t23.5 -40.5zM531 766l-94 101l-129 -101h-62l162 156h77l109 -156h-63z" glyph-name="Scircumflex" horiz-adv-x="591" unicode="Ŝ"/><glyph d="M415 407q-16 20 -43 37t-72 17q-43 0 -71.5 -21t-28.5 -56q0 -25 17 -41t42.5 -29.5t55 -26.5t55 -32.5t42.5 -47.5t17 -71q0 -67 -49.5 -107.5t-131.5 -40.5q-60 0 -101.5 25.5t-66.5 63.5l53 42q18 -28 48.5 -48.5t68.5 -20.5q45 0 77.5 22t32.5 65q0 27 -16.5 45.5 t-42 33t-54.5 27.5t-54.5 31.5t-42 43.5t-16.5 64q0 33 13 59t35.5 44.5t53 28t65.5 9.5q59 0 99.5 -20.5t63.5 -57.5zM446 576l-94 101l-129 -101h-62l162 156h77l109 -156h-63z" glyph-name="scircumflex" horiz-adv-x="466" unicode="ŝ"/><glyph d="M279 -11q-71 7 -117 46.5t-61 94.5l64 25q38 -104 146 -104q75 0 118.5 38t43.5 111q0 42 -21.5 69.5t-53.5 48t-69 38.5t-69 40.5t-53.5 54t-21.5 79.5q0 39 15 72.5t43 57.5t67.5 38t88.5 14q36 0 65.5 -9t52.5 -23.5t38.5 -34t23.5 -40.5l-62 -27q-15 29 -43 50 t-80 21q-65 0 -102 -31.5t-37 -81.5q0 -37 21.5 -60t53.5 -41.5t70 -35.5t70 -41.5t53.5 -60.5t21.5 -91q0 -52 -17 -91.5t-47 -67t-70.5 -42.5t-88.5 -17l-33 -43q49 0 68.5 -22t19.5 -50q0 -50 -34.5 -78.5t-85.5 -28.5q-32 0 -51.5 11t-30.5 25l45 27q5 -5 12.5 -10 t24.5 -5q22 0 39.5 15t17.5 38q0 21 -14 33.5t-37 12.5q-25 0 -35 -5l-10 15z" glyph-name="Scedilla" horiz-adv-x="591" unicode="Ş"/><glyph d="M207 -8q-44 8 -75.5 30.5t-51.5 54.5l53 42q18 -28 48.5 -48.5t68.5 -20.5q45 0 77.5 22t32.5 65q0 27 -16.5 45t-42 32.5t-54.5 28.5t-54.5 32t-42 43.5t-16.5 63.5q0 33 13 59t35.5 44.5t53 28t65.5 9.5q59 0 99.5 -20.5t63.5 -57.5l-49 -38q-16 20 -43 37t-72 17 q-43 0 -71.5 -21t-28.5 -56q0 -25 17 -41.5t42.5 -29.5t55 -26t55 -32t42.5 -47.5t17 -71.5q0 -67 -49.5 -107.5t-132.5 -40.5l-33 -43q49 0 68.5 -22t19.5 -50q0 -50 -34.5 -78.5t-85.5 -28.5q-32 0 -51.5 11t-30.5 25l45 27q5 -5 12.5 -10t24.5 -5q22 0 39.5 15t17.5 38 q0 21 -14 33.5t-37 12.5q-25 0 -35 -5l-10 15z" glyph-name="scedilla" horiz-adv-x="466" unicode="ş"/><glyph d="M233 -234q-32 0 -51.5 11t-30.5 25l45 27q5 -5 12.5 -10t24.5 -5q22 0 39.5 15t17.5 38q0 21 -14 33.5t-37 12.5q-25 0 -35 -5l-10 15l72 77h-14l112 637h-183l10 63h437l-10 -63h-184l-112 -637h-15l-42 -55q49 0 68.5 -22t19.5 -50q0 -50 -34.5 -78.5t-85.5 -28.5z" glyph-name="uni0162" horiz-adv-x="573" unicode="Ţ"/><glyph d="M155 -234q-32 0 -51.5 11t-30.5 25l45 27q5 -5 12.5 -10t24.5 -5q22 0 39.5 15t17.5 38q0 21 -14 33.5t-37 12.5q-25 0 -35 -5l-10 15l67 72q-24 10 -34.5 32t-10.5 51q0 16 3 34l59 336h-84l11 63h84l32 181l75 30l-37 -211h124l-11 -63h-124l-55 -313q-2 -10 -3 -19.5 t-1 -17.5q0 -20 8.5 -32t33.5 -12t44 8.5t34 18.5l-21 -73q-21 -11 -41.5 -15.5t-48.5 -4.5l-33 -43q49 0 68.5 -22t19.5 -50q0 -50 -34.5 -78.5t-85.5 -28.5z" glyph-name="uni0163" horiz-adv-x="375" unicode="ţ"/><glyph d="M434 637l-112 -637h-70l112 637h-183l10 63h437l-10 -63h-184zM453 766h-77l-108 156h62l94 -101l129 101h63z" glyph-name="Tcaron" horiz-adv-x="573" unicode="Ť"/><glyph d="M270 448l-55 -313q-2 -10 -3 -19.5t-1 -17.5q0 -20 8.5 -32t33.5 -12t44 8.5t34 18.5l-21 -73q-21 -11 -41.5 -15.5t-48.5 -4.5q-44 0 -63 26t-19 64q0 16 3 34l59 336h-84l11 63h84l32 181l75 30l-37 -211h124l-11 -63h-124zM507 840l-2 -8q-11 -61 -35 -116.5 t-80 -103.5l-17 14q9 15 19 39.5t19 54t16.5 61t12.5 59.5h67z" glyph-name="tcaron" horiz-adv-x="439" unicode="ť"/><glyph d="M434 637l-50 -287h123l-12 -67h-123l-50 -283h-70l50 283h-124l12 67h124l50 287h-183l10 63h437l-10 -63h-184z" glyph-name="Tbar" horiz-adv-x="573" unicode="Ŧ"/><glyph d="M244 -12q-44 0 -63 26t-19 64q0 16 3 34l22 126h-81l11 63h81l26 147h-84l11 63h84l32 181l75 30l-37 -211h124l-11 -63h-124l-26 -147h124l-11 -63h-124l-18 -103q-2 -10 -3 -19.5t-1 -17.5q0 -20 8.5 -32t33.5 -12t44 8.5t34 18.5l-21 -73q-21 -11 -41.5 -15.5 t-48.5 -4.5z" glyph-name="tbar" horiz-adv-x="395" unicode="ŧ"/><glyph d="M349 -12q-45 0 -83 12t-65 36.5t-42.5 62.5t-15.5 90q0 17 1.5 37t5.5 41l76 433h70l-77 -439q-6 -38 -6 -69q0 -42 11.5 -69.5t30.5 -43t44 -22t52 -6.5q32 0 62.5 9t56 32.5t45.5 64t31 103.5l77 440h70l-77 -440q-26 -146 -91.5 -209t-175.5 -63zM548 792 q-26 0 -45.5 8t-37 17l-33.5 17t-34 8t-33 -11.5t-20 -34.5h-37q9 53 35.5 81.5t72.5 28.5q25 0 45 -8t37 -17.5t33 -17.5t34 -8t33.5 12t21.5 35h36q-10 -53 -36.5 -81.5t-71.5 -28.5z" glyph-name="Utilde" horiz-adv-x="674" unicode="Ũ"/><glyph d="M395 0l9 49q-24 -32 -57.5 -46.5t-75.5 -14.5q-74 0 -112 40t-38 118q0 17 2 34t5 37l51 294h70l-55 -312q-2 -12 -3 -23.5t-1 -21.5q0 -56 27 -79.5t65 -23.5q25 0 48.5 7t43 24t34 45t22.5 70l55 314h70l-90 -511h-70zM459 602q-26 0 -45.5 8t-37 17l-33.5 17t-34 8 t-33 -11.5t-20 -34.5h-37q9 53 35.5 81.5t72.5 28.5q25 0 45 -8t37 -17.5t33 -17.5t34 -8t33.5 12t21.5 35h36q-10 -53 -36.5 -81.5t-71.5 -28.5z" glyph-name="utilde" horiz-adv-x="559" unicode="ũ"/><glyph d="M349 -12q-45 0 -83 12t-65 36.5t-42.5 62.5t-15.5 90q0 17 1.5 37t5.5 41l76 433h70l-77 -439q-6 -38 -6 -69q0 -42 11.5 -69.5t30.5 -43t44 -22t52 -6.5q32 0 62.5 9t56 32.5t45.5 64t31 103.5l77 440h70l-77 -440q-26 -146 -91.5 -209t-175.5 -63zM318 799l11 61h317 l-11 -61h-317z" glyph-name="Umacron" horiz-adv-x="674" unicode="Ū"/><glyph d="M395 0l9 49q-24 -32 -57.5 -46.5t-75.5 -14.5q-74 0 -112 40t-38 118q0 17 2 34t5 37l51 294h70l-55 -312q-2 -12 -3 -23.5t-1 -21.5q0 -56 27 -79.5t65 -23.5q25 0 48.5 7t43 24t34 45t22.5 70l55 314h70l-90 -511h-70zM225 609l11 61h317l-11 -61h-317z" glyph-name="umacron" horiz-adv-x="559" unicode="ū"/><glyph d="M349 -12q-45 0 -83 12t-65 36.5t-42.5 62.5t-15.5 90q0 17 1.5 37t5.5 41l76 433h70l-77 -439q-6 -38 -6 -69q0 -42 11.5 -69.5t30.5 -43t44 -22t52 -6.5q32 0 62.5 9t56 32.5t45.5 64t31 103.5l77 440h70l-77 -440q-26 -146 -91.5 -209t-175.5 -63zM475 771 q-39 0 -67.5 10.5t-47 27.5t-27.5 40t-9 47q0 18 3 36h63q-1 -5 -1.5 -10t-0.5 -10q0 -41 23.5 -60t68.5 -19q21 0 41.5 7t37.5 19.5t29 31t16 41.5h66q-6 -33 -20.5 -62.5t-38.5 -51.5t-58 -34.5t-78 -12.5z" glyph-name="Ubreve" horiz-adv-x="674" unicode="Ŭ"/><glyph d="M395 0l9 49q-24 -32 -57.5 -46.5t-75.5 -14.5q-74 0 -112 40t-38 118q0 17 2 34t5 37l51 294h70l-55 -312q-2 -12 -3 -23.5t-1 -21.5q0 -56 27 -79.5t65 -23.5q25 0 48.5 7t43 24t34 45t22.5 70l55 314h70l-90 -511h-70zM380 581q-39 0 -67.5 10.5t-47 27.5t-27.5 40 t-9 47q0 18 3 36h63q-1 -5 -1.5 -10t-0.5 -10q0 -41 23.5 -60t68.5 -19q21 0 41.5 7t37.5 19.5t29 31t16 41.5h66q-6 -33 -20.5 -62.5t-38.5 -51.5t-58 -34.5t-78 -12.5z" glyph-name="ubreve" horiz-adv-x="559" unicode="ŭ"/><glyph d="M349 -12q-45 0 -83 12t-65 36.5t-42.5 62.5t-15.5 90q0 17 1.5 37t5.5 41l76 433h70l-77 -439q-6 -38 -6 -69q0 -42 11.5 -69.5t30.5 -43t44 -22t52 -6.5q32 0 62.5 9t56 32.5t45.5 64t31 103.5l77 440h70l-77 -440q-26 -146 -91.5 -209t-175.5 -63zM457 730q-20 0 -37 8 t-29 21t-19 30.5t-7 37.5q0 27 11 50t29.5 40.5t42.5 27.5t49 10q40 0 66 -27.5t26 -67.5q0 -26 -11.5 -49.5t-30 -41.5t-42.5 -28.5t-48 -10.5zM466 782q27 0 47 20.5t20 52.5q0 22 -12.5 35t-32.5 13q-25 0 -45.5 -19t-20.5 -51q0 -22 12.5 -36.5t31.5 -14.5z" glyph-name="Uring" horiz-adv-x="674" unicode="Ů"/><glyph d="M395 0l9 49q-24 -32 -57.5 -46.5t-75.5 -14.5q-74 0 -112 40t-38 118q0 17 2 34t5 37l51 294h70l-55 -312q-2 -12 -3 -23.5t-1 -21.5q0 -56 27 -79.5t65 -23.5q25 0 48.5 7t43 24t34 45t22.5 70l55 314h70l-90 -511h-70zM363 540q-20 0 -37 8t-29 21t-19 30.5t-7 37.5 q0 27 11 50t29.5 40.5t42.5 27.5t49 10q40 0 66 -27.5t26 -67.5q0 -26 -11.5 -49.5t-30 -41.5t-42.5 -28.5t-48 -10.5zM372 592q27 0 47 20.5t20 52.5q0 22 -12.5 35t-32.5 13q-25 0 -45.5 -19t-20.5 -51q0 -22 12.5 -36.5t31.5 -14.5z" glyph-name="uring" horiz-adv-x="559" unicode="ů"/><glyph d="M349 -12q-45 0 -83 12t-65 36.5t-42.5 62.5t-15.5 90q0 17 1.5 37t5.5 41l76 433h70l-77 -439q-6 -38 -6 -69q0 -42 11.5 -69.5t30.5 -43t44 -22t52 -6.5q32 0 62.5 9t56 32.5t45.5 64t31 103.5l77 440h70l-77 -440q-26 -146 -91.5 -209t-175.5 -63zM404 766h-68l163 156 h103zM594 766h-68l163 156h44h59z" glyph-name="Uhungarumlaut" horiz-adv-x="674" unicode="Ű"/><glyph d="M395 0l9 49q-24 -32 -57.5 -46.5t-75.5 -14.5q-74 0 -112 40t-38 118q0 17 2 34t5 37l51 294h70l-55 -312q-2 -12 -3 -23.5t-1 -21.5q0 -56 27 -79.5t65 -23.5q25 0 48.5 7t43 24t34 45t22.5 70l55 314h70l-90 -511h-70zM310 576h-68l163 156h103zM500 576h-68l163 156 h44h59z" glyph-name="uhungarumlaut" horiz-adv-x="559" unicode="ű"/><glyph d="M321 -234q-38 0 -64 20.5t-26 60.5q0 45 29.5 80.5t77.5 60.5q-43 1 -78.5 14t-61.5 37.5t-40.5 61.5t-14.5 88q0 17 1.5 37t5.5 41l76 433h70l-77 -439q-6 -38 -6 -69q0 -42 11.5 -69.5t30.5 -43t44 -22t52 -6.5q32 0 62.5 9t56 32.5t45.5 64t31 103.5l77 440h70 l-77 -440q-20 -112 -61.5 -173.5t-109.5 -84.5q-76 -30 -114.5 -61t-38.5 -80q0 -24 13.5 -34.5t30.5 -10.5q20 0 33.5 7.5t23.5 15.5l31 -29q-17 -17 -42.5 -30.5t-60.5 -13.5z" glyph-name="Uogonek" horiz-adv-x="674" unicode="Ų"/><glyph d="M465 0q-40 -12 -68 -27.5t-45.5 -34t-25.5 -38.5t-8 -39q0 -24 13.5 -34.5t30.5 -10.5q20 0 33.5 7.5t22.5 15.5l32 -29q-17 -17 -42.5 -30.5t-60.5 -13.5q-38 0 -64 20.5t-26 60.5q0 28 10.5 51.5t29 42.5t43.5 33.5t55 25.5l9 49q-24 -32 -57.5 -46.5t-75.5 -14.5 q-74 0 -112 40t-38 118q0 17 2 34t5 37l51 294h70l-55 -312q-2 -12 -3 -23.5t-1 -21.5q0 -56 27 -79.5t65 -23.5q25 0 48.5 7t43 24t34 45t22.5 70l55 314h70z" glyph-name="uogonek" horiz-adv-x="559" unicode="ų"/><glyph d="M878 700l-258 -700h-62l-54 516q-1 4 -1 8.5t-1 9.5t-1 10q-2 -6 -5 -11q-2 -5 -4 -9.5t-4 -7.5l-242 -516h-62v700h68v-501v-48q4 8 8 17q3 8 6.5 16t6.5 14l225 502h53l49 -509q0 -4 0.5 -11t1.5 -14q1 -8 2 -17l6 16q2 7 4 13t4 10l185 512h75zM643 766l-94 101 l-129 -101h-62l162 156h77l109 -156h-63z" glyph-name="Wcircumflex" horiz-adv-x="815" unicode="Ŵ"/><glyph d="M534 0h-68l-44 342q-1 5 -1.5 12.5t-1.5 13.5l-2 14q-4 -9 -8 -17l-6.5 -14.5l-5.5 -11.5l-157 -339h-67l-37 511h67l20 -387q0 -6 0.5 -12.5t0.5 -12.5q0 -7 1 -14q3 8 7 15q3 6 5.5 12.5l4.5 11.5l171 387h49l40 -387q1 -8 1.5 -15t1.5 -12q1 -6 1 -12q2 6 5 13 q2 6 4.5 12.5t5.5 13.5l150 387h70zM555 576l-94 101l-129 -101h-62l162 156h77l109 -156h-63z" glyph-name="wcircumflex" horiz-adv-x="697" unicode="ŵ"/><glyph d="M271 0l49 280l-143 420h71l115 -360l247 360h72l-296 -427l-48 -273h-67zM549 766l-94 101l-129 -101h-62l162 156h77l109 -156h-63z" glyph-name="Ycircumflex" horiz-adv-x="613" unicode="Ŷ"/><glyph d="M183 -194h-71l110 210l-93 495h72l60 -371l2 -13.5t2 -11.5l2 -12q-1 0 6.5 13l13.5 24l194 371h76zM452 576l-94 101l-129 -101h-62l162 156h77l109 -156h-63z" glyph-name="ycircumflex" horiz-adv-x="512" unicode="ŷ"/><glyph d="M78 0l9 49l494 589h-368l10 62h455l-9 -51l-489 -587h386l-11 -62h-477zM457 766h-69l164 156h102z" glyph-name="Zacute" horiz-adv-x="633" unicode="Ź"/><glyph d="M78 0l8 43l315 405h-225l11 63h321l-7 -42l-319 -406h246l-11 -63h-339zM372 576h-69l164 156h102z" glyph-name="zacute" horiz-adv-x="500" unicode="ź"/><glyph d="M78 0l9 49l494 589h-368l10 62h455l-9 -51l-489 -587h386l-11 -62h-477zM455 796q-17 0 -27.5 11.5t-10.5 28.5q0 23 16.5 38.5t37.5 15.5q17 0 27.5 -11t10.5 -28q0 -23 -16 -39t-38 -16z" glyph-name="Zdotaccent" horiz-adv-x="633" unicode="Ż"/><glyph d="M78 0l8 43l315 405h-225l11 63h321l-7 -42l-319 -406h246l-11 -63h-339zM355 606q-17 0 -27.5 11.5t-10.5 28.5q0 23 16.5 38.5t37.5 15.5q17 0 27.5 -11t10.5 -28q0 -23 -16 -39t-38 -16z" glyph-name="zdotaccent" horiz-adv-x="500" unicode="ż"/><glyph d="M112 0l105 598q11 63 42.5 88.5t80.5 25.5q26 0 46 -7.5t34 -16.5l-10 -61q-13 8 -31 14t-38 6q-26 0 -38 -17t-17 -43l-104 -587h-70z" glyph-name="longs" horiz-adv-x="333" unicode="ſ"/><glyph d="M521 0l-29 181h-263l-91 -181h-74l356 700h56l113 -700h-68zM439 523l-5 33t-4 30q-4 -10 -13 -29.5l-16 -33.5l-141 -280h223zM494 766h-77l-108 156h62l94 -101l129 101h63z" glyph-name="uni01CD" horiz-adv-x="657" unicode="Ǎ"/><glyph d="M379 0l7 42q-24 -20 -61 -37t-86 -17q-69 0 -108 40.5t-39 106.5q0 52 18.5 89.5t48 60.5t67 34t75.5 11q48 0 79.5 -12.5t49.5 -25.5l8 45q5 25 5 43q0 24 -7.5 40t-19 25.5t-26.5 13t-30 3.5q-21 0 -43.5 -5t-43.5 -13t-40.5 -17.5t-34.5 -19.5l-9 60q33 20 79 38 t97 18q25 0 50.5 -6.5t46.5 -22.5t34 -41.5t13 -64.5q0 -20 -5 -48l-60 -340h-65zM251 49q44 0 84.5 23.5t65.5 51.5l17 101q-15 12 -45.5 28t-72.5 16q-28 0 -53.5 -7t-45.5 -22.5t-32 -39.5t-12 -58q0 -40 23.5 -66.5t70.5 -26.5zM415 576h-77l-108 156h62l94 -101 l129 101h63z" glyph-name="uni01CE" horiz-adv-x="532" unicode="ǎ"/><glyph d="M110 0l123 700h70l-123 -700h-70zM314 766h-77l-108 156h62l94 -101l129 101h63z" glyph-name="uni01CF" horiz-adv-x="290" unicode="Ǐ"/><glyph d="M95 0l90 511h67l-90 -511h-67zM265 576h-77l-108 156h62l94 -101l129 101h63z" glyph-name="uni01D0" horiz-adv-x="261" unicode="ǐ"/><glyph d="M362 51q70 0 122 36t85.5 92.5t50 124.5t16.5 132q0 39 -8.5 77.5t-28 68.5t-50 48.5t-74.5 18.5q-71 0 -122.5 -36t-85.5 -92.5t-50.5 -124.5t-16.5 -132q0 -42 9 -80.5t28.5 -68t50 -47t74.5 -17.5zM362 -12q-62 0 -106 23t-72 61t-41 88t-13 104q0 75 20.5 154 t63.5 144.5t107.5 107.5t153.5 42q63 0 107 -24t71.5 -63t40 -88.5t12.5 -100.5q0 -75 -20.5 -154t-63 -144.5t-107.5 -107.5t-153 -42zM530 766h-77l-108 156h62l94 -101l129 101h63z" glyph-name="uni01D1" horiz-adv-x="712" unicode="Ǒ"/><glyph d="M279 -12q-48 0 -82.5 17.5t-56.5 46t-32 66t-10 78.5q0 55 16 113t48 105.5t80.5 78t114.5 30.5q49 0 83.5 -18t56.5 -47.5t31.5 -67t9.5 -75.5q0 -55 -15.5 -113t-47.5 -105.5t-81 -78t-115 -30.5zM279 51q48 0 84 24.5t59 63t34.5 85.5t11.5 91q0 27 -6 53t-19 46.5 t-34.5 33t-51.5 12.5q-48 0 -83.5 -24.5t-59 -63t-35 -85t-11.5 -91.5q0 -28 6 -54t19.5 -46.5t34.5 -32.5t51 -12zM412 576h-77l-108 156h62l94 -101l129 101h63z" glyph-name="uni01D2" horiz-adv-x="547" unicode="ǒ"/><glyph d="M349 -12q-45 0 -83 12t-65 36.5t-42.5 62.5t-15.5 90q0 17 1.5 37t5.5 41l76 433h70l-77 -439q-6 -38 -6 -69q0 -42 11.5 -69.5t30.5 -43t44 -22t52 -6.5q32 0 62.5 9t56 32.5t45.5 64t31 103.5l77 440h70l-77 -440q-26 -146 -91.5 -209t-175.5 -63zM506 766h-77 l-108 156h62l94 -101l129 101h63z" glyph-name="uni01D3" horiz-adv-x="674" unicode="Ǔ"/><glyph d="M395 0l9 49q-24 -32 -57.5 -46.5t-75.5 -14.5q-74 0 -112 40t-38 118q0 17 2 34t5 37l51 294h70l-55 -312q-2 -12 -3 -23.5t-1 -21.5q0 -56 27 -79.5t65 -23.5q25 0 48.5 7t43 24t34 45t22.5 70l55 314h70l-90 -511h-70zM414 576h-77l-108 156h62l94 -101l129 101h63z" glyph-name="uni01D4" horiz-adv-x="559" unicode="ǔ"/><glyph d="M434 0l32 181h-249l-131 -181h-84l514 700h369l-10 -63h-259l-43 -243h167l-12 -63h-166l-47 -268h280l-11 -63h-350zM477 243l70 399l-19 -28l-22 -31l-244 -340h215zM622 766h-69l164 156h102z" glyph-name="AEacute" horiz-adv-x="861" unicode="Ǽ"/><glyph d="M600 -12q-56 0 -98 30.5t-60 83.5q-45 -62 -98.5 -88t-104.5 -26q-67 0 -107 39.5t-40 107.5q0 50 17 87t46.5 61t68 35.5t81.5 11.5q31 0 63.5 -9t61.5 -29l8 45q5 25 5 41q0 44 -22.5 64t-60.5 20q-21 0 -43.5 -5t-43.5 -13t-40.5 -17.5t-34.5 -19.5l-9 60 q33 20 79.5 38t96.5 18q54 0 88.5 -25t45.5 -64q19 25 41 42.5t45 27.5t45.5 14.5t42.5 4.5q87 0 130.5 -48.5t43.5 -138.5q0 -39 -7 -65.5t-12 -43.5h-334q-1 -7 -1 -9.5v-8.5q0 -75 29.5 -115.5t85.5 -40.5q26 0 56 9t62 31l31 -51q-29 -22 -69 -38t-88 -16zM251 49 q22 0 43.5 7t41 18.5t36.5 26t30 29.5l16 95q-20 17 -51 30.5t-67 13.5q-29 0 -54.5 -7t-45.5 -22.5t-31.5 -39.5t-11.5 -58q0 -40 23.5 -66.5t70.5 -26.5zM673 460q-28 0 -54.5 -10.5t-49 -31.5t-40 -53t-27.5 -75h270q4 16 5.5 30.5t1.5 27.5q0 57 -30.5 84.5t-75.5 27.5z M537 576h-69l164 156h102z" glyph-name="aeacute" horiz-adv-x="849" unicode="ǽ"/><glyph d="M87 -12l80 98q-10 17 -17 39t-11.5 46t-6.5 47.5t-2 44.5q0 49 8.5 101.5t26.5 102.5t46.5 94.5t67.5 78t89.5 53t113.5 19.5q51 0 88 -14.5t63 -39.5l45 54h71l-80 -98q10 -17 17 -39t11.5 -46t6.5 -48.5t2 -45.5q0 -73 -19.5 -152t-61.5 -144.5t-109 -108t-162 -42.5 q-51 0 -89 14.5t-65 39.5l-44 -54h-69zM200 267q0 -13 1 -29t3 -32.5t5 -31.5t8 -26l371 454q-20 22 -49 34.5t-69 12.5q-70 0 -121 -36t-84 -92t-49 -123.5t-16 -130.5zM365 51q71 0 122 36t84 91.5t49 122.5t16 129q0 13 -1 29.5t-3.5 33t-6 32t-8.5 27.5l-371 -454 q20 -22 49 -34.5t70 -12.5zM530 766h-69l164 156h102z" glyph-name="Oslashacute" horiz-adv-x="712" unicode="Ǿ"/><glyph d="M507 442q16 -28 23.5 -61t7.5 -66q0 -55 -15.5 -113t-47.5 -105.5t-81 -78t-115 -30.5q-39 0 -68.5 11t-51.5 31l-35 -42h-63l68 80q-16 27 -23.5 60t-7.5 68q0 55 16 113t48 105.5t80.5 78t114.5 30.5q39 0 68 -11.5t51 -31.5l36 43h63zM168 196q0 -18 2.5 -35.5 t7.5 -33.5l254 301q-14 15 -32 23.5t-43 8.5q-48 0 -83.5 -24.5t-59 -63t-35 -85t-11.5 -91.5zM279 51q48 0 84 24.5t59 63t34.5 85.5t11.5 91q0 17 -2.5 34.5t-8.5 33.5l-253 -301q13 -14 31.5 -22.5t43.5 -8.5zM415 576h-69l164 156h102z" glyph-name="oslashacute" horiz-adv-x="547" unicode="ǿ"/><glyph d="M517 578q-15 29 -43 50t-80 21q-65 0 -102 -31.5t-37 -81.5q0 -37 21.5 -60t53.5 -41.5t70 -35.5t70 -41.5t53.5 -60.5t21.5 -91q0 -54 -18.5 -95t-51 -68t-76 -41t-94.5 -14q-41 0 -74.5 11t-59.5 30.5t-44 45t-26 55.5l64 25q38 -104 146 -104q75 0 118.5 38t43.5 111 q0 42 -21.5 69.5t-53.5 48t-69 38.5t-69 40.5t-53.5 54t-21.5 79.5q0 39 15 72.5t43 57.5t67.5 38t88.5 14q36 0 65.5 -9t52.5 -23.5t38.5 -34t23.5 -40.5zM221 -239q4 3 11 9t14.5 15.5t14.5 22t11 27.5q-23 0 -33.5 13t-10.5 30q0 29 20 46.5t41 17.5q17 0 29.5 -13 t12.5 -36q0 -36 -21.5 -72.5t-71.5 -64.5z" glyph-name="uni0218" horiz-adv-x="591" unicode="Ș"/><glyph d="M415 407q-16 20 -43 37t-72 17q-43 0 -71.5 -21t-28.5 -56q0 -25 17 -41t42.5 -29.5t55 -26.5t55 -32.5t42.5 -47.5t17 -71q0 -67 -49.5 -107.5t-131.5 -40.5q-60 0 -101.5 25.5t-66.5 63.5l53 42q18 -28 48.5 -48.5t68.5 -20.5q45 0 77.5 22t32.5 65q0 27 -16.5 45.5 t-42 33t-54.5 27.5t-54.5 31.5t-42 43.5t-16.5 64q0 33 13 59t35.5 44.5t53 28t65.5 9.5q59 0 99.5 -20.5t63.5 -57.5zM148 -239q4 3 11 9t14.5 15.5t14.5 22t11 27.5q-23 0 -33.5 13t-10.5 30q0 29 20 46.5t41 17.5q17 0 29.5 -13t12.5 -36q0 -36 -21.5 -72.5t-71.5 -64.5z" glyph-name="uni0219" horiz-adv-x="466" unicode="ș"/><glyph d="M434 637l-112 -637h-70l112 637h-183l10 63h437l-10 -63h-184zM214 -239q4 3 11 9t14.5 15.5t14.5 22t11 27.5q-23 0 -33.5 13t-10.5 30q0 29 20 46.5t41 17.5q17 0 29.5 -13t12.5 -36q0 -36 -21.5 -72.5t-71.5 -64.5z" glyph-name="uni021A" horiz-adv-x="573" unicode="Ț"/><glyph d="M270 448l-55 -313q-2 -10 -3 -19.5t-1 -17.5q0 -20 8.5 -32t33.5 -12t44 8.5t34 18.5l-21 -73q-21 -11 -41.5 -15.5t-48.5 -4.5q-44 0 -63 26t-19 64q0 16 3 34l59 336h-84l11 63h84l32 181l75 30l-37 -211h124l-11 -63h-124zM129 -239q4 3 11 9t14.5 15.5t14.5 22 t11 27.5q-23 0 -33.5 13t-10.5 30q0 29 20 46.5t41 17.5q17 0 29.5 -13t12.5 -36q0 -36 -21.5 -72.5t-71.5 -64.5z" glyph-name="uni021B" horiz-adv-x="375" unicode="ț"/><glyph d="M-46 -158q36 3 59.5 10.5t38.5 19.5t22.5 29t11.5 39l101 571h70l-102 -578q-8 -45 -25.5 -73.5t-41.5 -44.5t-53 -22.5t-59 -8.5z" glyph-name="dotlessj" horiz-adv-x="269" unicode="ȷ"/><glyph d="M157 609l11 61h317l-11 -61h-317z" glyph-name="firsttonechinese" unicode="ˉ"/><glyph d="M399 0l11 58q-30 -41 -67.5 -55.5t-70.5 -14.5q-29 0 -58 14t-42 48l-39 -223l-75 -30l126 714h70l-55 -310q-2 -14 -4 -26.5t-2 -32.5q0 -15 4.5 -31.5t15 -29.5t28.5 -21.5t46 -8.5q23 0 46.5 8t43.5 25t35 45t22 68l55 314h68l-90 -511h-68z" glyph-name="uni03BC" horiz-adv-x="564" unicode="μ"/><glyph d="M878 700l-258 -700h-62l-54 516q-1 4 -1 8.5t-1 9.5t-1 10q-2 -6 -5 -11q-2 -5 -4 -9.5t-4 -7.5l-242 -516h-62v700h68v-501v-48q4 8 8 17q3 8 6.5 16t6.5 14l225 502h53l49 -509q0 -4 0.5 -11t1.5 -14q1 -8 2 -17l6 16q2 7 4 13t4 10l185 512h75zM529 766l-144 156h103 l109 -156h-68z" glyph-name="Wgrave" horiz-adv-x="815" unicode="Ẁ"/><glyph d="M534 0h-68l-44 342q-1 5 -1.5 12.5t-1.5 13.5l-2 14q-4 -9 -8 -17l-6.5 -14.5l-5.5 -11.5l-157 -339h-67l-37 511h67l20 -387q0 -6 0.5 -12.5t0.5 -12.5q0 -7 1 -14q3 8 7 15q3 6 5.5 12.5l4.5 11.5l171 387h49l40 -387q1 -8 1.5 -15t1.5 -12q1 -6 1 -12q2 6 5 13 q2 6 4.5 12.5t5.5 13.5l150 387h70zM442 576l-144 156h103l109 -156h-68z" glyph-name="wgrave" horiz-adv-x="697" unicode="ẁ"/><glyph d="M878 700l-258 -700h-62l-54 516q-1 4 -1 8.5t-1 9.5t-1 10q-2 -6 -5 -11q-2 -5 -4 -9.5t-4 -7.5l-242 -516h-62v700h68v-501v-48q4 8 8 17q3 8 6.5 16t6.5 14l225 502h53l49 -509q0 -4 0.5 -11t1.5 -14q1 -8 2 -17l6 16q2 7 4 13t4 10l185 512h75zM536 766h-69l164 156 h102z" glyph-name="Wacute" horiz-adv-x="815" unicode="Ẃ"/><glyph d="M534 0h-68l-44 342q-1 5 -1.5 12.5t-1.5 13.5l-2 14q-4 -9 -8 -17l-6.5 -14.5l-5.5 -11.5l-157 -339h-67l-37 511h67l20 -387q0 -6 0.5 -12.5t0.5 -12.5q0 -7 1 -14q3 8 7 15q3 6 5.5 12.5l4.5 11.5l171 387h49l40 -387q1 -8 1.5 -15t1.5 -12q1 -6 1 -12q2 6 5 13 q2 6 4.5 12.5t5.5 13.5l150 387h70zM449 576h-69l164 156h102z" glyph-name="wacute" horiz-adv-x="697" unicode="ẃ"/><glyph d="M878 700l-258 -700h-62l-54 516q-1 4 -1 8.5t-1 9.5t-1 10q-2 -6 -5 -11q-2 -5 -4 -9.5t-4 -7.5l-242 -516h-62v700h68v-501v-48q4 8 8 17q3 8 6.5 16t6.5 14l225 502h53l49 -509q0 -4 0.5 -11t1.5 -14q1 -8 2 -17l6 16q2 7 4 13t4 10l185 512h75zM466 806 q-17 0 -27.5 11.5t-10.5 28.5q0 23 16.5 38.5t37.5 15.5q17 0 27.5 -11t10.5 -28q0 -23 -16 -39t-38 -16zM626 806q-17 0 -28 11.5t-11 28.5q0 23 17.5 38.5t37.5 15.5q17 0 27.5 -11t10.5 -28q0 -23 -16.5 -39t-37.5 -16z" glyph-name="Wdieresis" horiz-adv-x="815" unicode="Ẅ"/><glyph d="M534 0h-68l-44 342q-1 5 -1.5 12.5t-1.5 13.5l-2 14q-4 -9 -8 -17l-6.5 -14.5l-5.5 -11.5l-157 -339h-67l-37 511h67l20 -387q0 -6 0.5 -12.5t0.5 -12.5q0 -7 1 -14q3 8 7 15q3 6 5.5 12.5l4.5 11.5l171 387h49l40 -387q1 -8 1.5 -15t1.5 -12q1 -6 1 -12q2 6 5 13 q2 6 4.5 12.5t5.5 13.5l150 387h70zM379 616q-17 0 -27.5 11.5t-10.5 28.5q0 23 16.5 38.5t37.5 15.5q17 0 27.5 -11t10.5 -28q0 -23 -16 -39t-38 -16zM539 616q-17 0 -28 11.5t-11 28.5q0 23 17.5 38.5t37.5 15.5q17 0 27.5 -11t10.5 -28q0 -23 -16.5 -39t-37.5 -16z" glyph-name="wdieresis" horiz-adv-x="697" unicode="ẅ"/><glyph d="M271 0l49 280l-143 420h71l115 -360l247 360h72l-296 -427l-48 -273h-67zM420 766l-144 156h103l109 -156h-68z" glyph-name="Ygrave" horiz-adv-x="613" unicode="Ỳ"/><glyph d="M183 -194h-71l110 210l-93 495h72l60 -371l2 -13.5t2 -11.5l2 -12q-1 0 6.5 13l13.5 24l194 371h76zM348 576l-144 156h103l109 -156h-68z" glyph-name="ygrave" horiz-adv-x="512" unicode="ỳ"/><glyph d="M65 257l11 60h562l-11 -60h-562z" glyph-name="afii00208" horiz-adv-x="602" unicode="―"/><glyph d="M215 461q-11 10 -21.5 25t-18 33t-12 37.5t-4.5 38.5q0 32 8 54.5t21 36.5t28.5 20t30.5 6q20 0 34 -14.5t14 -38.5q0 -34 -24.5 -54.5t-58.5 -20.5q0 -45 10.5 -75t16.5 -42z" glyph-name="quotereversed" horiz-adv-x="238" unicode="‛"/><glyph d="M207 730h91l-112 -305h-52z" glyph-name="minute" horiz-adv-x="228" unicode="′"/><glyph d="M207 730h91l-112 -305h-52zM399 730h91l-112 -305h-26h-26z" glyph-name="second" horiz-adv-x="420" unicode="″"/><glyph d="M372 283l43 244q2 12 3.5 24.5t1.5 22.5q0 40 -18 57.5t-46 17.5q-38 0 -68.5 -28.5t-41.5 -89.5l-44 -248h-69l74 419h69l-9 -51q22 26 47 43.5t63 17.5q48 0 79 -32.5t31 -99.5q0 -14 -1.5 -32t-6.5 -44l-39 -221h-68z" glyph-name="nsuperior" horiz-adv-x="462" unicode="ⁿ"/><glyph d="M102 0l14 79q22 10 40.5 27t33.5 39t25.5 46t17.5 48h-94l10 57h92q1 4 1 19q0 11 -2 24.5t-4 22.5h-75l10 57h49q-4 15 -5 32.5t-1 24.5q0 46 16 89t48.5 75.5t80.5 52t111 19.5q64 0 105.5 -18t72.5 -47l-37 -64q-9 9 -21.5 20t-30.5 20t-42.5 15.5t-58.5 6.5 q-43 0 -74.5 -13.5t-52.5 -36t-31.5 -52t-10.5 -60.5q0 -9 1.5 -28t6.5 -36h185l-10 -57h-159q2 -8 3 -17t1 -19q0 -8 -0.5 -16t-1.5 -14h145l-10 -57h-145q-16 -48 -50 -91.5t-83 -82.5h386l-11 -65h-445z" glyph-name="afii08941" horiz-adv-x="601" unicode="₤"/><glyph d="M285 272q-66 0 -99 45.5t-33 117.5q0 63 15.5 114t44 87.5t67.5 56t86 19.5q41 0 65 -12.5t36.5 -28.5t16.5 -31.5t5 -21.5l-70 -26q-2 9 -5.5 18.5t-12 17.5t-21.5 13.5t-33 5.5q-33 0 -56.5 -16.5t-39 -44.5t-23 -65.5t-7.5 -79.5q0 -49 18 -76.5t55 -27.5 q41 0 62 16.5t36 43.5l54 -23q-9 -20 -24.5 -38.5t-36 -32.5t-45.5 -22.5t-55 -8.5zM746 -12q-71 0 -110 45t-39 123q0 62 17 112.5t47 86t71.5 54.5t90.5 19q72 0 110.5 -45.5t38.5 -123.5q0 -63 -16.5 -113t-46.5 -85t-71.5 -54t-91.5 -19zM757 53q37 0 65 14.5t46.5 41 t27.5 63t9 80.5q0 52 -23 81.5t-70 29.5q-65 0 -105.5 -52.5t-40.5 -143.5q0 -53 24 -83.5t67 -30.5zM214 -12l587 724h71l-587 -724h-71z" glyph-name="afii61248" horiz-adv-x="1003" unicode="℅"/><glyph d="M264 -12q-36 0 -62.5 23.5t-26.5 70.5q0 12 1.5 29t5.5 38l17 100q-21 -13 -37 -21t-24 -11l-11 57q6 2 16 7l22 11t24 13l22 13l36 205q9 54 24.5 90t35.5 58t43.5 31.5t49.5 9.5q38 0 64.5 -30.5t26.5 -95.5q0 -58 -23.5 -104.5t-57 -83.5t-71 -65t-65.5 -47l-24 -136 q-2 -14 -3.5 -29t-1.5 -26q0 -25 11 -33.5t26 -8.5q23 0 43.5 12t35.5 26l12 -50q-20 -22 -48.5 -37.5t-60.5 -15.5zM386 645q-12 0 -21.5 -6t-18.5 -21t-17 -41.5t-15 -67.5l-27 -149q42 30 68 59t40.5 56.5t19.5 54t5 50.5q0 28 -8 46.5t-26 18.5z" glyph-name="afii61289" horiz-adv-x="456" unicode="ℓ"/><glyph d="M518 0l-208 498q-2 4 -7 15.5t-10 24.5l-13 32q-3 -17 -6 -32q-2 -13 -4 -24.5t-3 -16.5l-87 -497h-70l123 700h65l225 -539q1 -2 3.5 -8t5.5 -14q4 -9 8 -19q1 9 3 17q2 7 2.5 13.5t1.5 9.5l95 540h70l-123 -700h-71zM756 130l10 55h336l-10 -55h-336zM949 272 q-71 0 -110 45t-39 123q0 62 17 112.5t47 86t71.5 54.5t91.5 19q71 0 109.5 -45.5t38.5 -123.5q0 -63 -16.5 -113t-46.5 -85t-71.5 -54t-91.5 -19zM960 337q36 0 64 14.5t46.5 40.5t28 62.5t9.5 81.5q0 52 -23 81.5t-70 29.5q-66 0 -106.5 -52t-40.5 -143q0 -54 24 -84.5 t68 -30.5z" glyph-name="afii61352" horiz-adv-x="1180" unicode="№"/><glyph d="M431 0l13 71q60 57 97 102t57.5 88t27.5 88t7 104q0 36 -8 71t-26 62.5t-48 45t-73 17.5q-65 0 -111.5 -30.5t-77.5 -79.5t-45.5 -109.5t-14.5 -121.5q0 -68 21 -124.5t61 -112.5l-13 -71h-206l11 63h162q-51 39 -78 103.5t-27 143.5q0 68 19 139t59 129.5t102.5 96 t149.5 37.5q60 0 101 -22.5t66 -58.5t36 -80.5t11 -89.5q0 -137 -57 -236t-163 -162h164l-11 -63h-206z" glyph-name="Ohm" horiz-adv-x="730" unicode="Ω"/><glyph d="M471 -12q-71 0 -133.5 25.5t-109.5 72.5t-74.5 114t-27.5 150q0 92 29 160.5t77.5 114t111.5 68t130 22.5q64 0 122.5 -23t103.5 -69t73.5 -114t32.5 -159h-523v-219q24 -35 73 -59t115 -24q72 0 133 32.5t109 106.5l51 -31q-26 -38 -54.5 -69t-64 -53t-78 -34t-96.5 -12 zM654 577q-28 33 -77 55.5t-106 22.5q-59 0 -106 -18t-82 -51v-178l371 1v168z" glyph-name="estimated" horiz-adv-x="799" unicode="℮"/><glyph d="M27 -12l587 724h66l-587 -724h-66zM140 283l57 324h-45l8 43q26 0 43 15t29 40h40l-74 -422h-58zM467 114q8 -36 28 -56t52 -20q42 0 66 25t24 62q0 24 -13.5 44.5t-40.5 20.5h-33l8 50h21q20 0 34.5 7.5t24 19.5t14 26.5t4.5 29.5q0 21 -13 38.5t-42 17.5 q-27 0 -51.5 -18.5t-40.5 -45.5l-48 18q23 41 64 68.5t89 27.5t76.5 -25t28.5 -68q0 -35 -20.5 -66.5t-53.5 -45.5q26 -9 40.5 -31t14.5 -53q0 -35 -12.5 -63t-34 -48t-51.5 -30.5t-64 -10.5q-55 0 -86.5 28.5t-41.5 74.5z" glyph-name="onethird" horiz-adv-x="738" unicode="⅓"/><glyph d="M184 -12l587 724h66l-587 -724h-66zM158 612q17 43 51.5 71.5t91.5 28.5t88.5 -30.5t31.5 -78.5q0 -29 -8 -52t-25 -42.5t-44 -38.5t-65 -41q-42 -24 -65.5 -45t-38.5 -48h199l-10 -53h-265q7 40 22.5 69t38 51.5t52 42l64.5 41.5q42 26 63.5 50.5t21.5 64.5 q0 10 -3.5 20.5t-11 19t-19.5 14t-30 5.5q-35 0 -57 -17.5t-36 -52.5zM624 114q8 -36 28 -56t52 -20q42 0 66 25t24 62q0 24 -13.5 44.5t-40.5 20.5h-33l8 50h21q20 0 34.5 7.5t24 19.5t14 26.5t4.5 29.5q0 21 -13 38.5t-42 17.5q-27 0 -51.5 -18.5t-40.5 -45.5l-48 18 q23 41 64 68.5t89 27.5t76.5 -25t28.5 -68q0 -35 -20.5 -66.5t-53.5 -45.5q26 -9 40.5 -31t14.5 -53q0 -35 -12.5 -63t-34 -48t-51.5 -30.5t-64 -10.5q-55 0 -86.5 28.5t-41.5 74.5z" glyph-name="twothirds" horiz-adv-x="895" unicode="⅔"/><glyph d="M27 -12l587 724h66l-587 -724h-66zM140 283l57 324h-45l8 43q26 0 43 15t29 40h40l-74 -422h-58zM522 -12q-54 0 -84.5 30.5t-30.5 76.5q0 55 26.5 88t64.5 50q-15 8 -25.5 27t-10.5 42q0 27 11 50t29.5 40.5t43.5 27t54 9.5q45 0 71.5 -26.5t26.5 -67.5q0 -37 -21 -64 t-45 -38q22 -11 36 -34t14 -57t-12 -62t-33.5 -48.5t-51 -32t-63.5 -11.5zM531 38q38 0 65.5 27t27.5 72q0 27 -16.5 47.5t-47.5 20.5q-19 0 -36 -8t-29.5 -21.5t-20 -31.5t-7.5 -38q0 -31 17.5 -49.5t46.5 -18.5zM568 251q33 0 53.5 20.5t20.5 53.5q0 25 -13.5 39.5 t-37.5 14.5q-31 0 -53 -21.5t-22 -56.5q0 -22 14 -36t38 -14z" glyph-name="oneeighth" horiz-adv-x="730" unicode="⅛"/><glyph d="M170 -12l587 724h66l-587 -724h-66zM160 616q23 41 64 68.5t89 27.5t76.5 -25t28.5 -68q0 -35 -20.5 -66.5t-53.5 -45.5q26 -9 40.5 -31t14.5 -53q0 -35 -12.5 -63t-34 -48t-51.5 -30.5t-64 -10.5q-55 0 -86.5 28.5t-41.5 74.5l57 23q8 -36 28 -56t52 -20q42 0 66 25 t24 62q0 24 -13.5 44.5t-41.5 20.5h-33l9 50h21q20 0 34.5 7.5t24 19.5t14 26.5t4.5 29.5q0 21 -13 38.5t-42 17.5q-27 0 -51.5 -18.5t-41.5 -45.5zM666 -12q-54 0 -84.5 30.5t-30.5 76.5q0 55 26.5 88t64.5 50q-15 8 -25.5 27t-10.5 42q0 27 11 50t29.5 40.5t43.5 27 t54 9.5q45 0 71.5 -26.5t26.5 -67.5q0 -37 -21 -64t-45 -38q22 -11 36 -34t14 -57t-12 -62t-33.5 -48.5t-51 -32t-63.5 -11.5zM675 38q38 0 65.5 27t27.5 72q0 27 -16.5 47.5t-47.5 20.5q-19 0 -36 -8t-29.5 -21.5t-20 -31.5t-7.5 -38q0 -31 17.5 -49.5t46.5 -18.5zM712 251 q33 0 53.5 20.5t20.5 53.5q0 25 -13.5 39.5t-37.5 14.5q-31 0 -53 -21.5t-22 -56.5q0 -22 14 -36t38 -14z" glyph-name="threeeighths" horiz-adv-x="875" unicode="⅜"/><glyph d="M154 -12l587 724h66l-587 -724h-66zM136 366q11 -19 34.5 -32t52.5 -13q25 0 45.5 9t35 24.5t22 36t7.5 43.5q0 29 -16 50.5t-51 21.5q-33 0 -57 -13t-38 -28l-37 13l72 222h202l-9 -55h-159l-37 -113q36 24 82 24q50 0 78.5 -31.5t28.5 -82.5q0 -36 -13.5 -67t-37 -54 t-55.5 -36.5t-68 -13.5q-48 0 -79 18t-42 36zM649 -12q-54 0 -84.5 30.5t-30.5 76.5q0 55 26.5 88t64.5 50q-15 8 -25.5 27t-10.5 42q0 27 11 50t29.5 40.5t43.5 27t54 9.5q45 0 71.5 -26.5t26.5 -67.5q0 -37 -21 -64t-45 -38q22 -11 36 -34t14 -57t-12 -62t-33.5 -48.5 t-51 -32t-63.5 -11.5zM658 38q38 0 65.5 27t27.5 72q0 27 -16.5 47.5t-47.5 20.5q-19 0 -36 -8t-29.5 -21.5t-20 -31.5t-7.5 -38q0 -31 17.5 -49.5t46.5 -18.5zM695 251q33 0 53.5 20.5t20.5 53.5q0 25 -13.5 39.5t-37.5 14.5q-31 0 -53 -21.5t-22 -56.5q0 -22 14 -36 t38 -14z" glyph-name="fiveeighths" horiz-adv-x="858" unicode="⅝"/><glyph d="M62 -12l587 724h66l-587 -724h-66zM154 283q11 60 29.5 111.5t42.5 96t52.5 83t58.5 71.5h-193l9 55h257l-10 -58q-44 -42 -75.5 -89t-53 -93.5t-35 -92t-20.5 -84.5h-62zM559 -12q-54 0 -84.5 30.5t-30.5 76.5q0 55 26.5 88t64.5 50q-15 8 -25.5 27t-10.5 42q0 27 11 50 t29.5 40.5t43.5 27t54 9.5q45 0 71.5 -26.5t26.5 -67.5q0 -37 -21 -64t-45 -38q22 -11 36 -34t14 -57t-12 -62t-33.5 -48.5t-51 -32t-63.5 -11.5zM568 38q38 0 65.5 27t27.5 72q0 27 -16.5 47.5t-47.5 20.5q-19 0 -36 -8t-29.5 -21.5t-20 -31.5t-7.5 -38q0 -31 17.5 -49.5 t46.5 -18.5zM605 251q33 0 53.5 20.5t20.5 53.5q0 25 -13.5 39.5t-37.5 14.5q-31 0 -53 -21.5t-22 -56.5q0 -22 14 -36t38 -14z" glyph-name="seveneighths" horiz-adv-x="767" unicode="⅞"/><glyph d="M-98 -12l587 724h66l-587 -724h-66z" glyph-name="divisionslash" horiz-adv-x="333" unicode="∕"/><glyph d="M169 286q-23 0 -36 16.5t-13 37.5q0 13 6 26t16 23.5t23 16.5t27 6q23 0 36.5 -16.5t13.5 -37.5q0 -14 -6 -26.5t-16 -23t-23 -16.5t-28 -6z" glyph-name="bulletoperator" horiz-adv-x="238" unicode="∙"/><glyph d="M128 359q0 14 9 22.5t23 8.5t22 -8.5t8 -22.5t-8 -22t-22 -8t-23 8t-9 22zM600 359q0 14 8 22.5t22 8.5q13 0 22.5 -8.5t9.5 -22.5t-9.5 -22t-22.5 -8q-14 0 -22 8t-8 22zM365 124q0 14 8 22.5t22 8.5t22 -8.5t8 -22.5t-8 -22.5t-22 -8.5t-22 8.5t-8 22.5zM365 594 q0 14 8 23t22 9t22 -9t8 -23t-8 -22t-22 -8t-22 8t-8 22zM531 526q0 14 8 22t22 8t22.5 -8t8.5 -22t-8.5 -22.5t-22.5 -8.5t-22 8.5t-8 22.5zM198 526q0 14 8.5 22t22.5 8t22 -8t8 -22t-8 -22.5t-22 -8.5t-22.5 8.5t-8.5 22.5zM531 193q0 14 8 22.5t22 8.5t22.5 -8.5 t8.5 -22.5t-8.5 -22t-22.5 -8t-22 8t-8 22zM198 193q0 14 8.5 22.5t22.5 8.5t22 -8.5t8 -22.5t-8 -22t-22 -8t-22.5 8t-8.5 22zM147 269q0 14 8.5 22.5t22.5 8.5q13 0 21.5 -8.5t8.5 -22.5t-8.5 -22.5t-21.5 -8.5q-14 0 -22.5 9t-8.5 22zM582 449q0 13 8.5 22.5t21.5 9.5 q14 0 22.5 -9.5t8.5 -22.5t-8.5 -21.5t-22.5 -8.5q-13 0 -21.5 8.5t-8.5 21.5zM455 142q0 14 8.5 22.5t21.5 8.5q14 0 22.5 -8.5t8.5 -22.5t-8.5 -22.5t-22.5 -8.5q-13 0 -21.5 8.5t-8.5 22.5zM274 576q0 14 8.5 23t22.5 9q13 0 21.5 -9t8.5 -23q0 -13 -8.5 -21.5 t-21.5 -8.5q-14 0 -22.5 8.5t-8.5 21.5zM454 576q0 14 9 22.5t21 8.5q14 0 23 -8.5t9 -22.5q0 -13 -9 -21.5t-23 -8.5t-22 8.5t-8 21.5zM147 449q0 14 8.5 22.5t22.5 8.5t22.5 -8.5t8.5 -22.5q0 -13 -9.5 -22t-21.5 -9q-14 0 -22.5 9t-8.5 22zM581 270q0 13 9 21.5t22 8.5 q14 0 22.5 -8.5t8.5 -21.5q0 -14 -8.5 -22.5t-22.5 -8.5t-22.5 8.5t-8.5 22.5zM274 143q0 13 9 21.5t23 8.5q13 0 21.5 -8.5t8.5 -21.5q0 -14 -9.5 -23t-20.5 -9q-14 0 -23 9t-9 23z" glyph-name="dottedcircle" horiz-adv-x="668" unicode="◌"/><glyph d="M196 -7q-31 0 -51.5 13.5t-33 35.5t-17.5 49t-5 54q0 39 8.5 88t29.5 92.5t56.5 73.5t89.5 30q31 0 51.5 -14t33 -35.5t17.5 -49t5 -54.5q0 -36 -8 -85t-28.5 -93t-56 -74.5t-91.5 -30.5zM205 48q26 0 44.5 13.5t31.5 35t21 48t12 51.5t5.5 45.5t1.5 30.5q0 18 -2.5 36 t-9.5 32.5t-18 24t-28 9.5q-36 0 -59 -27t-35.5 -64t-17 -75t-4.5 -59q0 -17 3 -35t9.5 -32.5t17.5 -24t28 -9.5z" glyph-name="zero.denominator" horiz-adv-x="395" unicode=""/><glyph d="M80 0l57 324h-45l8 43q26 0 43.5 15t28.5 40h40l-74 -422h-58z" glyph-name="one.denominator" horiz-adv-x="211" unicode=""/><glyph d="M108 329q17 43 51.5 71.5t91.5 28.5t88.5 -30.5t31.5 -78.5q0 -29 -8 -52t-25 -42.5t-44 -38.5t-65 -41q-42 -24 -65.5 -45t-38.5 -48h199l-10 -53h-265q7 40 22.5 69t38 51.5t52 42l64.5 41.5q42 26 63.5 50.5t21.5 64.5q0 10 -3.5 20.5t-11 19t-19.5 14t-30 5.5 q-35 0 -57 -17.5t-36 -52.5z" glyph-name="two.denominator" horiz-adv-x="374" unicode=""/><glyph d="M117 114q8 -36 28 -56t52 -20q42 0 66 25t24 62q0 24 -13.5 44.5t-40.5 20.5h-33l8 50h21q20 0 34.5 7.5t24 19.5t14 26.5t4.5 29.5q0 21 -13 38.5t-42 17.5q-27 0 -51.5 -18.5t-40.5 -45.5l-48 18q23 41 64 68.5t89 27.5t76.5 -25t28.5 -68q0 -35 -20.5 -66.5 t-53.5 -45.5q26 -9 40.5 -31t14.5 -53q0 -35 -12.5 -63t-34 -48t-51.5 -30.5t-64 -10.5q-55 0 -86.5 28.5t-41.5 74.5z" glyph-name="three.denominator" horiz-adv-x="386" unicode=""/><glyph d="M231 0l19 108h-201l5 30l266 285h45l-46 -260h50l-10 -55h-50l-19 -108h-59zM260 163l30 172l-153 -172h123z" glyph-name="four.denominator" horiz-adv-x="389" unicode=""/><glyph d="M95 83q11 -19 34.5 -32t52.5 -13q52 0 81 33t29 80q0 29 -16 50.5t-51 21.5q-33 0 -57 -13t-38 -28l-37 13l73 222h202l-10 -55h-159l-37 -113q36 24 82 24q50 0 78.5 -31.5t28.5 -82.5q0 -36 -13.5 -67t-37 -54t-55.5 -36.5t-68 -13.5q-48 0 -79 18t-42 36z" glyph-name="five.denominator" horiz-adv-x="374" unicode=""/><glyph d="M188 -12q-27 0 -47.5 10t-33.5 27.5t-19.5 40t-6.5 47.5q0 55 22.5 107.5t59 95t84.5 72t99 39.5l-9 -50q-48 -12 -94 -51.5t-74 -99.5q17 17 37.5 24t43.5 7t41.5 -9t31 -24.5t19 -35.5t6.5 -41q0 -32 -12 -61t-33.5 -50.5t-51 -34.5t-63.5 -13zM200 38q15 0 31 7 t28.5 20t20.5 32t8 42q0 31 -16 49.5t-43 18.5q-39 0 -65.5 -29t-26.5 -74q0 -31 17 -48.5t46 -17.5z" glyph-name="six.denominator" horiz-adv-x="373" unicode=""/><glyph d="M104 0q11 60 29.5 111.5t42.5 96t52.5 83t58.5 71.5h-193l10 55h257l-11 -58q-44 -42 -75 -89t-53 -93.5t-35.5 -92t-20.5 -84.5h-62z" glyph-name="seven.denominator" horiz-adv-x="322" unicode=""/><glyph d="M192 -12q-54 0 -84.5 30.5t-30.5 76.5q0 55 26.5 88t64.5 50q-15 8 -25.5 27t-10.5 42q0 27 11 50t29.5 40.5t43.5 27t54 9.5q45 0 71.5 -26.5t26.5 -67.5q0 -37 -21 -64t-45 -38q22 -11 36 -34t14 -57t-12 -62t-33.5 -48.5t-51 -32t-63.5 -11.5zM201 38q38 0 65.5 27 t27.5 72q0 27 -16.5 47.5t-47.5 20.5q-19 0 -36 -8t-29.5 -21.5t-20 -31.5t-7.5 -38q0 -31 17.5 -49.5t46.5 -18.5zM238 251q33 0 53.5 20.5t20.5 53.5q0 25 -13.5 39.5t-37.5 14.5q-31 0 -53 -21.5t-22 -56.5q0 -22 14 -36t38 -14z" glyph-name="eight.denominator" horiz-adv-x="388" unicode=""/><glyph d="M109 40q48 12 94.5 51.5t74.5 99.5q-17 -17 -38.5 -24t-44.5 -7t-40.5 9t-30.5 24.5t-19.5 35.5t-6.5 41q0 32 12.5 61t34 50.5t50.5 34.5t63 13q27 0 47.5 -10t33.5 -27.5t19.5 -40t6.5 -47.5q0 -56 -22.5 -108t-59 -94.5t-84.5 -72t-99 -39.5zM217 210q40 0 66 29 t26 74q0 31 -16.5 48.5t-45.5 17.5q-16 0 -32 -7t-28.5 -20t-20.5 -32t-8 -42q0 -31 16 -49.5t43 -18.5z" glyph-name="nine.denominator" horiz-adv-x="373" unicode=""/><glyph d="M246 276q-31 0 -51.5 13.5t-33 35.5t-17.5 49t-5 54q0 39 8.5 88t29.5 92.5t56.5 73.5t89.5 30q31 0 51.5 -14t33 -35.5t17.5 -49t5 -54.5q0 -36 -8 -85t-28.5 -93t-56 -74.5t-91.5 -30.5zM255 331q26 0 44.5 13.5t31.5 35t21 48t12 51.5t5.5 45.5t1.5 30.5q0 18 -2.5 36 t-9.5 32.5t-18 24t-28 9.5q-36 0 -59 -27t-35.5 -64t-17 -75t-4.5 -59q0 -17 3 -35t9.5 -32.5t17.5 -24t28 -9.5z" glyph-name="zero.numerator" horiz-adv-x="395" unicode=""/><glyph d="M130 283l57 324h-45l8 43q26 0 43 15t29 40h40l-74 -422h-58z" glyph-name="one.numerator" horiz-adv-x="211" unicode=""/><glyph d="M158 612q17 43 51.5 71.5t91.5 28.5t88.5 -30.5t31.5 -78.5q0 -29 -8 -52t-25 -42.5t-44 -38.5t-65 -41q-42 -24 -65.5 -45t-38.5 -48h199l-10 -53h-265q7 40 22.5 69t38 51.5t52 42l64.5 41.5q42 26 63.5 50.5t21.5 64.5q0 10 -3.5 20.5t-11 19t-19.5 14t-30 5.5 q-35 0 -57 -17.5t-36 -52.5z" glyph-name="two.numerator" horiz-adv-x="374" unicode=""/><glyph d="M161 616q23 41 64 68.5t89 27.5t76.5 -25t28.5 -68q0 -35 -20.5 -66.5t-53.5 -45.5q26 -9 40.5 -31t14.5 -53q0 -35 -12.5 -63t-34 -48t-51.5 -30.5t-64 -10.5q-55 0 -86.5 28.5t-41.5 74.5l57 23q8 -36 28 -56t52 -20q42 0 66 25t24 62q0 24 -13.5 44.5t-41.5 20.5h-33 l9 50h21q20 0 34.5 7.5t24 19.5t14 26.5t4.5 29.5q0 21 -13 38.5t-42 17.5q-27 0 -51.5 -18.5t-41.5 -45.5z" glyph-name="three.numerator" horiz-adv-x="386" unicode=""/><glyph d="M281 283l19 108h-201l5 30l265 285h45l-45 -260h50l-10 -55h-50l-19 -108h-59zM310 446l30 172l-153 -172h123z" glyph-name="four.numerator" horiz-adv-x="389" unicode=""/><glyph d="M145 366q11 -19 34.5 -32t52.5 -13q25 0 45.5 9t35 24.5t22 36t7.5 43.5q0 29 -16 50.5t-51 21.5q-33 0 -57 -13t-38 -28l-37 13l72 222h202l-9 -55h-159l-37 -113q36 24 82 24q50 0 78.5 -31.5t28.5 -82.5q0 -36 -13.5 -67t-37 -54t-55.5 -36.5t-68 -13.5q-48 0 -79 18 t-42 36z" glyph-name="five.numerator" horiz-adv-x="374" unicode=""/><glyph d="M238 271q-27 0 -47.5 10t-33.5 27.5t-19.5 40t-6.5 47.5q0 55 22.5 107.5t59 95t84.5 72t99 39.5l-9 -50q-48 -12 -94 -51.5t-74 -99.5q17 17 37.5 24t43.5 7t41.5 -9t31 -24.5t19 -35.5t6.5 -41q0 -32 -12 -61t-33.5 -50.5t-51 -34.5t-63.5 -13zM250 321q15 0 31 7 t28.5 20t20.5 32t8 42q0 31 -16 49.5t-43 18.5q-20 0 -36.5 -8t-29.5 -21.5t-20 -32.5t-7 -41q0 -31 17.5 -48.5t46.5 -17.5z" glyph-name="six.numerator" horiz-adv-x="373" unicode=""/><glyph d="M154 283q11 60 29.5 111.5t42.5 96t52.5 83t58.5 71.5h-193l9 55h257l-10 -58q-44 -42 -75.5 -89t-53 -93.5t-35 -92t-20.5 -84.5h-62z" glyph-name="seven.numerator" horiz-adv-x="322" unicode=""/><glyph d="M242 271q-54 0 -84.5 30.5t-30.5 76.5q0 55 26.5 88t64.5 50q-15 8 -25.5 27t-10.5 42q0 27 11 50t29.5 40.5t43.5 27t54 9.5q45 0 71.5 -26.5t26.5 -67.5q0 -37 -21 -64t-45 -38q22 -11 36 -34t14 -57t-12 -62t-33.5 -48.5t-51 -32t-63.5 -11.5zM251 321q38 0 65.5 27 t27.5 72q0 27 -16.5 47.5t-47.5 20.5q-19 0 -36 -8t-29.5 -21.5t-20 -31.5t-7.5 -38q0 -31 17.5 -49.5t46.5 -18.5zM288 534q32 0 53 20.5t21 53.5q0 25 -13.5 39.5t-37.5 14.5q-32 0 -53.5 -21.5t-21.5 -56.5q0 -22 14 -36t38 -14z" glyph-name="eight.numerator" horiz-adv-x="388" unicode=""/><glyph d="M159 323q48 12 94 51.5t75 99.5q-17 -17 -38.5 -24t-44.5 -7t-40.5 9t-30.5 24.5t-19.5 35.5t-6.5 41q0 32 12.5 61t34 50.5t50.5 34.5t63 13q27 0 47.5 -10t33.5 -27.5t19.5 -40t6.5 -47.5q0 -56 -22.5 -108t-59 -94.5t-84.5 -72t-99 -39.5zM267 493q40 0 66 29t26 74 q0 31 -16.5 48.5t-45.5 17.5q-16 0 -32 -7t-28.5 -20t-20.5 -32t-8 -42q0 -31 16 -49.5t43 -18.5z" glyph-name="nine.numerator" horiz-adv-x="373" unicode=""/><glyph d="M96 -239q4 3 11 9t14.5 15.5t14.5 22t11 27.5q-23 0 -33.5 13t-10.5 30q0 29 20 46.5t41 17.5q17 0 29.5 -13t12.5 -36q0 -36 -21.5 -72.5t-71.5 -64.5z" glyph-name="undercommaaccent" unicode=""/><glyph d="M348 730l-2 -8q-11 -61 -35 -116.5t-80 -103.5l-17 14q9 15 19 39.5t19 54t16.5 61t12.5 59.5h67z" glyph-name="commaaccent" unicode=""/><glyph d="M399 0l11 58q-30 -41 -67.5 -55.5t-70.5 -14.5q-29 0 -58 14t-42 48l-39 -223l-75 -30l126 714h70l-55 -310q-2 -14 -4 -26.5t-2 -32.5q0 -15 4.5 -31.5t15 -29.5t28.5 -21.5t46 -8.5q23 0 46.5 8t43.5 25t35 45t22 68l55 314h68l-90 -511h-68z" glyph-name="mugreek" horiz-adv-x="564"/><glyph glyph-name="nonbreakingspace" horiz-adv-x="221"/><glyph d="M95 0l90 511h70l-90 -511h-70zM239 616q-17 0 -28 11t-11 28q0 23 16 39t36 16q19 0 29.5 -11t10.5 -28q0 -23 -16.5 -39t-36.5 -16z" glyph-name="i.dot" horiz-adv-x="261"/><glyph d="M166 318h-66l11 62h66l56 320h177q68 0 116.5 -24.5t79.5 -65.5t45.5 -93.5t14.5 -108.5q0 -39 -7 -85t-23.5 -91t-44.5 -87t-70.5 -74.5t-100.5 -51.5t-134 -19h-176zM302 63q86 0 142.5 34t90.5 85.5t47.5 112t13.5 113.5q0 43 -10.5 84t-33 73t-57 52t-82.5 20h-121 l-45 -257h148l-11 -62h-148l-45 -255h111z" glyph-name="Eth" horiz-adv-x="672" unicode="Ð"/></font>
</defs>
</svg>
